<svg width="336" height="332" viewBox="0 0 336 332" fill="none" xmlns="http://www.w3.org/2000/svg">
<path d="M211.417 82.4488L200.207 9.24423C198.59 -1.31586 183.764 -2.32343 180.734 7.92079L156.696 89.1644C155.068 94.6685 149.151 97.6751 143.745 95.7451L46.7885 61.1293C36.8385 57.5769 28.8944 69.8742 36.2234 77.484L98.1376 141.77C102.561 146.363 101.614 153.866 96.1887 157.216L5.18931 213.403C-4.25665 219.236 1.4157 233.818 12.3199 231.734L117.619 211.613C123.783 210.436 129.496 215.16 129.496 221.436V321.467C129.496 332.085 143.86 335.384 148.494 325.831L200.977 217.621C203.246 212.942 208.722 210.783 213.574 212.655L322.053 254.503C332.232 258.43 340.447 245.54 332.589 237.971L250.117 158.538C245.792 154.373 246.087 147.363 250.746 143.576L317.456 89.3541C325.637 82.7043 319.289 69.5576 308.994 71.829L223.456 90.7004C217.813 91.9454 212.292 88.1614 211.417 82.4488Z" fill="#00503F"/>
<path d="M146 151.44L148.04 134.76H150.68C163.04 134.76 171.2 128.4 178.52 118.08H192.8L183.32 195H159.56L164.96 151.44H146Z" fill="white"/>
</svg>
