<svg width="186" height="187" viewBox="0 0 186 187" fill="none" xmlns="http://www.w3.org/2000/svg">
<path d="M150.269 118.768L176.776 114.707C187.335 113.089 188.343 98.2655 178.1 95.2337L145.851 85.6881C140.349 84.0593 137.343 78.1433 139.271 72.7383L154.734 29.4081C158.286 19.4572 145.986 11.515 138.378 18.846L112.013 44.2496C107.42 48.6749 99.9141 47.7278 96.5644 42.3004L73.6736 5.21053C67.8428 -4.23718 53.2586 1.43354 55.3414 12.3386L63.5733 55.4381C64.7506 61.6018 60.026 67.3142 53.7509 67.3142L10.5154 67.3142C-0.10143 67.3142 -3.40186 81.6762 6.14987 86.311L57.5683 111.261C62.2454 113.53 64.4035 119.005 62.5331 123.855L43.6685 172.778C39.743 182.958 52.6359 191.171 60.2031 183.311L95.241 146.916C99.4064 142.589 106.419 142.884 110.206 147.546L132.32 174.764C138.968 182.948 152.117 176.601 149.847 166.305L142.018 130.806C140.774 125.163 144.557 119.643 150.269 118.768Z" fill="#00503F"/>
<path d="M79.0446 81.9098C80.4924 72.1518 88.9506 65.6719 100.304 65.6719C111.201 65.6719 117.602 71.237 117.602 79.4703C117.602 88.0848 111.43 93.8787 108.305 96.6993L100.685 103.56H115.697L114.173 115.682H74.7012L75.387 110.04L97.1802 89.4571C99.39 87.3987 101.752 85.0355 101.752 81.9098C101.752 79.6228 99.8472 78.1743 97.4088 78.1743C93.9036 78.1743 91.8462 80.995 91.8462 83.8919L79.0446 81.9098Z" fill="white"/>
</svg>
