<svg width="194" height="192" viewBox="0 0 194 192" fill="none" xmlns="http://www.w3.org/2000/svg">
<path d="M123.055 37.6488L118.706 9.24423C117.089 -1.31586 102.263 -2.32342 99.232 7.9208L89.1019 42.1599C87.4734 47.664 81.5561 50.6706 76.1504 48.7406L30.6499 32.4958C20.6999 28.9434 12.7559 41.2408 20.0848 48.8505L46.9787 76.7747C51.4018 81.3672 50.455 88.8705 45.0297 92.2204L5.73912 116.48C-3.70683 122.313 1.96552 136.895 12.8697 134.811L58.4955 126.093C64.6594 124.915 70.3723 129.64 70.3723 135.915V181.467C70.3723 192.085 84.7364 195.384 89.3699 185.831L115.43 132.1C117.699 127.422 123.175 125.263 128.027 127.134L179.36 146.938C189.54 150.865 197.755 137.974 189.897 130.405L151.623 93.5429C147.299 89.3777 147.594 82.3674 152.253 78.5803L181.085 55.146C189.266 48.4962 182.918 35.3494 172.623 37.6208L135.095 45.9004C129.451 47.1454 123.93 43.3615 123.055 37.6488Z" fill="#00503F"/>
<path d="M81.0996 86.186L82.4256 75.344H84.1416C92.1756 75.344 97.4796 71.21 102.238 64.502H111.52L105.358 114.5H89.9136L93.4236 86.186H81.0996Z" fill="white"/>
</svg>
