<svg width="2566" height="160" viewBox="0 0 2566 160" fill="none" xmlns="http://www.w3.org/2000/svg">
<path d="M0 0H2566V160H0V0Z" fill="white"/>
<path d="M59.2 80.08L51.04 82.96C50.96 82.08 50.72 81.04 50.48 80C35.76 81.68 33.04 82.24 31.28 83.04C30.88 81.36 29.6 77.2 28.64 74.88C30.4 74.56 31.92 73.28 34 71.2C34.4 70.8 35.04 70.24 35.76 69.44C32.32 69.84 30.96 70.24 30.08 70.64C29.6 68.96 28.32 65.04 27.44 62.8C28.72 62.48 29.92 61.36 31.2 59.68C32.48 58 36.48 51.76 38.8 45.52L46.88 48.56C44.56 53.2 41.36 58 38.24 62.08L42.08 61.92C44 59.36 45.92 56.56 47.52 53.76L55.76 57.36C51.76 63.04 46.88 68.56 42.08 73.2L48.16 72.72C47.68 71.36 47.12 70 46.56 68.8L54.24 66.24C56.48 70.64 58.64 76.32 59.2 80.08ZM82.48 94.64H75.6C76.32 96.64 77.2 98.4 78.08 100.08C79.76 98.4 81.28 96.56 82.48 94.64ZM83.76 71.04L88.48 70.64C88 69.68 87.44 68.8 86.88 67.92C85.84 68.96 84.8 70.08 83.76 71.04ZM84.96 94.64L93.52 97.28C91.04 101.28 87.92 104.88 84.32 108C86 109.28 87.84 109.92 89.68 109.92C92.08 109.92 93.04 108.4 93.68 101.52C96.08 103.92 99.6 106.16 102.4 107.2C100.24 118.48 97.04 120.72 89.12 120.72C83.68 120.72 78.96 118.48 75.04 114.64C70.24 117.44 65.12 119.76 59.92 121.52C58.4 119.28 54.64 114.96 52.4 112.96C58.4 111.44 64 109.36 68.96 106.64C66.96 103.12 65.2 99.12 63.68 94.64H49.36C49.28 95.44 49.12 96.32 48.96 97.12C53.12 99.2 57.84 102.16 60.32 104.64L52.72 112C51.36 110.48 49.04 108.56 46.48 106.8C44 113.44 40.08 119.12 33.76 122.4C32.16 120.32 28.24 116.48 26 114.88C34.32 111.28 37.28 103.2 38.08 94.64H27.36V85.12H61.04C58.16 73.12 56.88 59.28 56.8 45.6H68.08C67.84 59.68 69.52 73.76 72.48 85.12H81.76C80.08 83.84 78.16 82.56 76.48 81.6L78.8 79.52C75.28 80.08 74 80.4 73.04 80.88C72.64 79.2 71.28 75.04 70.32 72.72C72.08 72.4 73.68 71.12 75.76 69.04C76.16 68.72 76.72 68.16 77.36 67.44C73.92 67.84 72.56 68.24 71.68 68.64C71.28 66.96 69.92 63.04 69.04 60.88C70.16 60.56 71.28 59.52 72.4 58C73.52 56.48 77.04 50.88 78.96 45.28L87.04 48.24C85.04 52.32 82.4 56.56 79.68 60.08L83.68 59.92C85.68 57.36 87.6 54.48 89.2 51.6L97.44 55.2C94.48 59.36 91.04 63.52 87.52 67.28L94.48 64.4C97.44 68.64 100.4 74.32 101.52 78.24L93.2 81.84C92.88 80.64 92.48 79.36 91.92 77.84L86.56 78.48C88.4 79.68 90.16 81.04 91.36 82.16L88.08 85.12H100.88V94.64H84.96ZM114.72 104.4L121.6 103.6C122.48 108.08 123.04 113.84 123.04 117.68L115.76 118.56C115.92 115.44 115.6 111.04 115.12 107.12C114.08 112.48 112.56 118.08 109.44 121.6L102 117.84C104.88 114.4 106.8 108.96 107.6 103.84L114.96 106.08L114.72 104.4ZM122.88 104.16L129.6 102.96C131.04 107.2 132.4 112.72 132.8 116.4L125.76 117.84C125.52 114.16 124.24 108.48 122.88 104.16ZM165.12 108.32V93.76H153.2V108.32H165.12ZM114.08 61.68V71.76H119.6V68.4L115.36 69.84C115.28 67.6 114.72 64.56 114.08 61.68ZM119.6 55.36H114.08V58.24L117.68 57.12C118.4 59.36 119.12 62 119.6 64.4V55.36ZM132.08 58.32V55.36H126.4V65.36C127.28 62.56 128.08 59.44 128.48 57.12L132.08 58.32ZM126.4 71.76H132.08V63.68C131.12 65.92 130.32 68.16 129.52 69.76L126.4 68.56V71.76ZM178.72 72.4H164.08V83.28H176.16V121.2H165.12V118.8H153.2V121.52H142.72V114.24L136.16 116.88C135.36 113.28 133.12 107.76 130.8 103.68L137.44 101.28C125.52 101.84 113.28 102.4 104.24 102.72L103.92 93.04C107.92 92.96 112.72 92.88 117.92 92.8V90.32H106.08V81.68H117.92V79.36H105.6V47.76H140.96V79.36H128.08V81.68H140.32V90.32H128.08V92.48C132.56 92.4 137.2 92.24 141.68 92.08L141.44 101.04L137.6 101.28C139.6 104.4 141.6 108.48 142.72 111.84V83.28H152.8V45.68H164.08V61.68H178.72V72.4ZM210.56 92.72C209.28 80.56 225.28 78.16 225.28 71.12C225.28 66.72 221.52 64.72 216.24 64.72C211.68 64.72 208 66.8 204.8 70.48L196.96 63.28C201.92 57.2 209.44 53.2 217.92 53.2C229.68 53.2 238.88 58.4 238.88 69.84C238.88 81.36 222.32 82.16 223.04 92.72H210.56ZM207.36 106.08C207.36 100.96 211.28 97.36 216.8 97.36C222.32 97.36 226.24 100.96 226.24 106.08C226.24 111.2 222.32 114.96 216.8 114.96C211.28 114.96 207.36 111.2 207.36 106.08Z" fill="#00503F"/>
<mask id="path-3-outside-1_253_3863" maskUnits="userSpaceOnUse" x="279" y="48" width="470" height="73" fill="black">
<rect fill="white" x="279" y="48" width="470" height="73"/>
<path d="M294 115L283.2 55.4H297.76L301.52 82.6C302.32 88.84 303.12 95.08 303.92 101.48H304.24C305.36 95.08 306.56 88.76 307.76 82.6L313.84 55.4H325.92L332.08 82.6C333.28 88.68 334.32 95.08 335.52 101.48H335.92C336.64 95.08 337.44 88.76 338.16 82.6L342.08 55.4H355.6L345.28 115H327.28L321.92 89.08C320.96 84.52 320.16 79.72 319.6 75.24H319.28C318.48 79.72 317.76 84.52 316.88 89.08L311.68 115H294ZM360.446 115V55.4H374.766V78.12H394.366V55.4H408.606V115H394.366V90.52H374.766V115H360.446ZM411.679 115L430.159 55.4H447.279L465.759 115H450.719L443.279 85.24C441.679 79.32 440.159 72.2 438.559 66.12H438.239C436.799 72.36 435.199 79.32 433.679 85.24L426.239 115H411.679ZM424.239 101.32V90.28H453.039V101.32H424.239ZM473.456 115V67.32H457.376V55.4H503.936V67.32H487.776V115H473.456ZM536.509 115V67.32H520.429V55.4H566.989V67.32H550.829V115H536.509ZM572.961 115V55.4H587.281V115H572.961ZM597.73 115V55.4H613.17L622.61 81.16C623.81 84.6 624.77 88.36 625.89 91.96H626.29C627.49 88.36 628.45 84.6 629.57 81.16L638.69 55.4H654.21V115H641.17V94.6C641.17 88.68 642.29 79.8 643.09 73.96H642.69L637.73 88.2L629.73 109.96H621.89L613.81 88.2L609.01 73.96H608.69C609.41 79.8 610.53 88.68 610.53 94.6V115H597.73ZM664.686 115V55.4H702.446V67.32H679.006V78.36H698.926V90.36H679.006V103H703.326V115H664.686ZM719.077 93.4C717.157 81.08 730.437 75.96 730.437 69.4C730.437 65.8 727.957 64.04 724.677 64.04C721.397 64.04 719.077 65.72 716.597 68.2L708.757 61C713.157 55.96 719.237 52.6 726.437 52.6C736.437 52.6 744.117 57.32 744.117 68.44C744.117 79.56 730.437 82.84 731.477 93.4H719.077ZM725.237 116.12C720.277 116.12 716.757 112.2 716.757 107.24C716.757 102.28 720.277 98.44 725.237 98.44C730.117 98.44 733.717 102.28 733.717 107.24C733.717 112.2 730.117 116.12 725.237 116.12Z"/>
</mask>
<path d="M294 115L290.064 115.713L294 119V115ZM283.2 55.4V51.4L279.264 56.1132L283.2 55.4ZM297.76 55.4L301.722 54.8523L297.76 51.4V55.4ZM301.52 82.6L305.488 82.0913L305.482 82.0523L301.52 82.6ZM303.92 101.48L299.951 101.976L303.92 105.48V101.48ZM304.24 101.48V105.48L308.18 102.17L304.24 101.48ZM307.76 82.6L303.856 81.7274L303.834 81.8352L307.76 82.6ZM313.84 55.4V51.4L309.936 54.5274L313.84 55.4ZM325.92 55.4L329.821 54.5165L325.92 51.4V55.4ZM332.08 82.6L336.004 81.8255L335.981 81.7165L332.08 82.6ZM335.52 101.48L331.589 102.217L335.52 105.48V101.48ZM335.92 101.48V105.48L339.895 101.927L335.92 101.48ZM338.16 82.6L334.201 82.0294L334.187 82.1356L338.16 82.6ZM342.08 55.4V51.4L338.121 54.8294L342.08 55.4ZM355.6 55.4L359.541 56.0825L355.6 51.4V55.4ZM345.28 115V119L349.221 115.682L345.28 115ZM327.28 115L323.363 115.81L327.28 119V115ZM321.92 89.08L325.837 88.27L325.834 88.256L321.92 89.08ZM319.6 75.24L323.569 74.7439L319.6 71.24V75.24ZM319.28 75.24V71.24L315.342 74.5368L319.28 75.24ZM316.88 89.08L320.802 89.8668L320.808 89.8379L316.88 89.08ZM311.68 115V119L315.602 115.787L311.68 115ZM297.936 114.287L287.136 54.6868L279.264 56.1132L290.064 115.713L297.936 114.287ZM283.2 59.4H297.76V51.4H283.2V59.4ZM293.798 55.9477L297.558 83.1477L305.482 82.0523L301.722 54.8523L293.798 55.9477ZM297.552 83.1087C298.353 89.3496 299.152 95.5834 299.951 101.976L307.889 100.984C307.088 94.5766 306.287 88.3304 305.488 82.0913L297.552 83.1087ZM303.92 105.48H304.24V97.48H303.92V105.48ZM308.18 102.17C309.294 95.8054 310.488 89.5135 311.686 83.3648L303.834 81.8352C302.632 88.0065 301.426 94.3546 300.3 100.79L308.18 102.17ZM311.664 83.4726L317.744 56.2726L309.936 54.5274L303.856 81.7274L311.664 83.4726ZM313.84 59.4H325.92V51.4H313.84V59.4ZM322.019 56.2835L328.179 83.4835L335.981 81.7165L329.821 54.5165L322.019 56.2835ZM328.156 83.3745C329.362 89.4841 330.354 95.6333 331.589 102.217L339.451 100.743C338.286 94.5267 337.198 87.8759 336.004 81.8255L328.156 83.3745ZM335.52 105.48H335.92V97.48H335.52V105.48ZM339.895 101.927C340.616 95.5219 341.405 89.2918 342.133 83.0644L334.187 82.1356C333.475 88.2282 332.664 94.6381 331.945 101.033L339.895 101.927ZM342.119 83.1706L346.039 55.9706L338.121 54.8294L334.201 82.0294L342.119 83.1706ZM342.08 59.4H355.6V51.4H342.08V59.4ZM351.659 54.7175L341.339 114.318L349.221 115.682L359.541 56.0825L351.659 54.7175ZM345.28 111H327.28V119H345.28V111ZM331.197 114.19L325.837 88.27L318.003 89.89L323.363 115.81L331.197 114.19ZM325.834 88.256C324.897 83.8049 324.115 79.1143 323.569 74.7439L315.631 75.7361C316.205 80.3257 317.023 85.2351 318.006 89.904L325.834 88.256ZM319.6 71.24H319.28V79.24H319.6V71.24ZM315.342 74.5368C314.507 79.212 313.834 83.7542 312.952 88.3221L320.808 89.8379C321.686 85.2858 322.453 80.228 323.218 75.9432L315.342 74.5368ZM312.958 88.2932L307.758 114.213L315.602 115.787L320.802 89.8668L312.958 88.2932ZM311.68 111H294V119H311.68V111ZM360.446 115H356.446L360.446 119V115ZM360.446 55.4V51.4L356.446 55.4H360.446ZM374.766 55.4H378.766L374.766 51.4V55.4ZM374.766 78.12H370.766L374.766 82.12V78.12ZM394.366 78.12V82.12L398.366 78.12H394.366ZM394.366 55.4V51.4L390.366 55.4H394.366ZM408.606 55.4H412.606L408.606 51.4V55.4ZM408.606 115V119L412.606 115H408.606ZM394.366 115H390.366L394.366 119V115ZM394.366 90.52H398.366L394.366 86.52V90.52ZM374.766 90.52V86.52L370.766 90.52H374.766ZM374.766 115V119L378.766 115H374.766ZM364.446 115V55.4H356.446V115H364.446ZM360.446 59.4H374.766V51.4H360.446V59.4ZM370.766 55.4V78.12H378.766V55.4H370.766ZM374.766 82.12H394.366V74.12H374.766V82.12ZM398.366 78.12V55.4H390.366V78.12H398.366ZM394.366 59.4H408.606V51.4H394.366V59.4ZM404.606 55.4V115H412.606V55.4H404.606ZM408.606 111H394.366V119H408.606V111ZM398.366 115V90.52H390.366V115H398.366ZM394.366 86.52H374.766V94.52H394.366V86.52ZM370.766 90.52V115H378.766V90.52H370.766ZM374.766 111H360.446V119H374.766V111ZM411.679 115L407.858 113.815L411.679 119V115ZM430.159 55.4V51.4L426.338 54.2154L430.159 55.4ZM447.279 55.4L451.099 54.2154L447.279 51.4V55.4ZM465.759 115V119L469.579 113.815L465.759 115ZM450.719 115L446.838 115.97L450.719 119V115ZM443.279 85.24L447.159 84.2699L447.14 84.1964L443.279 85.24ZM438.559 66.12L442.427 65.102L438.559 62.12V66.12ZM438.239 66.12V62.12L434.341 65.2206L438.239 66.12ZM433.679 85.24L429.804 84.2452L429.798 84.2699L433.679 85.24ZM426.239 115V119L430.119 115.97L426.239 115ZM424.239 101.32H420.239L424.239 105.32V101.32ZM424.239 90.28V86.28L420.239 90.28H424.239ZM453.039 90.28H457.039L453.039 86.28V90.28ZM453.039 101.32V105.32L457.039 101.32H453.039ZM415.499 116.185L433.979 56.5846L426.338 54.2154L407.858 113.815L415.499 116.185ZM430.159 59.4H447.279V51.4H430.159V59.4ZM443.458 56.5846L461.938 116.185L469.579 113.815L451.099 54.2154L443.458 56.5846ZM465.759 111H450.719V119H465.759V111ZM454.599 114.03L447.159 84.2699L439.398 86.2101L446.838 115.97L454.599 114.03ZM447.14 84.1964C446.359 81.3046 445.592 78.103 444.81 74.8146C444.034 71.5505 443.242 68.1983 442.427 65.102L434.69 67.138C435.476 70.1217 436.243 73.3695 437.027 76.6654C437.805 79.937 438.599 83.2554 439.417 86.2836L447.14 84.1964ZM438.559 62.12H438.239V70.12H438.559V62.12ZM434.341 65.2206C432.898 71.4764 431.31 78.383 429.804 84.2452L437.553 86.2348C439.088 80.257 440.7 73.2436 442.136 67.0194L434.341 65.2206ZM429.798 84.2699L422.358 114.03L430.119 115.97L437.559 86.2101L429.798 84.2699ZM426.239 111H411.679V119H426.239V111ZM428.239 101.32V90.28H420.239V101.32H428.239ZM424.239 94.28H453.039V86.28H424.239V94.28ZM449.039 90.28V101.32H457.039V90.28H449.039ZM453.039 97.32H424.239V105.32H453.039V97.32ZM473.456 115H469.456L473.456 119V115ZM473.456 67.32H477.456L473.456 63.32V67.32ZM457.376 67.32H453.376L457.376 71.32V67.32ZM457.376 55.4V51.4L453.376 55.4H457.376ZM503.936 55.4H507.936L503.936 51.4V55.4ZM503.936 67.32V71.32L507.936 67.32H503.936ZM487.776 67.32V63.32L483.776 67.32H487.776ZM487.776 115V119L491.776 115H487.776ZM477.456 115V67.32H469.456V115H477.456ZM473.456 63.32H457.376V71.32H473.456V63.32ZM461.376 67.32V55.4H453.376V67.32H461.376ZM457.376 59.4H503.936V51.4H457.376V59.4ZM499.936 55.4V67.32H507.936V55.4H499.936ZM503.936 63.32H487.776V71.32H503.936V63.32ZM483.776 67.32V115H491.776V67.32H483.776ZM487.776 111H473.456V119H487.776V111ZM536.509 115H532.509L536.509 119V115ZM536.509 67.32H540.509L536.509 63.32V67.32ZM520.429 67.32H516.429L520.429 71.32V67.32ZM520.429 55.4V51.4L516.429 55.4H520.429ZM566.989 55.4H570.989L566.989 51.4V55.4ZM566.989 67.32V71.32L570.989 67.32H566.989ZM550.829 67.32V63.32L546.829 67.32H550.829ZM550.829 115V119L554.829 115H550.829ZM540.509 115V67.32H532.509V115H540.509ZM536.509 63.32H520.429V71.32H536.509V63.32ZM524.429 67.32V55.4H516.429V67.32H524.429ZM520.429 59.4H566.989V51.4H520.429V59.4ZM562.989 55.4V67.32H570.989V55.4H562.989ZM566.989 63.32H550.829V71.32H566.989V63.32ZM546.829 67.32V115H554.829V67.32H546.829ZM550.829 111H536.509V119H550.829V111ZM572.961 115H568.961L572.961 119V115ZM572.961 55.4V51.4L568.961 55.4H572.961ZM587.281 55.4H591.281L587.281 51.4V55.4ZM587.281 115V119L591.281 115H587.281ZM576.961 115V55.4H568.961V115H576.961ZM572.961 59.4H587.281V51.4H572.961V59.4ZM583.281 55.4V115H591.281V55.4H583.281ZM587.281 111H572.961V119H587.281V111ZM597.73 115H593.73L597.73 119V115ZM597.73 55.4V51.4L593.73 55.4H597.73ZM613.17 55.4L616.926 54.0237L613.17 51.4V55.4ZM622.61 81.16L626.387 79.8425L626.366 79.7837L622.61 81.16ZM625.89 91.96L622.071 93.1483L625.89 95.96V91.96ZM626.29 91.96V95.96L630.085 93.2249L626.29 91.96ZM629.57 81.16L625.799 79.825L625.767 79.9217L629.57 81.16ZM638.69 55.4V51.4L634.919 54.065L638.69 55.4ZM654.21 55.4H658.21L654.21 51.4V55.4ZM654.21 115V119L658.21 115H654.21ZM641.17 115H637.17L641.17 119V115ZM643.09 73.96L647.053 74.5029L643.09 69.96V73.96ZM642.69 73.96V69.96L638.913 72.6443L642.69 73.96ZM637.73 88.2L641.484 89.5803L641.507 89.5157L637.73 88.2ZM629.73 109.96V113.96L633.484 111.34L629.73 109.96ZM621.89 109.96L618.14 111.352L621.89 113.96V109.96ZM613.81 88.2L610.02 89.4777L610.06 89.5924L613.81 88.2ZM609.01 73.96L612.8 72.6823L609.01 69.96V73.96ZM608.69 73.96V69.96L604.72 74.4494L608.69 73.96ZM610.53 115V119L614.53 115H610.53ZM601.73 115V55.4H593.73V115H601.73ZM597.73 59.4H613.17V51.4H597.73V59.4ZM609.414 56.7763L618.854 82.5363L626.366 79.7837L616.926 54.0237L609.414 56.7763ZM618.833 82.4775C620.021 85.8811 620.85 89.226 622.071 93.1483L629.709 90.7717C628.69 87.494 627.599 83.3189 626.387 79.8425L618.833 82.4775ZM625.89 95.96H626.29V87.96H625.89V95.96ZM630.085 93.2249C630.712 91.3426 631.272 89.4337 631.8 87.6184C632.336 85.778 632.837 84.0457 633.374 82.3983L625.767 79.9217C625.183 81.7143 624.644 83.582 624.12 85.3816C623.588 87.2063 623.068 88.9774 622.495 90.6951L630.085 93.2249ZM633.341 82.495L642.461 56.7349L634.919 54.065L625.799 79.825L633.341 82.495ZM638.69 59.4H654.21V51.4H638.69V59.4ZM650.21 55.4V115H658.21V55.4H650.21ZM654.21 111H641.17V119H654.21V111ZM645.17 115V94.6H637.17V115H645.17ZM645.17 94.6C645.17 88.9995 646.246 80.3923 647.053 74.5029L639.127 73.4171C638.334 79.2077 637.17 88.3605 637.17 94.6H645.17ZM643.09 69.96H642.69V77.96H643.09V69.96ZM638.913 72.6443L633.953 86.8843L641.507 89.5157L646.467 75.2757L638.913 72.6443ZM633.976 86.8197L625.976 108.58L633.484 111.34L641.484 89.5803L633.976 86.8197ZM629.73 105.96H621.89V113.96H629.73V105.96ZM625.64 108.568L617.56 86.8076L610.06 89.5924L618.14 111.352L625.64 108.568ZM617.6 86.9223L612.8 72.6823L605.22 75.2377L610.02 89.4777L617.6 86.9223ZM609.01 69.96H608.69V77.96H609.01V69.96ZM604.72 74.4494C605.453 80.3961 606.53 88.985 606.53 94.6H614.53C614.53 88.375 613.367 79.2039 612.66 73.4706L604.72 74.4494ZM606.53 94.6V115H614.53V94.6H606.53ZM610.53 111H597.73V119H610.53V111ZM664.686 115H660.686L664.686 119V115ZM664.686 55.4V51.4L660.686 55.4H664.686ZM702.446 55.4H706.446L702.446 51.4V55.4ZM702.446 67.32V71.32L706.446 67.32H702.446ZM679.006 67.32V63.32L675.006 67.32H679.006ZM679.006 78.36H675.006L679.006 82.36V78.36ZM698.926 78.36H702.926L698.926 74.36V78.36ZM698.926 90.36V94.36L702.926 90.36H698.926ZM679.006 90.36V86.36L675.006 90.36H679.006ZM679.006 103H675.006L679.006 107V103ZM703.326 103H707.326L703.326 99V103ZM703.326 115V119L707.326 115H703.326ZM668.686 115V55.4H660.686V115H668.686ZM664.686 59.4H702.446V51.4H664.686V59.4ZM698.446 55.4V67.32H706.446V55.4H698.446ZM702.446 63.32H679.006V71.32H702.446V63.32ZM675.006 67.32V78.36H683.006V67.32H675.006ZM679.006 82.36H698.926V74.36H679.006V82.36ZM694.926 78.36V90.36H702.926V78.36H694.926ZM698.926 86.36H679.006V94.36H698.926V86.36ZM675.006 90.36V103H683.006V90.36H675.006ZM679.006 107H703.326V99H679.006V107ZM699.326 103V115H707.326V103H699.326ZM703.326 111H664.686V119H703.326V111ZM719.077 93.4L715.125 94.0159L719.077 97.4V93.4ZM716.597 68.2L713.891 71.1461L719.425 71.0284L716.597 68.2ZM708.757 61L705.744 58.3694L706.051 63.9461L708.757 61ZM731.477 93.4V97.4L735.458 93.008L731.477 93.4ZM723.029 92.7841C722.345 88.3929 724.224 85.2113 727.09 81.8238C728.331 80.3578 730.314 78.2621 731.574 76.6089C732.926 74.8337 734.437 72.3965 734.437 69.4H726.437C726.437 69.6835 726.288 70.3463 725.21 71.7611C724.039 73.2979 722.823 74.4822 720.983 76.6562C717.69 80.5487 713.889 86.0871 715.125 94.0159L723.029 92.7841ZM734.437 69.4C734.437 66.6143 733.437 64.1014 731.402 62.3434C729.454 60.6598 726.989 60.04 724.677 60.04V68.04C725.645 68.04 726.06 68.3002 726.172 68.3966C726.222 68.4405 726.269 68.4954 726.314 68.6012C726.362 68.7158 726.437 68.9611 726.437 69.4H734.437ZM724.677 60.04C719.749 60.04 716.445 62.6955 713.768 65.3716L719.425 71.0284C721.709 68.7445 723.044 68.04 724.677 68.04V60.04ZM719.303 65.2539L711.462 58.0539L706.051 63.9461L713.891 71.1461L719.303 65.2539ZM711.77 63.6306C715.543 59.3096 720.578 56.6 726.437 56.6V48.6C717.895 48.6 710.771 52.6104 705.744 58.3694L711.77 63.6306ZM726.437 56.6C730.878 56.6 734.286 57.656 736.508 59.4572C738.595 61.1492 740.117 63.8844 740.117 68.44H748.117C748.117 61.8756 745.799 56.6908 741.546 53.2428C737.428 49.904 731.996 48.6 726.437 48.6V56.6ZM740.117 68.44C740.117 72.1931 737.948 74.6831 734.481 78.4028C731.365 81.7458 726.776 86.4756 727.496 93.792L735.458 93.008C735.138 89.7644 736.869 87.5742 740.333 83.8572C743.446 80.5169 748.117 75.8069 748.117 68.44H740.117ZM731.477 89.4H719.077V97.4H731.477V89.4ZM725.237 112.12C722.725 112.12 720.757 110.238 720.757 107.24H712.757C712.757 114.162 717.828 120.12 725.237 120.12V112.12ZM720.757 107.24C720.757 104.291 722.679 102.44 725.237 102.44V94.44C717.874 94.44 712.757 100.269 712.757 107.24H720.757ZM725.237 102.44C727.739 102.44 729.717 104.316 729.717 107.24H737.717C737.717 100.244 732.495 94.44 725.237 94.44V102.44ZM729.717 107.24C729.717 110.212 727.693 112.12 725.237 112.12V120.12C732.541 120.12 737.717 114.188 737.717 107.24H729.717Z" fill="#00503F" mask="url(#path-3-outside-1_253_3863)"/>
<path d="M778.24 114V102.48H790.88V68.64H779.92V59.84C786.32 58.64 790.48 57.04 794.64 54.48H805.12V102.48H815.84V114H778.24ZM841.87 115.12C829.31 115.12 820.83 104.4 820.83 83.92C820.83 63.44 829.31 53.36 841.87 53.36C854.43 53.36 862.99 63.6 862.99 83.92C862.99 104.4 854.43 115.12 841.87 115.12ZM841.87 104.08C846.11 104.08 849.55 100.24 849.55 83.92C849.55 67.68 846.11 64.32 841.87 64.32C837.63 64.32 834.27 67.68 834.27 83.92C834.27 100.24 837.63 104.08 841.87 104.08ZM877.18 85.84C872.22 85.84 868.7 82 868.7 77.04C868.7 72.08 872.22 68.24 877.18 68.24C882.06 68.24 885.66 72.08 885.66 77.04C885.66 82 882.06 85.84 877.18 85.84ZM877.18 115.12C872.22 115.12 868.7 111.2 868.7 106.24C868.7 101.36 872.22 97.44 877.18 97.44C882.06 97.44 885.66 101.36 885.66 106.24C885.66 111.2 882.06 115.12 877.18 115.12ZM912.267 115.12C899.707 115.12 891.227 104.4 891.227 83.92C891.227 63.44 899.707 53.36 912.267 53.36C924.827 53.36 933.387 63.6 933.387 83.92C933.387 104.4 924.827 115.12 912.267 115.12ZM912.267 104.08C916.507 104.08 919.947 100.24 919.947 83.92C919.947 67.68 916.507 64.32 912.267 64.32C908.027 64.32 904.667 67.68 904.667 83.92C904.667 100.24 908.027 104.08 912.267 104.08ZM957.817 115.12C945.257 115.12 936.777 104.4 936.777 83.92C936.777 63.44 945.257 53.36 957.817 53.36C970.377 53.36 978.937 63.6 978.937 83.92C978.937 104.4 970.377 115.12 957.817 115.12ZM957.817 104.08C962.057 104.08 965.497 100.24 965.497 83.92C965.497 67.68 962.057 64.32 957.817 64.32C953.577 64.32 950.217 67.68 950.217 83.92C950.217 100.24 953.577 104.08 957.817 104.08ZM998.128 95.84V85.84H1020.77V95.84H998.128ZM1042.87 114V102.48H1055.51V68.64H1044.55V59.84C1050.95 58.64 1055.11 57.04 1059.27 54.48H1069.75V102.48H1080.47V114H1042.87ZM1097.54 88.32H1108.9V79.6C1108.9 75.84 1109.3 70.16 1109.46 66.4H1109.14C1107.62 69.76 1106.02 73.2 1104.34 76.56L1097.54 88.32ZM1128.82 88.32V99.12H1122.18V114H1108.9V99.12H1083.94V89.28L1104.66 54.48H1122.18V88.32H1128.82ZM1141.81 85.84C1136.85 85.84 1133.33 82 1133.33 77.04C1133.33 72.08 1136.85 68.24 1141.81 68.24C1146.69 68.24 1150.29 72.08 1150.29 77.04C1150.29 82 1146.69 85.84 1141.81 85.84ZM1141.81 115.12C1136.85 115.12 1133.33 111.2 1133.33 106.24C1133.33 101.36 1136.85 97.44 1141.81 97.44C1146.69 97.44 1150.29 101.36 1150.29 106.24C1150.29 111.2 1146.69 115.12 1141.81 115.12ZM1176.9 115.12C1164.34 115.12 1155.86 104.4 1155.86 83.92C1155.86 63.44 1164.34 53.36 1176.9 53.36C1189.46 53.36 1198.02 63.6 1198.02 83.92C1198.02 104.4 1189.46 115.12 1176.9 115.12ZM1176.9 104.08C1181.14 104.08 1184.58 100.24 1184.58 83.92C1184.58 67.68 1181.14 64.32 1176.9 64.32C1172.66 64.32 1169.3 67.68 1169.3 83.92C1169.3 100.24 1172.66 104.08 1176.9 104.08ZM1222.45 115.12C1209.89 115.12 1201.41 104.4 1201.41 83.92C1201.41 63.44 1209.89 53.36 1222.45 53.36C1235.01 53.36 1243.57 63.6 1243.57 83.92C1243.57 104.4 1235.01 115.12 1222.45 115.12ZM1222.45 104.08C1226.69 104.08 1230.13 100.24 1230.13 83.92C1230.13 67.68 1226.69 64.32 1222.45 64.32C1218.21 64.32 1214.85 67.68 1214.85 83.92C1214.85 100.24 1218.21 104.08 1222.45 104.08Z" fill="#00503F"/>
<mask id="path-6-outside-2_253_3863" maskUnits="userSpaceOnUse" x="1270" y="41" width="220" height="85" fill="black">
<rect fill="white" x="1270" y="41" width="220" height="85"/>
<path d="M1306.2 80.08L1298.04 82.96C1297.96 82.08 1297.72 81.04 1297.48 80C1282.76 81.68 1280.04 82.24 1278.28 83.04C1277.88 81.36 1276.6 77.2 1275.64 74.88C1277.4 74.56 1278.92 73.28 1281 71.2C1281.4 70.8 1282.04 70.24 1282.76 69.44C1279.32 69.84 1277.96 70.24 1277.08 70.64C1276.6 68.96 1275.32 65.04 1274.44 62.8C1275.72 62.48 1276.92 61.36 1278.2 59.68C1279.48 58 1283.48 51.76 1285.8 45.52L1293.88 48.56C1291.56 53.2 1288.36 58 1285.24 62.08L1289.08 61.92C1291 59.36 1292.92 56.56 1294.52 53.76L1302.76 57.36C1298.76 63.04 1293.88 68.56 1289.08 73.2L1295.16 72.72C1294.68 71.36 1294.12 70 1293.56 68.8L1301.24 66.24C1303.48 70.64 1305.64 76.32 1306.2 80.08ZM1329.48 94.64H1322.6C1323.32 96.64 1324.2 98.4 1325.08 100.08C1326.76 98.4 1328.28 96.56 1329.48 94.64ZM1330.76 71.04L1335.48 70.64C1335 69.68 1334.44 68.8 1333.88 67.92C1332.84 68.96 1331.8 70.08 1330.76 71.04ZM1331.96 94.64L1340.52 97.28C1338.04 101.28 1334.92 104.88 1331.32 108C1333 109.28 1334.84 109.92 1336.68 109.92C1339.08 109.92 1340.04 108.4 1340.68 101.52C1343.08 103.92 1346.6 106.16 1349.4 107.2C1347.24 118.48 1344.04 120.72 1336.12 120.72C1330.68 120.72 1325.96 118.48 1322.04 114.64C1317.24 117.44 1312.12 119.76 1306.92 121.52C1305.4 119.28 1301.64 114.96 1299.4 112.96C1305.4 111.44 1311 109.36 1315.96 106.64C1313.96 103.12 1312.2 99.12 1310.68 94.64H1296.36C1296.28 95.44 1296.12 96.32 1295.96 97.12C1300.12 99.2 1304.84 102.16 1307.32 104.64L1299.72 112C1298.36 110.48 1296.04 108.56 1293.48 106.8C1291 113.44 1287.08 119.12 1280.76 122.4C1279.16 120.32 1275.24 116.48 1273 114.88C1281.32 111.28 1284.28 103.2 1285.08 94.64H1274.36V85.12H1308.04C1305.16 73.12 1303.88 59.28 1303.8 45.6H1315.08C1314.84 59.68 1316.52 73.76 1319.48 85.12H1328.76C1327.08 83.84 1325.16 82.56 1323.48 81.6L1325.8 79.52C1322.28 80.08 1321 80.4 1320.04 80.88C1319.64 79.2 1318.28 75.04 1317.32 72.72C1319.08 72.4 1320.68 71.12 1322.76 69.04C1323.16 68.72 1323.72 68.16 1324.36 67.44C1320.92 67.84 1319.56 68.24 1318.68 68.64C1318.28 66.96 1316.92 63.04 1316.04 60.88C1317.16 60.56 1318.28 59.52 1319.4 58C1320.52 56.48 1324.04 50.88 1325.96 45.28L1334.04 48.24C1332.04 52.32 1329.4 56.56 1326.68 60.08L1330.68 59.92C1332.68 57.36 1334.6 54.48 1336.2 51.6L1344.44 55.2C1341.48 59.36 1338.04 63.52 1334.52 67.28L1341.48 64.4C1344.44 68.64 1347.4 74.32 1348.52 78.24L1340.2 81.84C1339.88 80.64 1339.48 79.36 1338.92 77.84L1333.56 78.48C1335.4 79.68 1337.16 81.04 1338.36 82.16L1335.08 85.12H1347.88V94.64H1331.96ZM1361.72 104.4L1368.6 103.6C1369.48 108.08 1370.04 113.84 1370.04 117.68L1362.76 118.56C1362.92 115.44 1362.6 111.04 1362.12 107.12C1361.08 112.48 1359.56 118.08 1356.44 121.6L1349 117.84C1351.88 114.4 1353.8 108.96 1354.6 103.84L1361.96 106.08L1361.72 104.4ZM1369.88 104.16L1376.6 102.96C1378.04 107.2 1379.4 112.72 1379.8 116.4L1372.76 117.84C1372.52 114.16 1371.24 108.48 1369.88 104.16ZM1412.12 108.32V93.76H1400.2V108.32H1412.12ZM1361.08 61.68V71.76H1366.6V68.4L1362.36 69.84C1362.28 67.6 1361.72 64.56 1361.08 61.68ZM1366.6 55.36H1361.08V58.24L1364.68 57.12C1365.4 59.36 1366.12 62 1366.6 64.4V55.36ZM1379.08 58.32V55.36H1373.4V65.36C1374.28 62.56 1375.08 59.44 1375.48 57.12L1379.08 58.32ZM1373.4 71.76H1379.08V63.68C1378.12 65.92 1377.32 68.16 1376.52 69.76L1373.4 68.56V71.76ZM1425.72 72.4H1411.08V83.28H1423.16V121.2H1412.12V118.8H1400.2V121.52H1389.72V114.24L1383.16 116.88C1382.36 113.28 1380.12 107.76 1377.8 103.68L1384.44 101.28C1372.52 101.84 1360.28 102.4 1351.24 102.72L1350.92 93.04C1354.92 92.96 1359.72 92.88 1364.92 92.8V90.32H1353.08V81.68H1364.92V79.36H1352.6V47.76H1387.96V79.36H1375.08V81.68H1387.32V90.32H1375.08V92.48C1379.56 92.4 1384.2 92.24 1388.68 92.08L1388.44 101.04L1384.6 101.28C1386.6 104.4 1388.6 108.48 1389.72 111.84V83.28H1399.8V45.68H1411.08V61.68H1425.72V72.4ZM1457.56 92.72C1456.28 80.56 1472.28 78.16 1472.28 71.12C1472.28 66.72 1468.52 64.72 1463.24 64.72C1458.68 64.72 1455 66.8 1451.8 70.48L1443.96 63.28C1448.92 57.2 1456.44 53.2 1464.92 53.2C1476.68 53.2 1485.88 58.4 1485.88 69.84C1485.88 81.36 1469.32 82.16 1470.04 92.72H1457.56ZM1454.36 106.08C1454.36 100.96 1458.28 97.36 1463.8 97.36C1469.32 97.36 1473.24 100.96 1473.24 106.08C1473.24 111.2 1469.32 114.96 1463.8 114.96C1458.28 114.96 1454.36 111.2 1454.36 106.08Z"/>
</mask>
<path d="M1306.2 80.08L1307.53 83.852L1310.16 79.4908L1306.2 80.08ZM1298.04 82.96L1294.06 83.3221L1299.37 86.732L1298.04 82.96ZM1297.48 80L1301.38 79.1006L1297.03 76.0258L1297.48 80ZM1278.28 83.04L1274.39 83.9665L1279.94 86.6815L1278.28 83.04ZM1275.64 74.88L1274.92 70.9445L1271.94 76.4094L1275.64 74.88ZM1281 71.2L1278.17 68.3716L1278.17 68.3716L1281 71.2ZM1282.76 69.44L1285.73 72.1159L1282.3 65.4668L1282.76 69.44ZM1277.08 70.64L1273.23 71.7389L1278.74 74.2815L1277.08 70.64ZM1274.44 62.8L1273.47 58.9194L1270.72 64.2626L1274.44 62.8ZM1278.2 59.68L1281.38 62.1042L1281.38 62.1042L1278.2 59.68ZM1285.8 45.52L1287.21 41.7762L1282.05 44.126L1285.8 45.52ZM1293.88 48.56L1297.46 50.3489L1295.29 44.8162L1293.88 48.56ZM1285.24 62.08L1282.06 59.6502L1285.41 66.0765L1285.24 62.08ZM1289.08 61.92L1289.25 65.9165L1292.28 64.32L1289.08 61.92ZM1294.52 53.76L1296.12 50.0946L1291.05 51.7754L1294.52 53.76ZM1302.76 57.36L1306.03 59.6631L1304.36 53.6946L1302.76 57.36ZM1289.08 73.2L1286.3 70.324L1289.39 77.1876L1289.08 73.2ZM1295.16 72.72L1295.47 76.7076L1298.93 71.3887L1295.16 72.72ZM1293.56 68.8L1292.3 65.0053L1289.94 70.4915L1293.56 68.8ZM1301.24 66.24L1304.8 64.4253L1299.98 62.4453L1301.24 66.24ZM1329.48 94.64L1332.87 96.76L1329.48 90.64V94.64ZM1322.6 94.64V90.64L1318.84 95.9949L1322.6 94.64ZM1325.08 100.08L1321.54 101.936L1327.91 102.908L1325.08 100.08ZM1330.76 71.04L1328.05 68.1008L1331.1 75.0257L1330.76 71.04ZM1335.48 70.64L1335.82 74.6257L1339.06 68.8511L1335.48 70.64ZM1333.88 67.92L1337.25 65.7725L1331.05 65.0916L1333.88 67.92ZM1331.96 94.64V90.64L1330.78 98.4623L1331.96 94.64ZM1340.52 97.28L1343.92 99.3878L1341.7 93.4577L1340.52 97.28ZM1331.32 108L1328.7 104.977L1328.9 111.182L1331.32 108ZM1340.68 101.52L1343.51 98.6916L1336.7 101.15L1340.68 101.52ZM1349.4 107.2L1353.33 107.952L1350.79 103.45L1349.4 107.2ZM1322.04 114.64L1324.84 111.783L1320.02 111.185L1322.04 114.64ZM1306.92 121.52L1303.61 123.766L1308.2 125.309L1306.92 121.52ZM1299.4 112.96L1298.42 109.082L1296.74 115.944L1299.4 112.96ZM1315.96 106.64L1317.88 110.147L1319.44 104.664L1315.96 106.64ZM1310.68 94.64L1314.47 93.3548L1310.68 90.64V94.64ZM1296.36 94.64V90.64L1292.38 94.242L1296.36 94.64ZM1295.96 97.12L1292.04 96.3355L1294.17 100.698L1295.96 97.12ZM1307.32 104.64L1310.1 107.513L1310.15 101.812L1307.32 104.64ZM1299.72 112L1296.74 114.667L1302.5 114.873L1299.72 112ZM1293.48 106.8L1295.75 103.504L1289.73 105.4L1293.48 106.8ZM1280.76 122.4L1277.59 124.839L1282.6 125.95L1280.76 122.4ZM1273 114.88L1271.41 111.209L1270.68 118.135L1273 114.88ZM1285.08 94.64L1289.06 95.0122L1285.08 90.64V94.64ZM1274.36 94.64H1270.36L1274.36 98.64V94.64ZM1274.36 85.12V81.12L1270.36 85.12H1274.36ZM1308.04 85.12V89.12L1311.93 84.1865L1308.04 85.12ZM1303.8 45.6V41.6L1299.8 45.6234L1303.8 45.6ZM1315.08 45.6L1319.08 45.6682L1315.08 41.6V45.6ZM1319.48 85.12L1315.61 86.1286L1319.48 89.12V85.12ZM1328.76 85.12V89.12L1331.18 81.9383L1328.76 85.12ZM1323.48 81.6L1320.81 78.6217L1321.5 85.073L1323.48 81.6ZM1325.8 79.52L1328.47 82.4983L1325.17 75.5697L1325.8 79.52ZM1320.04 80.88L1316.15 81.8065L1321.83 84.4577L1320.04 80.88ZM1317.32 72.72L1316.6 68.7845L1313.62 74.2494L1317.32 72.72ZM1322.76 69.04L1320.26 65.9165L1319.93 66.2116L1322.76 69.04ZM1324.36 67.44L1327.35 70.0975L1323.9 63.4668L1324.36 67.44ZM1318.68 68.64L1314.79 69.5665L1320.34 72.2815L1318.68 68.64ZM1316.04 60.88L1314.94 57.0339L1312.34 62.3892L1316.04 60.88ZM1325.96 45.28L1327.34 41.5241L1322.18 43.9827L1325.96 45.28ZM1334.04 48.24L1337.63 50.0006L1335.42 44.4841L1334.04 48.24ZM1326.68 60.08L1323.51 57.6342L1326.84 64.0768L1326.68 60.08ZM1330.68 59.92L1330.84 63.9168L1333.83 62.3826L1330.68 59.92ZM1336.2 51.6L1337.8 47.9346L1332.7 49.6574L1336.2 51.6ZM1344.44 55.2L1347.7 57.519L1346.04 51.5346L1344.44 55.2ZM1334.52 67.28L1331.6 64.5463L1336.05 70.9761L1334.52 67.28ZM1341.48 64.4L1344.76 62.1103L1339.95 60.7039L1341.48 64.4ZM1348.52 78.24L1350.11 81.9111L1352.37 77.1411L1348.52 78.24ZM1340.2 81.84L1336.34 82.8707L1341.79 85.5111L1340.2 81.84ZM1338.92 77.84L1342.67 76.4572L1338.45 73.8682L1338.92 77.84ZM1333.56 78.48L1333.09 74.5082L1331.37 81.8304L1333.56 78.48ZM1338.36 82.16L1341.04 85.1296L1341.09 79.2358L1338.36 82.16ZM1335.08 85.12L1332.4 82.1504L1335.08 89.12V85.12ZM1347.88 85.12H1351.88L1347.88 81.12V85.12ZM1347.88 94.64V98.64L1351.88 94.64H1347.88ZM1304.87 76.308L1296.71 79.188L1299.37 86.732L1307.53 83.852L1304.87 76.308ZM1302.02 82.5979C1301.91 81.3896 1301.6 80.059 1301.38 79.1006L1293.58 80.8994C1293.84 82.021 1294.01 82.7704 1294.06 83.3221L1302.02 82.5979ZM1297.03 76.0258C1289.67 76.8652 1285.22 77.4349 1282.37 77.9029C1279.52 78.3706 1277.99 78.7782 1276.62 79.3985L1279.94 86.6815C1280.33 86.5018 1281.04 86.2294 1283.67 85.7971C1286.3 85.365 1290.57 84.8148 1297.93 83.9742L1297.03 76.0258ZM1282.17 82.1135C1281.73 80.2545 1280.39 75.89 1279.34 73.3506L1271.94 76.4094C1272.81 78.51 1274.03 82.4655 1274.39 83.9665L1282.17 82.1135ZM1276.36 78.8155C1279.52 78.2407 1281.86 75.9972 1283.83 74.0284L1278.17 68.3716C1275.98 70.5628 1275.28 70.8793 1274.92 70.9445L1276.36 78.8155ZM1283.83 74.0284C1283.98 73.876 1284.94 72.9985 1285.73 72.1159L1279.79 66.7641C1279.51 67.0711 1279.24 67.341 1278.98 67.594C1278.85 67.7244 1278.72 67.8409 1278.59 67.9702C1278.46 68.0898 1278.31 68.2316 1278.17 68.3716L1283.83 74.0284ZM1282.3 65.4668C1278.74 65.8805 1276.88 66.3363 1275.42 66.9985L1278.74 74.2815C1279.04 74.1437 1279.9 73.7995 1283.22 73.4132L1282.3 65.4668ZM1280.93 69.5411C1280.42 67.7625 1279.1 63.7182 1278.16 61.3374L1270.72 64.2626C1271.54 66.3618 1272.78 70.1575 1273.23 71.7389L1280.93 69.5411ZM1275.41 66.6806C1278.13 65.9999 1280.05 63.8465 1281.38 62.1042L1275.02 57.2558C1274.47 57.9794 1274.04 58.4354 1273.72 58.7095C1273.4 58.9808 1273.33 58.9553 1273.47 58.9194L1275.41 66.6806ZM1281.38 62.1042C1282.85 60.1712 1287.07 53.5886 1289.55 46.9139L1282.05 44.126C1279.89 49.9314 1276.11 55.8288 1275.02 57.2558L1281.38 62.1042ZM1284.39 49.2638L1292.47 52.3038L1295.29 44.8162L1287.21 41.7762L1284.39 49.2638ZM1290.3 46.7711C1288.13 51.1171 1285.08 55.6993 1282.06 59.6502L1288.42 64.5098C1291.64 60.3007 1294.99 55.2829 1297.46 50.3489L1290.3 46.7711ZM1285.41 66.0765L1289.25 65.9165L1288.91 57.9235L1285.07 58.0835L1285.41 66.0765ZM1292.28 64.32C1294.26 61.6737 1296.29 58.7314 1297.99 55.7446L1291.05 51.7754C1289.55 54.3886 1287.74 57.0463 1285.88 59.52L1292.28 64.32ZM1292.92 57.4254L1301.16 61.0254L1304.36 53.6946L1296.12 50.0946L1292.92 57.4254ZM1299.49 55.0569C1295.66 60.4997 1290.95 65.8304 1286.3 70.324L1291.86 76.076C1296.81 71.2896 1301.86 65.5803 1306.03 59.6631L1299.49 55.0569ZM1289.39 77.1876L1295.47 76.7076L1294.85 68.7324L1288.77 69.2124L1289.39 77.1876ZM1298.93 71.3887C1298.41 69.9045 1297.8 68.4243 1297.18 67.1085L1289.94 70.4915C1290.44 71.5757 1290.95 72.8155 1291.39 74.0513L1298.93 71.3887ZM1294.82 72.5947L1302.5 70.0347L1299.98 62.4453L1292.3 65.0053L1294.82 72.5947ZM1297.68 68.0547C1299.83 72.2886 1301.78 77.5252 1302.24 80.6692L1310.16 79.4908C1309.5 75.1147 1307.13 68.9914 1304.8 64.4253L1297.68 68.0547ZM1329.48 90.64H1322.6V98.64H1329.48V90.64ZM1318.84 95.9949C1319.65 98.2617 1320.64 100.219 1321.54 101.936L1328.62 98.224C1327.76 96.5812 1326.99 95.0183 1326.36 93.2851L1318.84 95.9949ZM1327.91 102.908C1329.76 101.057 1331.48 98.9832 1332.87 96.76L1326.09 92.52C1325.08 94.1367 1323.76 95.743 1322.25 97.2516L1327.91 102.908ZM1331.1 75.0257L1335.82 74.6257L1335.14 66.6543L1330.42 67.0543L1331.1 75.0257ZM1339.06 68.8511C1338.47 67.6771 1337.8 66.627 1337.25 65.7725L1330.51 70.0675C1331.08 70.973 1331.53 71.6829 1331.9 72.4289L1339.06 68.8511ZM1331.05 65.0916C1329.86 66.2873 1329.02 67.2049 1328.05 68.1008L1333.47 73.9792C1334.58 72.9551 1335.82 71.6327 1336.71 70.7484L1331.05 65.0916ZM1330.78 98.4623L1339.34 101.102L1341.7 93.4577L1333.14 90.8177L1330.78 98.4623ZM1337.12 95.1722C1334.87 98.8089 1332.01 102.105 1328.7 104.977L1333.94 111.023C1337.83 107.655 1341.21 103.751 1343.92 99.3878L1337.12 95.1722ZM1328.9 111.182C1331.2 112.936 1333.88 113.92 1336.68 113.92V105.92C1335.8 105.92 1334.8 105.624 1333.74 104.818L1328.9 111.182ZM1336.68 113.92C1337.68 113.92 1338.96 113.765 1340.21 113.048C1341.5 112.312 1342.35 111.223 1342.92 110.089C1343.92 108.087 1344.35 105.264 1344.66 101.89L1336.7 101.15C1336.54 102.808 1336.38 104.044 1336.2 104.966C1336.01 105.913 1335.84 106.351 1335.76 106.511C1335.71 106.617 1335.83 106.338 1336.24 106.102C1336.62 105.885 1336.88 105.92 1336.68 105.92V113.92ZM1337.85 104.348C1340.64 107.14 1344.65 109.702 1348.01 110.95L1350.79 103.45C1348.55 102.618 1345.52 100.7 1343.51 98.6916L1337.85 104.348ZM1345.47 106.448C1344.41 112.006 1343.24 114.264 1342.16 115.299C1341.26 116.151 1339.85 116.72 1336.12 116.72V124.72C1340.31 124.72 1344.46 124.169 1347.68 121.081C1350.72 118.176 1352.23 113.674 1353.33 107.952L1345.47 106.448ZM1336.12 116.72C1331.89 116.72 1328.14 115.012 1324.84 111.783L1319.24 117.497C1323.78 121.948 1329.47 124.72 1336.12 124.72V116.72ZM1320.02 111.185C1315.46 113.848 1310.59 116.056 1305.64 117.731L1308.2 125.309C1313.65 123.464 1319.02 121.032 1324.06 118.095L1320.02 111.185ZM1310.23 119.274C1308.53 116.762 1304.55 112.194 1302.06 109.976L1296.74 115.944C1298.73 117.726 1302.27 121.798 1303.61 123.766L1310.23 119.274ZM1300.38 116.838C1306.64 115.252 1312.57 113.061 1317.88 110.147L1314.04 103.133C1309.43 105.659 1304.16 107.628 1298.42 109.082L1300.38 116.838ZM1319.44 104.664C1317.58 101.397 1315.92 97.6342 1314.47 93.3548L1306.89 95.9252C1308.48 100.606 1310.34 104.843 1312.48 108.616L1319.44 104.664ZM1310.68 90.64H1296.36V98.64H1310.68V90.64ZM1292.38 94.242C1292.32 94.839 1292.19 95.5615 1292.04 96.3355L1299.88 97.9045C1300.05 97.0784 1300.24 96.041 1300.34 95.038L1292.38 94.242ZM1294.17 100.698C1298.21 102.715 1302.47 105.446 1304.49 107.468L1310.15 101.812C1307.21 98.8743 1302.03 95.6848 1297.75 93.5423L1294.17 100.698ZM1304.54 101.767L1296.94 109.127L1302.5 114.873L1310.1 107.513L1304.54 101.767ZM1302.7 109.333C1301.04 107.477 1298.43 105.35 1295.75 103.504L1291.21 110.096C1293.65 111.77 1295.68 113.483 1296.74 114.667L1302.7 109.333ZM1289.73 105.4C1287.47 111.465 1284.07 116.174 1278.92 118.85L1282.6 125.95C1290.09 122.066 1294.53 115.415 1297.23 108.2L1289.73 105.4ZM1283.93 119.961C1282.1 117.586 1277.9 113.466 1275.32 111.625L1270.68 118.135C1272.58 119.494 1276.22 123.054 1277.59 124.839L1283.93 119.961ZM1274.59 118.551C1284.95 114.069 1288.22 104.066 1289.06 95.0122L1281.1 94.2678C1280.34 102.334 1277.69 108.491 1271.41 111.209L1274.59 118.551ZM1285.08 90.64H1274.36V98.64H1285.08V90.64ZM1278.36 94.64V85.12H1270.36V94.64H1278.36ZM1274.36 89.12H1308.04V81.12H1274.36V89.12ZM1311.93 84.1865C1309.14 72.5696 1307.88 59.0518 1307.8 45.5766L1299.8 45.6234C1299.88 59.5082 1301.18 73.6704 1304.15 86.0535L1311.93 84.1865ZM1303.8 49.6H1315.08V41.6H1303.8V49.6ZM1311.08 45.5318C1310.83 59.9421 1312.55 74.3867 1315.61 86.1286L1323.35 84.1114C1320.49 73.1333 1318.85 59.4179 1319.08 45.6682L1311.08 45.5318ZM1319.48 89.12H1328.76V81.12H1319.48V89.12ZM1331.18 81.9383C1329.38 80.5612 1327.31 79.1818 1325.46 78.127L1321.5 85.073C1323.01 85.9382 1324.78 87.1188 1326.34 88.3017L1331.18 81.9383ZM1326.15 84.5783L1328.47 82.4983L1323.13 76.5417L1320.81 78.6217L1326.15 84.5783ZM1325.17 75.5697C1321.76 76.1131 1319.85 76.5009 1318.25 77.3023L1321.83 84.4577C1322.15 84.299 1322.8 84.0469 1326.43 83.4703L1325.17 75.5697ZM1323.93 79.9535C1323.47 78.034 1322.04 73.6712 1321.02 71.1906L1313.62 74.2494C1314.52 76.4087 1315.81 80.366 1316.15 81.8065L1323.93 79.9535ZM1318.04 76.6555C1321.16 76.0867 1323.56 73.8985 1325.59 71.8684L1319.93 66.2116C1317.8 68.3415 1317 68.7133 1316.6 68.7845L1318.04 76.6555ZM1325.26 72.1635C1325.93 71.6288 1326.67 70.8667 1327.35 70.0975L1321.37 64.7825C1320.77 65.4533 1320.39 65.8112 1320.26 65.9165L1325.26 72.1635ZM1323.9 63.4668C1320.34 63.8805 1318.48 64.3363 1317.02 64.9985L1320.34 72.2815C1320.64 72.1437 1321.5 71.7995 1324.82 71.4132L1323.9 63.4668ZM1322.57 67.7135C1322.1 65.7457 1320.66 61.6103 1319.74 59.3708L1312.34 62.3892C1313.18 64.4697 1314.46 68.1743 1314.79 69.5665L1322.57 67.7135ZM1317.14 64.7261C1319.61 64.0187 1321.41 62.0158 1322.62 60.3728L1316.18 55.6272C1315.73 56.2424 1315.36 56.6411 1315.09 56.8797C1314.8 57.1265 1314.75 57.0872 1314.94 57.0339L1317.14 64.7261ZM1322.62 60.3728C1323.91 58.6193 1327.66 52.6594 1329.74 46.5773L1322.18 43.9827C1320.42 49.1006 1317.13 54.3407 1316.18 55.6272L1322.62 60.3728ZM1324.58 49.0359L1332.66 51.9959L1335.42 44.4841L1327.34 41.5241L1324.58 49.0359ZM1330.45 46.4794C1328.57 50.3195 1326.07 54.3296 1323.51 57.6342L1329.85 62.5258C1332.73 58.7904 1335.51 54.3205 1337.63 50.0006L1330.45 46.4794ZM1326.84 64.0768L1330.84 63.9168L1330.52 55.9232L1326.52 56.0832L1326.84 64.0768ZM1333.83 62.3826C1335.96 59.6636 1337.99 56.6102 1339.7 53.5426L1332.7 49.6574C1331.21 52.3498 1329.4 55.0564 1327.53 57.4574L1333.83 62.3826ZM1334.6 55.2654L1342.84 58.8654L1346.04 51.5346L1337.8 47.9346L1334.6 55.2654ZM1341.18 52.881C1338.33 56.8827 1335.01 60.9049 1331.6 64.5463L1337.44 70.0137C1341.07 66.135 1344.63 61.8373 1347.7 57.519L1341.18 52.881ZM1336.05 70.9761L1343.01 68.0961L1339.95 60.7039L1332.99 63.5839L1336.05 70.9761ZM1338.2 66.6897C1341.01 70.7094 1343.72 75.9845 1344.67 79.3389L1352.37 77.1411C1351.08 72.6555 1347.87 66.5706 1344.76 62.1103L1338.2 66.6897ZM1346.93 74.5689L1338.61 78.1689L1341.79 85.5111L1350.11 81.9111L1346.93 74.5689ZM1344.06 80.8093C1343.71 79.4839 1343.27 78.0864 1342.67 76.4572L1335.17 79.2228C1335.69 80.6336 1336.05 81.7961 1336.34 82.8707L1344.06 80.8093ZM1338.45 73.8682L1333.09 74.5082L1334.03 82.4518L1339.39 81.8118L1338.45 73.8682ZM1331.37 81.8304C1333.07 82.933 1334.63 84.1539 1335.63 85.0842L1341.09 79.2358C1339.69 77.9261 1337.73 76.427 1335.75 75.1296L1331.37 81.8304ZM1335.68 79.1904L1332.4 82.1504L1337.76 88.0896L1341.04 85.1296L1335.68 79.1904ZM1335.08 89.12H1347.88V81.12H1335.08V89.12ZM1343.88 85.12V94.64H1351.88V85.12H1343.88ZM1347.88 90.64H1331.96V98.64H1347.88V90.64ZM1361.72 104.4L1361.26 100.427L1357.76 104.966L1361.72 104.4ZM1368.6 103.6L1372.53 102.829L1368.14 99.6268L1368.6 103.6ZM1370.04 117.68L1370.52 121.651L1374.04 117.68H1370.04ZM1362.76 118.56L1358.77 118.355L1363.24 122.531L1362.76 118.56ZM1362.12 107.12L1366.09 106.634L1358.19 106.358L1362.12 107.12ZM1356.44 121.6L1354.64 125.17L1359.43 124.253L1356.44 121.6ZM1349 117.84L1345.93 115.272L1347.2 121.41L1349 117.84ZM1354.6 103.84L1355.76 100.013L1350.65 103.222L1354.6 103.84ZM1361.96 106.08L1360.8 109.907L1365.92 105.514L1361.96 106.08ZM1369.88 104.16L1369.18 100.222L1366.06 105.361L1369.88 104.16ZM1376.6 102.96L1380.39 101.674L1375.9 99.0223L1376.6 102.96ZM1379.8 116.4L1380.6 120.319L1383.78 115.968L1379.8 116.4ZM1372.76 117.84L1368.77 118.1L1373.56 121.759L1372.76 117.84ZM1412.12 108.32V112.32L1416.12 108.32H1412.12ZM1412.12 93.76H1416.12L1412.12 89.76V93.76ZM1400.2 93.76V89.76L1396.2 93.76H1400.2ZM1400.2 108.32H1396.2L1400.2 112.32V108.32ZM1361.08 61.68L1364.98 60.8123L1357.08 61.68H1361.08ZM1361.08 71.76H1357.08L1361.08 75.76V71.76ZM1366.6 71.76V75.76L1370.6 71.76H1366.6ZM1366.6 68.4H1370.6L1365.31 64.6125L1366.6 68.4ZM1362.36 69.84L1358.36 69.9828L1363.65 73.6275L1362.36 69.84ZM1366.6 55.36H1370.6L1366.6 51.36V55.36ZM1361.08 55.36V51.36L1357.08 55.36H1361.08ZM1361.08 58.24H1357.08L1362.27 62.0594L1361.08 58.24ZM1364.68 57.12L1368.49 55.896L1363.49 53.3006L1364.68 57.12ZM1366.6 64.4L1362.68 65.1845L1370.6 64.4H1366.6ZM1379.08 58.32L1377.82 62.1147L1383.08 58.32H1379.08ZM1379.08 55.36H1383.08L1379.08 51.36V55.36ZM1373.4 55.36V51.36L1369.4 55.36H1373.4ZM1373.4 65.36H1369.4L1377.22 66.5593L1373.4 65.36ZM1375.48 57.12L1376.74 53.3253L1371.54 56.4404L1375.48 57.12ZM1373.4 71.76H1369.4L1373.4 75.76V71.76ZM1379.08 71.76V75.76L1383.08 71.76H1379.08ZM1379.08 63.68H1383.08L1375.4 62.1043L1379.08 63.68ZM1376.52 69.76L1375.08 73.4934L1380.1 71.5489L1376.52 69.76ZM1373.4 68.56L1374.84 64.8266L1369.4 68.56H1373.4ZM1425.72 72.4V76.4L1429.72 72.4H1425.72ZM1411.08 72.4V68.4L1407.08 72.4H1411.08ZM1411.08 83.28H1407.08L1411.08 87.28V83.28ZM1423.16 83.28H1427.16L1423.16 79.28V83.28ZM1423.16 121.2V125.2L1427.16 121.2H1423.16ZM1412.12 121.2H1408.12L1412.12 125.2V121.2ZM1412.12 118.8H1416.12L1412.12 114.8V118.8ZM1400.2 118.8V114.8L1396.2 118.8H1400.2ZM1400.2 121.52V125.52L1404.2 121.52H1400.2ZM1389.72 121.52H1385.72L1389.72 125.52V121.52ZM1389.72 114.24H1393.72L1388.23 110.529L1389.72 114.24ZM1383.16 116.88L1379.26 117.748L1384.65 120.591L1383.16 116.88ZM1377.8 103.68L1376.44 99.9182L1374.32 105.657L1377.8 103.68ZM1384.44 101.28L1385.8 105.042L1384.25 97.2844L1384.44 101.28ZM1351.24 102.72L1347.24 102.852L1351.38 106.717L1351.24 102.72ZM1350.92 93.04L1350.84 89.0408L1346.92 93.1722L1350.92 93.04ZM1364.92 92.8L1364.98 96.7995L1368.92 92.8H1364.92ZM1364.92 90.32H1368.92L1364.92 86.32V90.32ZM1353.08 90.32H1349.08L1353.08 94.32V90.32ZM1353.08 81.68V77.68L1349.08 81.68H1353.08ZM1364.92 81.68V85.68L1368.92 81.68H1364.92ZM1364.92 79.36H1368.92L1364.92 75.36V79.36ZM1352.6 79.36H1348.6L1352.6 83.36V79.36ZM1352.6 47.76V43.76L1348.6 47.76H1352.6ZM1387.96 47.76H1391.96L1387.96 43.76V47.76ZM1387.96 79.36V83.36L1391.96 79.36H1387.96ZM1375.08 79.36V75.36L1371.08 79.36H1375.08ZM1375.08 81.68H1371.08L1375.08 85.68V81.68ZM1387.32 81.68H1391.32L1387.32 77.68V81.68ZM1387.32 90.32V94.32L1391.32 90.32H1387.32ZM1375.08 90.32V86.32L1371.08 90.32H1375.08ZM1375.08 92.48H1371.08L1375.15 96.4794L1375.08 92.48ZM1388.68 92.08L1392.68 92.1871L1388.54 88.0825L1388.68 92.08ZM1388.44 101.04L1388.69 105.032L1392.44 101.147L1388.44 101.04ZM1384.6 101.28L1384.35 97.2878L1381.23 103.439L1384.6 101.28ZM1389.72 111.84L1385.93 113.105L1393.72 111.84H1389.72ZM1389.72 83.28V79.28L1385.72 83.28H1389.72ZM1399.8 83.28V87.28L1403.8 83.28H1399.8ZM1399.8 45.68V41.68L1395.8 45.68H1399.8ZM1411.08 45.68H1415.08L1411.08 41.68V45.68ZM1411.08 61.68H1407.08L1411.08 65.68V61.68ZM1425.72 61.68H1429.72L1425.72 57.68V61.68ZM1362.18 108.373L1369.06 107.573L1368.14 99.6268L1361.26 100.427L1362.18 108.373ZM1364.68 104.371C1365.51 108.616 1366.04 114.117 1366.04 117.68H1374.04C1374.04 113.563 1373.45 107.544 1372.53 102.829L1364.68 104.371ZM1369.56 113.709L1362.28 114.589L1363.24 122.531L1370.52 121.651L1369.56 113.709ZM1366.75 118.765C1366.93 115.299 1366.58 110.63 1366.09 106.634L1358.15 107.606C1358.62 111.451 1358.91 115.581 1358.77 118.355L1366.75 118.765ZM1358.19 106.358C1357.14 111.763 1355.76 116.335 1353.45 118.947L1359.43 124.253C1363.36 119.825 1365.02 113.197 1366.05 107.882L1358.19 106.358ZM1358.24 118.03L1350.8 114.27L1347.2 121.41L1354.64 125.17L1358.24 118.03ZM1352.07 120.408C1355.6 116.194 1357.69 109.953 1358.55 104.458L1350.65 103.222C1349.91 107.967 1348.16 112.606 1345.93 115.272L1352.07 120.408ZM1353.44 107.667L1360.8 109.907L1363.12 102.253L1355.76 100.013L1353.44 107.667ZM1365.92 105.514L1365.68 103.834L1357.76 104.966L1358 106.646L1365.92 105.514ZM1370.58 108.098L1377.3 106.898L1375.9 99.0223L1369.18 100.222L1370.58 108.098ZM1372.81 104.246C1374.19 108.309 1375.46 113.532 1375.82 116.832L1383.78 115.968C1383.34 111.908 1381.89 106.091 1380.39 101.674L1372.81 104.246ZM1379 112.481L1371.96 113.921L1373.56 121.759L1380.6 120.319L1379 112.481ZM1376.75 117.58C1376.48 113.453 1375.1 107.433 1373.7 102.959L1366.06 105.361C1367.38 109.527 1368.56 114.867 1368.77 118.1L1376.75 117.58ZM1416.12 108.32V93.76H1408.12V108.32H1416.12ZM1412.12 89.76H1400.2V97.76H1412.12V89.76ZM1396.2 93.76V108.32H1404.2V93.76H1396.2ZM1400.2 112.32H1412.12V104.32H1400.2V112.32ZM1357.08 61.68V71.76H1365.08V61.68H1357.08ZM1361.08 75.76H1366.6V67.76H1361.08V75.76ZM1370.6 71.76V68.4H1362.6V71.76H1370.6ZM1365.31 64.6125L1361.07 66.0525L1363.65 73.6275L1367.89 72.1875L1365.31 64.6125ZM1366.36 69.6972C1366.26 67.0596 1365.63 63.7081 1364.98 60.8123L1357.18 62.5477C1357.81 65.4119 1358.3 68.1404 1358.36 69.9828L1366.36 69.6972ZM1366.6 51.36H1361.08V59.36H1366.6V51.36ZM1357.08 55.36V58.24H1365.08V55.36H1357.08ZM1362.27 62.0594L1365.87 60.9394L1363.49 53.3006L1359.89 54.4206L1362.27 62.0594ZM1360.87 58.344C1361.56 60.4714 1362.23 62.9623 1362.68 65.1845L1370.52 63.6155C1370.01 61.0376 1369.24 58.2486 1368.49 55.896L1360.87 58.344ZM1370.6 64.4V55.36H1362.6V64.4H1370.6ZM1383.08 58.32V55.36H1375.08V58.32H1383.08ZM1379.08 51.36H1373.4V59.36H1379.08V51.36ZM1369.4 55.36V65.36H1377.4V55.36H1369.4ZM1377.22 66.5593C1378.13 63.6478 1378.98 60.3472 1379.42 57.7996L1371.54 56.4404C1371.18 58.5328 1370.43 61.4722 1369.58 64.1607L1377.22 66.5593ZM1374.22 60.9147L1377.82 62.1147L1380.34 54.5253L1376.74 53.3253L1374.22 60.9147ZM1373.4 75.76H1379.08V67.76H1373.4V75.76ZM1383.08 71.76V63.68H1375.08V71.76H1383.08ZM1375.4 62.1043C1374.28 64.732 1373.69 66.4752 1372.94 67.9711L1380.1 71.5489C1380.95 69.8448 1381.96 67.108 1382.76 65.2557L1375.4 62.1043ZM1377.96 66.0266L1374.84 64.8266L1371.96 72.2934L1375.08 73.4934L1377.96 66.0266ZM1369.4 68.56V71.76H1377.4V68.56H1369.4ZM1425.72 68.4H1411.08V76.4H1425.72V68.4ZM1407.08 72.4V83.28H1415.08V72.4H1407.08ZM1411.08 87.28H1423.16V79.28H1411.08V87.28ZM1419.16 83.28V121.2H1427.16V83.28H1419.16ZM1423.16 117.2H1412.12V125.2H1423.16V117.2ZM1416.12 121.2V118.8H1408.12V121.2H1416.12ZM1412.12 114.8H1400.2V122.8H1412.12V114.8ZM1396.2 118.8V121.52H1404.2V118.8H1396.2ZM1400.2 117.52H1389.72V125.52H1400.2V117.52ZM1393.72 121.52V114.24H1385.72V121.52H1393.72ZM1388.23 110.529L1381.67 113.169L1384.65 120.591L1391.21 117.951L1388.23 110.529ZM1387.06 116.012C1386.16 111.935 1383.74 106.041 1381.28 101.703L1374.32 105.657C1376.5 109.479 1378.56 114.625 1379.26 117.748L1387.06 116.012ZM1379.16 107.442L1385.8 105.042L1383.08 97.5182L1376.44 99.9182L1379.16 107.442ZM1384.25 97.2844C1372.33 97.8446 1360.11 98.4035 1351.1 98.7225L1351.38 106.717C1360.45 106.397 1372.71 105.835 1384.63 105.276L1384.25 97.2844ZM1355.24 102.588L1354.92 92.9078L1346.92 93.1722L1347.24 102.852L1355.24 102.588ZM1351 97.0392C1354.99 96.9594 1359.78 96.8795 1364.98 96.7995L1364.86 88.8005C1359.66 88.8805 1354.85 88.9606 1350.84 89.0408L1351 97.0392ZM1368.92 92.8V90.32H1360.92V92.8H1368.92ZM1364.92 86.32H1353.08V94.32H1364.92V86.32ZM1357.08 90.32V81.68H1349.08V90.32H1357.08ZM1353.08 85.68H1364.92V77.68H1353.08V85.68ZM1368.92 81.68V79.36H1360.92V81.68H1368.92ZM1364.92 75.36H1352.6V83.36H1364.92V75.36ZM1356.6 79.36V47.76H1348.6V79.36H1356.6ZM1352.6 51.76H1387.96V43.76H1352.6V51.76ZM1383.96 47.76V79.36H1391.96V47.76H1383.96ZM1387.96 75.36H1375.08V83.36H1387.96V75.36ZM1371.08 79.36V81.68H1379.08V79.36H1371.08ZM1375.08 85.68H1387.32V77.68H1375.08V85.68ZM1383.32 81.68V90.32H1391.32V81.68H1383.32ZM1387.32 86.32H1375.08V94.32H1387.32V86.32ZM1371.08 90.32V92.48H1379.08V90.32H1371.08ZM1375.15 96.4794C1379.67 96.3986 1384.34 96.2374 1388.82 96.0774L1388.54 88.0825C1384.06 88.2426 1379.45 88.4014 1375.01 88.4806L1375.15 96.4794ZM1384.68 91.9729L1384.44 100.933L1392.44 101.147L1392.68 92.1871L1384.68 91.9729ZM1388.19 97.0478L1384.35 97.2878L1384.85 105.272L1388.69 105.032L1388.19 97.0478ZM1381.23 103.439C1383.07 106.311 1384.92 110.093 1385.93 113.105L1393.51 110.575C1392.28 106.867 1390.13 102.489 1387.97 99.1213L1381.23 103.439ZM1393.72 111.84V83.28H1385.72V111.84H1393.72ZM1389.72 87.28H1399.8V79.28H1389.72V87.28ZM1403.8 83.28V45.68H1395.8V83.28H1403.8ZM1399.8 49.68H1411.08V41.68H1399.8V49.68ZM1407.08 45.68V61.68H1415.08V45.68H1407.08ZM1411.08 65.68H1425.72V57.68H1411.08V65.68ZM1421.72 61.68V72.4H1429.72V61.68H1421.72ZM1457.56 92.72L1453.58 93.1387L1457.56 96.72V92.72ZM1451.8 70.48L1449.09 73.4261L1454.82 73.1047L1451.8 70.48ZM1443.96 63.28L1440.86 60.7515L1441.25 66.2261L1443.96 63.28ZM1470.04 92.72V96.72L1474.03 92.4479L1470.04 92.72ZM1461.54 92.3013C1461.13 88.4691 1463.2 86.0444 1466.9 83.1521C1468.52 81.8898 1470.89 80.2327 1472.55 78.656C1474.3 77.0027 1476.28 74.5427 1476.28 71.12H1468.28C1468.28 71.2173 1468.26 71.6973 1467.05 72.854C1465.75 74.0873 1464.2 75.1102 1461.98 76.8479C1458 79.9556 1452.71 84.8109 1453.58 93.1387L1461.54 92.3013ZM1476.28 71.12C1476.28 67.5738 1474.66 64.716 1471.93 62.9258C1469.43 61.282 1466.29 60.72 1463.24 60.72V68.72C1465.47 68.72 1466.85 69.158 1467.55 69.6142C1467.86 69.8175 1468 70.0055 1468.09 70.1631C1468.17 70.3201 1468.28 70.6042 1468.28 71.12H1476.28ZM1463.24 60.72C1457.24 60.72 1452.54 63.5389 1448.78 67.8553L1454.82 73.1047C1457.47 70.0611 1460.12 68.72 1463.24 68.72V60.72ZM1454.51 67.5339L1446.67 60.3339L1441.25 66.2261L1449.09 73.4261L1454.51 67.5339ZM1447.06 65.8085C1451.32 60.5858 1457.73 57.2 1464.92 57.2V49.2C1455.15 49.2 1446.52 53.8142 1440.86 60.7515L1447.06 65.8085ZM1464.92 57.2C1470.29 57.2 1474.6 58.3981 1477.46 60.4698C1480.15 62.4158 1481.88 65.3477 1481.88 69.84H1489.88C1489.88 62.8923 1487.01 57.5042 1482.16 53.9902C1477.48 50.6019 1471.31 49.2 1464.92 49.2V57.2ZM1481.88 69.84C1481.88 73.2952 1479.65 75.2554 1475.33 78.4106C1471.73 81.0409 1465.51 85.1527 1466.05 92.9921L1474.03 92.4479C1473.85 89.7273 1475.55 88.1591 1480.05 84.8694C1483.83 82.1046 1489.88 77.9048 1489.88 69.84H1481.88ZM1470.04 88.72H1457.56V96.72H1470.04V88.72ZM1458.36 106.08C1458.36 104.592 1458.91 103.493 1459.72 102.741C1460.56 101.966 1461.91 101.36 1463.8 101.36V93.36C1460.17 93.36 1456.8 94.5535 1454.3 96.8594C1451.77 99.1865 1450.36 102.448 1450.36 106.08H1458.36ZM1463.8 101.36C1465.69 101.36 1467.04 101.966 1467.88 102.741C1468.69 103.493 1469.24 104.592 1469.24 106.08H1477.24C1477.24 102.448 1475.83 99.1865 1473.3 96.8594C1470.8 94.5535 1467.43 93.36 1463.8 93.36V101.36ZM1469.24 106.08C1469.24 108.785 1467.32 110.96 1463.8 110.96V118.96C1471.32 118.96 1477.24 113.615 1477.24 106.08H1469.24ZM1463.8 110.96C1460.28 110.96 1458.36 108.785 1458.36 106.08H1450.36C1450.36 113.615 1456.28 118.96 1463.8 118.96V110.96Z" fill="#00503F" mask="url(#path-6-outside-2_253_3863)"/>
<path d="M1541 114L1530.12 54.48H1544.76L1548.52 81.6L1550.92 100.48H1551.24C1552.36 94.16 1553.56 87.76 1554.76 81.6L1560.84 54.48H1572.84L1579.08 81.6C1580.28 87.68 1581.32 94.08 1582.52 100.48H1582.92C1583.64 94.08 1584.44 87.76 1585.16 81.6L1589 54.48H1602.6L1592.28 114H1574.28L1568.92 88.08C1567.96 83.52 1567.16 78.72 1566.6 74.24H1566.2C1565.48 78.72 1564.76 83.52 1563.88 88.08L1558.68 114H1541ZM1607.45 114V54.48H1621.77V77.12H1641.37V54.48H1655.53V114H1641.37V89.52H1621.77V114H1607.45ZM1679.4 89.28H1691.56L1690.28 84.24C1688.68 78.32 1687.16 71.2 1685.56 65.12H1685.24C1683.8 71.36 1682.2 78.32 1680.68 84.24L1679.4 89.28ZM1697.72 114L1694.28 100.32H1676.68L1673.24 114H1658.68L1677.16 54.48H1694.28L1712.76 114H1697.72ZM1720.46 114V66.32H1704.38V54.48H1750.94V66.32H1734.78V114H1720.46ZM1756.91 114V54.48H1794.67V66.32H1771.23V77.36H1791.15V89.36H1771.23V102H1795.55V114H1756.91ZM1830.7 114V66.32H1814.62V54.48H1861.18V66.32H1845.02V114H1830.7ZM1867.15 114V54.48H1881.47V114H1867.15ZM1891.92 114V54.48H1907.36L1916.8 80.16C1918 83.6 1918.96 87.36 1920.08 91.04H1920.48C1921.68 87.36 1922.64 83.6 1923.76 80.16L1932.88 54.48H1948.4V114H1935.36V93.6C1935.36 87.68 1936.48 78.8 1937.2 72.96H1936.88L1931.92 87.2L1923.92 108.96H1916.08L1908 87.2L1903.2 72.96H1902.88C1903.6 78.8 1904.72 87.68 1904.72 93.6V114H1891.92ZM1958.88 114V54.48H1996.64V66.32H1973.2V77.36H1993.12V89.36H1973.2V102H1997.52V114H1958.88ZM2013.27 92.4C2011.35 80.08 2024.63 74.96 2024.63 68.4C2024.63 64.88 2022.15 63.04 2018.87 63.04C2015.59 63.04 2013.27 64.72 2010.79 67.2L2002.95 60C2007.35 54.96 2013.43 51.6 2020.63 51.6C2030.55 51.6 2038.31 56.32 2038.31 67.44C2038.31 78.56 2024.63 81.84 2025.67 92.4H2013.27ZM2019.43 115.12C2014.47 115.12 2010.95 111.2 2010.95 106.24C2010.95 101.36 2014.47 97.44 2019.43 97.44C2024.31 97.44 2027.91 101.36 2027.91 106.24C2027.91 111.2 2024.31 115.12 2019.43 115.12Z" fill="#00503F"/>
<mask id="path-9-outside-3_253_3863" maskUnits="userSpaceOnUse" x="2069" y="49" width="474" height="71" fill="black">
<rect fill="white" x="2069" y="49" width="474" height="71"/>
<path d="M2073.24 114V102.48H2085.88V68.64H2074.92V59.84C2081.32 58.64 2085.48 57.04 2089.64 54.48H2100.12V102.48H2110.84V114H2073.24ZM2136.87 115.12C2124.31 115.12 2115.83 104.4 2115.83 83.92C2115.83 63.44 2124.31 53.36 2136.87 53.36C2149.43 53.36 2157.99 63.6 2157.99 83.92C2157.99 104.4 2149.43 115.12 2136.87 115.12ZM2136.87 104.08C2141.11 104.08 2144.55 100.24 2144.55 83.92C2144.55 67.68 2141.11 64.32 2136.87 64.32C2132.63 64.32 2129.27 67.68 2129.27 83.92C2129.27 100.24 2132.63 104.08 2136.87 104.08ZM2172.18 85.84C2167.22 85.84 2163.7 82 2163.7 77.04C2163.7 72.08 2167.22 68.24 2172.18 68.24C2177.06 68.24 2180.66 72.08 2180.66 77.04C2180.66 82 2177.06 85.84 2172.18 85.84ZM2172.18 115.12C2167.22 115.12 2163.7 111.2 2163.7 106.24C2163.7 101.36 2167.22 97.44 2172.18 97.44C2177.06 97.44 2180.66 101.36 2180.66 106.24C2180.66 111.2 2177.06 115.12 2172.18 115.12ZM2207.27 115.12C2194.71 115.12 2186.23 104.4 2186.23 83.92C2186.23 63.44 2194.71 53.36 2207.27 53.36C2219.83 53.36 2228.39 63.6 2228.39 83.92C2228.39 104.4 2219.83 115.12 2207.27 115.12ZM2207.27 104.08C2211.51 104.08 2214.95 100.24 2214.95 83.92C2214.95 67.68 2211.51 64.32 2207.27 64.32C2203.03 64.32 2199.67 67.68 2199.67 83.92C2199.67 100.24 2203.03 104.08 2207.27 104.08ZM2252.82 115.12C2240.26 115.12 2231.78 104.4 2231.78 83.92C2231.78 63.44 2240.26 53.36 2252.82 53.36C2265.38 53.36 2273.94 63.6 2273.94 83.92C2273.94 104.4 2265.38 115.12 2252.82 115.12ZM2252.82 104.08C2257.06 104.08 2260.5 100.24 2260.5 83.92C2260.5 67.68 2257.06 64.32 2252.82 64.32C2248.58 64.32 2245.22 67.68 2245.22 83.92C2245.22 100.24 2248.58 104.08 2252.82 104.08ZM2293.13 95.84V85.84H2315.77V95.84H2293.13ZM2337.87 114V102.48H2350.51V68.64H2339.55V59.84C2345.95 58.64 2350.11 57.04 2354.27 54.48H2364.75V102.48H2375.47V114H2337.87ZM2392.54 88.32H2403.9V79.6C2403.9 75.84 2404.3 70.16 2404.46 66.4H2404.14C2402.62 69.76 2401.02 73.2 2399.34 76.56L2392.54 88.32ZM2423.82 88.32V99.12H2417.18V114H2403.9V99.12H2378.94V89.28L2399.66 54.48H2417.18V88.32H2423.82ZM2436.81 85.84C2431.85 85.84 2428.33 82 2428.33 77.04C2428.33 72.08 2431.85 68.24 2436.81 68.24C2441.69 68.24 2445.29 72.08 2445.29 77.04C2445.29 82 2441.69 85.84 2436.81 85.84ZM2436.81 115.12C2431.85 115.12 2428.33 111.2 2428.33 106.24C2428.33 101.36 2431.85 97.44 2436.81 97.44C2441.69 97.44 2445.29 101.36 2445.29 106.24C2445.29 111.2 2441.69 115.12 2436.81 115.12ZM2471.9 115.12C2459.34 115.12 2450.86 104.4 2450.86 83.92C2450.86 63.44 2459.34 53.36 2471.9 53.36C2484.46 53.36 2493.02 63.6 2493.02 83.92C2493.02 104.4 2484.46 115.12 2471.9 115.12ZM2471.9 104.08C2476.14 104.08 2479.58 100.24 2479.58 83.92C2479.58 67.68 2476.14 64.32 2471.9 64.32C2467.66 64.32 2464.3 67.68 2464.3 83.92C2464.3 100.24 2467.66 104.08 2471.9 104.08ZM2517.45 115.12C2504.89 115.12 2496.41 104.4 2496.41 83.92C2496.41 63.44 2504.89 53.36 2517.45 53.36C2530.01 53.36 2538.57 63.6 2538.57 83.92C2538.57 104.4 2530.01 115.12 2517.45 115.12ZM2517.45 104.08C2521.69 104.08 2525.13 100.24 2525.13 83.92C2525.13 67.68 2521.69 64.32 2517.45 64.32C2513.21 64.32 2509.85 67.68 2509.85 83.92C2509.85 100.24 2513.21 104.08 2517.45 104.08Z"/>
</mask>
<path d="M2073.24 114H2069.24L2073.24 118V114ZM2073.24 102.48V98.48L2069.24 102.48H2073.24ZM2085.88 102.48V106.48L2089.88 102.48H2085.88ZM2085.88 68.64H2089.88L2085.88 64.64V68.64ZM2074.92 68.64H2070.92L2074.92 72.64V68.64ZM2074.92 59.84L2074.18 55.9085L2070.92 59.84H2074.92ZM2089.64 54.48V50.48L2087.54 51.0734L2089.64 54.48ZM2100.12 54.48H2104.12L2100.12 50.48V54.48ZM2100.12 102.48H2096.12L2100.12 106.48V102.48ZM2110.84 102.48H2114.84L2110.84 98.48V102.48ZM2110.84 114V118L2114.84 114H2110.84ZM2077.24 114V102.48H2069.24V114H2077.24ZM2073.24 106.48H2085.88V98.48H2073.24V106.48ZM2089.88 102.48V68.64H2081.88V102.48H2089.88ZM2085.88 64.64H2074.92V72.64H2085.88V64.64ZM2078.92 68.64V59.84H2070.92V68.64H2078.92ZM2075.66 63.7715C2082.45 62.4972 2087.09 60.7451 2091.74 57.8866L2087.54 51.0734C2083.87 53.3349 2080.19 54.7828 2074.18 55.9085L2075.66 63.7715ZM2089.64 58.48H2100.12V50.48H2089.64V58.48ZM2096.12 54.48V102.48H2104.12V54.48H2096.12ZM2100.12 106.48H2110.84V98.48H2100.12V106.48ZM2106.84 102.48V114H2114.84V102.48H2106.84ZM2110.84 110H2073.24V118H2110.84V110ZM2136.87 111.12C2131.88 111.12 2127.85 109.067 2124.91 104.897C2121.86 100.568 2119.83 93.6825 2119.83 83.92H2111.83C2111.83 94.6375 2114.04 103.352 2118.37 109.503C2122.81 115.813 2129.3 119.12 2136.87 119.12V111.12ZM2119.83 83.92C2119.83 74.1537 2121.86 67.4586 2124.88 63.3108C2127.77 59.3268 2131.79 57.36 2136.87 57.36V49.36C2129.39 49.36 2122.89 52.4331 2118.4 58.6092C2114.04 64.6214 2111.83 73.2063 2111.83 83.92H2119.83ZM2136.87 57.36C2141.93 57.36 2145.98 59.3531 2148.91 63.3731C2151.94 67.5477 2153.99 74.2477 2153.99 83.92H2161.99C2161.99 73.2723 2159.76 64.6922 2155.37 58.6669C2150.88 52.4869 2144.37 49.36 2136.87 49.36V57.36ZM2153.99 83.92C2153.99 93.6755 2151.94 100.559 2148.88 104.889C2145.92 109.064 2141.86 111.12 2136.87 111.12V119.12C2144.44 119.12 2150.94 115.816 2155.4 109.511C2159.76 103.361 2161.99 94.6445 2161.99 83.92H2153.99ZM2136.87 108.08C2138.56 108.08 2140.38 107.687 2142.08 106.549C2143.76 105.428 2145.01 103.788 2145.93 101.802C2147.7 97.9779 2148.55 92.2069 2148.55 83.92H2140.55C2140.55 91.9531 2139.68 96.2621 2138.67 98.4384C2138.2 99.4522 2137.8 99.7919 2137.63 99.901C2137.5 99.9934 2137.3 100.08 2136.87 100.08V108.08ZM2148.55 83.92C2148.55 75.6878 2147.71 70.0153 2145.9 66.2864C2144.95 64.3312 2143.67 62.7516 2141.96 61.6977C2140.26 60.6422 2138.47 60.32 2136.87 60.32V68.32C2137.39 68.32 2137.62 68.4178 2137.75 68.4998C2137.89 68.5834 2138.26 68.8588 2138.7 69.7736C2139.67 71.7847 2140.55 75.9122 2140.55 83.92H2148.55ZM2136.87 60.32C2135.27 60.32 2133.48 60.6422 2131.78 61.7054C2130.08 62.7664 2128.8 64.3535 2127.87 66.3068C2126.09 70.0301 2125.27 75.696 2125.27 83.92H2133.27C2133.27 75.904 2134.13 71.7699 2135.09 69.7531C2135.53 68.8365 2135.89 68.5686 2136.01 68.492C2136.13 68.4178 2136.35 68.32 2136.87 68.32V60.32ZM2125.27 83.92C2125.27 92.1988 2126.1 97.9634 2127.84 101.782C2128.75 103.766 2129.99 105.413 2131.66 106.541C2133.35 107.686 2135.18 108.08 2136.87 108.08V100.08C2136.44 100.08 2136.26 99.9938 2136.13 99.9094C2135.98 99.8073 2135.58 99.4743 2135.12 98.4584C2134.12 96.2766 2133.27 91.9612 2133.27 83.92H2125.27ZM2172.18 81.84C2169.62 81.84 2167.7 79.9892 2167.7 77.04H2159.7C2159.7 84.0108 2164.82 89.84 2172.18 89.84V81.84ZM2167.7 77.04C2167.7 74.0908 2169.62 72.24 2172.18 72.24V64.24C2164.82 64.24 2159.7 70.0692 2159.7 77.04H2167.7ZM2172.18 72.24C2174.68 72.24 2176.66 74.1164 2176.66 77.04H2184.66C2184.66 70.0436 2179.44 64.24 2172.18 64.24V72.24ZM2176.66 77.04C2176.66 79.9636 2174.68 81.84 2172.18 81.84V89.84C2179.44 89.84 2184.66 84.0364 2184.66 77.04H2176.66ZM2172.18 111.12C2169.67 111.12 2167.7 109.238 2167.7 106.24H2159.7C2159.7 113.162 2164.77 119.12 2172.18 119.12V111.12ZM2167.7 106.24C2167.7 103.346 2169.65 101.44 2172.18 101.44V93.44C2164.79 93.44 2159.7 99.3736 2159.7 106.24H2167.7ZM2172.18 101.44C2174.66 101.44 2176.66 103.372 2176.66 106.24H2184.66C2184.66 99.3479 2179.46 93.44 2172.18 93.44V101.44ZM2176.66 106.24C2176.66 109.212 2174.64 111.12 2172.18 111.12V119.12C2179.48 119.12 2184.66 113.188 2184.66 106.24H2176.66ZM2207.27 111.12C2202.28 111.12 2198.24 109.067 2195.31 104.897C2192.26 100.568 2190.23 93.6825 2190.23 83.92H2182.23C2182.23 94.6375 2184.43 103.352 2188.77 109.503C2193.21 115.813 2199.69 119.12 2207.27 119.12V111.12ZM2190.23 83.92C2190.23 74.1537 2192.26 67.4586 2195.27 63.3108C2198.17 59.3268 2202.19 57.36 2207.27 57.36V49.36C2199.78 49.36 2193.29 52.4331 2188.8 58.6092C2184.43 64.6214 2182.23 73.2063 2182.23 83.92H2190.23ZM2207.27 57.36C2212.32 57.36 2216.38 59.3531 2219.3 63.3731C2222.34 67.5477 2224.39 74.2477 2224.39 83.92H2232.39C2232.39 73.2723 2230.15 64.6922 2225.77 58.6669C2221.28 52.4869 2214.77 49.36 2207.27 49.36V57.36ZM2224.39 83.92C2224.39 93.6755 2222.34 100.559 2219.27 104.889C2216.32 109.064 2212.26 111.12 2207.27 111.12V119.12C2214.84 119.12 2221.34 115.816 2225.8 109.511C2230.16 103.361 2232.39 94.6445 2232.39 83.92H2224.39ZM2207.27 108.08C2208.96 108.08 2210.78 107.687 2212.48 106.549C2214.16 105.428 2215.41 103.788 2216.33 101.802C2218.1 97.9779 2218.95 92.2069 2218.95 83.92H2210.95C2210.95 91.9531 2210.08 96.2621 2209.07 98.4384C2208.6 99.4522 2208.19 99.7919 2208.03 99.901C2207.89 99.9934 2207.7 100.08 2207.27 100.08V108.08ZM2218.95 83.92C2218.95 75.6878 2218.1 70.0153 2216.3 66.2864C2215.35 64.3312 2214.06 62.7516 2212.36 61.6977C2210.66 60.6422 2208.87 60.32 2207.27 60.32V68.32C2207.79 68.32 2208.02 68.4178 2208.15 68.4998C2208.29 68.5834 2208.65 68.8588 2209.1 69.7736C2210.07 71.7847 2210.95 75.9122 2210.95 83.92H2218.95ZM2207.27 60.32C2205.67 60.32 2203.88 60.6422 2202.17 61.7054C2200.47 62.7664 2199.2 64.3535 2198.27 66.3068C2196.49 70.0301 2195.67 75.696 2195.67 83.92H2203.67C2203.67 75.904 2204.52 71.7699 2205.49 69.7531C2205.92 68.8365 2206.29 68.5686 2206.41 68.492C2206.53 68.4178 2206.75 68.32 2207.27 68.32V60.32ZM2195.67 83.92C2195.67 92.1988 2196.49 97.9634 2198.24 101.782C2199.14 103.766 2200.38 105.413 2202.05 106.541C2203.75 107.686 2205.58 108.08 2207.27 108.08V100.08C2206.84 100.08 2206.65 99.9938 2206.53 99.9094C2206.38 99.8073 2205.98 99.4743 2205.52 98.4584C2204.52 96.2766 2203.67 91.9612 2203.67 83.92H2195.67ZM2252.82 111.12C2247.83 111.12 2243.79 109.067 2240.86 104.897C2237.81 100.568 2235.78 93.6825 2235.78 83.92H2227.78C2227.78 94.6375 2229.98 103.352 2234.32 109.503C2238.76 115.813 2245.24 119.12 2252.82 119.12V111.12ZM2235.78 83.92C2235.78 74.1537 2237.81 67.4586 2240.82 63.3108C2243.72 59.3268 2247.74 57.36 2252.82 57.36V49.36C2245.33 49.36 2238.84 52.4331 2234.35 58.6092C2229.98 64.6214 2227.78 73.2063 2227.78 83.92H2235.78ZM2252.82 57.36C2257.87 57.36 2261.93 59.3531 2264.85 63.3731C2267.89 67.5477 2269.94 74.2477 2269.94 83.92H2277.94C2277.94 73.2723 2275.7 64.6922 2271.32 58.6669C2266.83 52.4869 2260.32 49.36 2252.82 49.36V57.36ZM2269.94 83.92C2269.94 93.6755 2267.89 100.559 2264.82 104.889C2261.87 109.064 2257.81 111.12 2252.82 111.12V119.12C2260.39 119.12 2266.89 115.816 2271.35 109.511C2275.71 103.361 2277.94 94.6445 2277.94 83.92H2269.94ZM2252.82 108.08C2254.51 108.08 2256.33 107.687 2258.03 106.549C2259.71 105.428 2260.96 103.788 2261.88 101.802C2263.65 97.9779 2264.5 92.2069 2264.5 83.92H2256.5C2256.5 91.9531 2255.63 96.2621 2254.62 98.4384C2254.15 99.4522 2253.74 99.7919 2253.58 99.901C2253.44 99.9934 2253.25 100.08 2252.82 100.08V108.08ZM2264.5 83.92C2264.5 75.6878 2263.65 70.0153 2261.85 66.2864C2260.9 64.3312 2259.61 62.7516 2257.91 61.6977C2256.21 60.6422 2254.42 60.32 2252.82 60.32V68.32C2253.34 68.32 2253.57 68.4178 2253.7 68.4998C2253.84 68.5834 2254.2 68.8588 2254.65 69.7736C2255.62 71.7847 2256.5 75.9122 2256.5 83.92H2264.5ZM2252.82 60.32C2251.22 60.32 2249.43 60.6422 2247.72 61.7054C2246.02 62.7664 2244.75 64.3535 2243.82 66.3068C2242.04 70.0301 2241.22 75.696 2241.22 83.92H2249.22C2249.22 75.904 2250.07 71.7699 2251.04 69.7531C2251.47 68.8365 2251.84 68.5686 2251.96 68.492C2252.08 68.4178 2252.3 68.32 2252.82 68.32V60.32ZM2241.22 83.92C2241.22 92.1988 2242.04 97.9634 2243.79 101.782C2244.69 103.766 2245.93 105.413 2247.6 106.541C2249.3 107.686 2251.13 108.08 2252.82 108.08V100.08C2252.39 100.08 2252.2 99.9938 2252.08 99.9094C2251.93 99.8073 2251.53 99.4743 2251.07 98.4584C2250.07 96.2766 2249.22 91.9612 2249.22 83.92H2241.22ZM2293.13 95.84H2289.13L2293.13 99.84V95.84ZM2293.13 85.84V81.84L2289.13 85.84H2293.13ZM2315.77 85.84H2319.77L2315.77 81.84V85.84ZM2315.77 95.84V99.84L2319.77 95.84H2315.77ZM2297.13 95.84V85.84H2289.13V95.84H2297.13ZM2293.13 89.84H2315.77V81.84H2293.13V89.84ZM2311.77 85.84V95.84H2319.77V85.84H2311.77ZM2315.77 91.84H2293.13V99.84H2315.77V91.84ZM2337.87 114H2333.87L2337.87 118V114ZM2337.87 102.48V98.48L2333.87 102.48H2337.87ZM2350.51 102.48V106.48L2354.51 102.48H2350.51ZM2350.51 68.64H2354.51L2350.51 64.64V68.64ZM2339.55 68.64H2335.55L2339.55 72.64V68.64ZM2339.55 59.84L2338.82 55.9085L2335.55 59.84H2339.55ZM2354.27 54.48V50.48L2352.18 51.0734L2354.27 54.48ZM2364.75 54.48H2368.75L2364.75 50.48V54.48ZM2364.75 102.48H2360.75L2364.75 106.48V102.48ZM2375.47 102.48H2379.47L2375.47 98.48V102.48ZM2375.47 114V118L2379.47 114H2375.47ZM2341.87 114V102.48H2333.87V114H2341.87ZM2337.87 106.48H2350.51V98.48H2337.87V106.48ZM2354.51 102.48V68.64H2346.51V102.48H2354.51ZM2350.51 64.64H2339.55V72.64H2350.51V64.64ZM2343.55 68.64V59.84H2335.55V68.64H2343.55ZM2340.29 63.7715C2347.09 62.4972 2351.73 60.7451 2356.37 57.8866L2352.18 51.0734C2348.5 53.3349 2344.82 54.7828 2338.82 55.9085L2340.29 63.7715ZM2354.27 58.48H2364.75V50.48H2354.27V58.48ZM2360.75 54.48V102.48H2368.75V54.48H2360.75ZM2364.75 106.48H2375.47V98.48H2364.75V106.48ZM2371.47 102.48V114H2379.47V102.48H2371.47ZM2375.47 110H2337.87V118H2375.47V110ZM2392.54 88.32L2389.08 86.3177L2392.54 92.32V88.32ZM2403.9 88.32V92.32L2407.9 88.32H2403.9ZM2404.46 66.4L2408.46 66.5701L2404.46 62.4V66.4ZM2404.14 66.4V62.4L2400.5 64.7513L2404.14 66.4ZM2399.34 76.56L2402.81 78.5623L2402.92 78.3489L2399.34 76.56ZM2423.82 88.32H2427.82L2423.82 84.32V88.32ZM2423.82 99.12V103.12L2427.82 99.12H2423.82ZM2417.18 99.12V95.12L2413.18 99.12H2417.18ZM2417.18 114V118L2421.18 114H2417.18ZM2403.9 114H2399.9L2403.9 118V114ZM2403.9 99.12H2407.9L2403.9 95.12V99.12ZM2378.94 99.12H2374.94L2378.94 103.12V99.12ZM2378.94 89.28L2375.51 87.2336L2374.94 89.28H2378.94ZM2399.66 54.48V50.48L2396.23 52.4336L2399.66 54.48ZM2417.18 54.48H2421.18L2417.18 50.48V54.48ZM2417.18 88.32H2413.18L2417.18 92.32V88.32ZM2392.54 92.32H2403.9V84.32H2392.54V92.32ZM2407.9 88.32V79.6H2399.9V88.32H2407.9ZM2407.9 79.6C2407.9 75.9448 2408.29 70.5402 2408.46 66.5701L2400.47 66.2299C2400.32 69.7798 2399.9 75.7352 2399.9 79.6H2407.9ZM2404.46 62.4H2404.14V70.4H2404.46V62.4ZM2400.5 64.7513C2398.99 68.088 2397.41 71.476 2395.77 74.7711L2402.92 78.3489C2404.63 74.924 2406.26 71.432 2407.79 68.0487L2400.5 64.7513ZM2395.88 74.5577L2389.08 86.3177L2396.01 90.3223L2402.81 78.5623L2395.88 74.5577ZM2419.82 88.32V99.12H2427.82V88.32H2419.82ZM2423.82 95.12H2417.18V103.12H2423.82V95.12ZM2413.18 99.12V114H2421.18V99.12H2413.18ZM2417.18 110H2403.9V118H2417.18V110ZM2407.9 114V99.12H2399.9V114H2407.9ZM2403.9 95.12H2378.94V103.12H2403.9V95.12ZM2382.94 99.12V89.28H2374.94V99.12H2382.94ZM2382.38 91.3264L2403.1 56.5264L2396.23 52.4336L2375.51 87.2336L2382.38 91.3264ZM2399.66 58.48H2417.18V50.48H2399.66V58.48ZM2413.18 54.48V88.32H2421.18V54.48H2413.18ZM2417.18 92.32H2423.82V84.32H2417.18V92.32ZM2436.81 81.84C2434.26 81.84 2432.33 79.9892 2432.33 77.04H2424.33C2424.33 84.0108 2429.45 89.84 2436.81 89.84V81.84ZM2432.33 77.04C2432.33 74.0908 2434.26 72.24 2436.81 72.24V64.24C2429.45 64.24 2424.33 70.0692 2424.33 77.04H2432.33ZM2436.81 72.24C2439.32 72.24 2441.29 74.1164 2441.29 77.04H2449.29C2449.29 70.0436 2444.07 64.24 2436.81 64.24V72.24ZM2441.29 77.04C2441.29 79.9636 2439.32 81.84 2436.81 81.84V89.84C2444.07 89.84 2449.29 84.0364 2449.29 77.04H2441.29ZM2436.81 111.12C2434.3 111.12 2432.33 109.238 2432.33 106.24H2424.33C2424.33 113.162 2429.41 119.12 2436.81 119.12V111.12ZM2432.33 106.24C2432.33 103.346 2434.28 101.44 2436.81 101.44V93.44C2429.43 93.44 2424.33 99.3736 2424.33 106.24H2432.33ZM2436.81 101.44C2439.29 101.44 2441.29 103.372 2441.29 106.24H2449.29C2449.29 99.3479 2444.1 93.44 2436.81 93.44V101.44ZM2441.29 106.24C2441.29 109.212 2439.27 111.12 2436.81 111.12V119.12C2444.12 119.12 2449.29 113.188 2449.29 106.24H2441.29ZM2471.9 111.12C2466.92 111.12 2462.88 109.067 2459.94 104.897C2456.89 100.568 2454.86 93.6825 2454.86 83.92H2446.86C2446.86 94.6375 2449.07 103.352 2453.4 109.503C2457.84 115.813 2464.33 119.12 2471.9 119.12V111.12ZM2454.86 83.92C2454.86 74.1537 2456.89 67.4586 2459.91 63.3108C2462.8 59.3268 2466.83 57.36 2471.9 57.36V49.36C2464.42 49.36 2457.92 52.4331 2453.43 58.6092C2449.07 64.6214 2446.86 73.2063 2446.86 83.92H2454.86ZM2471.9 57.36C2476.96 57.36 2481.01 59.3531 2483.94 63.3731C2486.97 67.5477 2489.02 74.2477 2489.02 83.92H2497.02C2497.02 73.2723 2494.79 64.6922 2490.41 58.6669C2485.91 52.4869 2479.4 49.36 2471.9 49.36V57.36ZM2489.02 83.92C2489.02 93.6755 2486.97 100.559 2483.91 104.889C2480.95 109.064 2476.89 111.12 2471.9 111.12V119.12C2479.47 119.12 2485.97 115.816 2490.44 109.511C2494.79 103.361 2497.02 94.6445 2497.02 83.92H2489.02ZM2471.9 108.08C2473.59 108.08 2475.42 107.687 2477.12 106.549C2478.79 105.428 2480.04 103.788 2480.96 101.802C2482.73 97.9779 2483.58 92.2069 2483.58 83.92H2475.58C2475.58 91.9531 2474.71 96.2621 2473.7 98.4384C2473.23 99.4522 2472.83 99.7919 2472.66 99.901C2472.53 99.9934 2472.33 100.08 2471.9 100.08V108.08ZM2483.58 83.92C2483.58 75.6878 2482.74 70.0153 2480.93 66.2864C2479.98 64.3312 2478.7 62.7516 2477 61.6977C2475.29 60.6422 2473.5 60.32 2471.9 60.32V68.32C2472.42 68.32 2472.65 68.4178 2472.78 68.4998C2472.92 68.5834 2473.29 68.8588 2473.73 69.7736C2474.71 71.7847 2475.58 75.9122 2475.58 83.92H2483.58ZM2471.9 60.32C2470.3 60.32 2468.51 60.6422 2466.81 61.7054C2465.11 62.7664 2463.83 64.3535 2462.9 66.3068C2461.12 70.0301 2460.3 75.696 2460.3 83.92H2468.3C2468.3 75.904 2469.16 71.7699 2470.12 69.7531C2470.56 68.8365 2470.92 68.5686 2471.04 68.492C2471.16 68.4178 2471.38 68.32 2471.9 68.32V60.32ZM2460.3 83.92C2460.3 92.1988 2461.13 97.9634 2462.87 101.782C2463.78 103.766 2465.02 105.413 2466.69 106.541C2468.38 107.686 2470.21 108.08 2471.9 108.08V100.08C2471.47 100.08 2471.29 99.9938 2471.16 99.9094C2471.01 99.8073 2470.61 99.4743 2470.15 98.4584C2469.15 96.2766 2468.3 91.9612 2468.3 83.92H2460.3ZM2517.45 111.12C2512.47 111.12 2508.43 109.067 2505.49 104.897C2502.44 100.568 2500.41 93.6825 2500.41 83.92H2492.41C2492.41 94.6375 2494.62 103.352 2498.95 109.503C2503.39 115.813 2509.88 119.12 2517.45 119.12V111.12ZM2500.41 83.92C2500.41 74.1537 2502.44 67.4586 2505.46 63.3108C2508.35 59.3268 2512.38 57.36 2517.45 57.36V49.36C2509.97 49.36 2503.47 52.4331 2498.98 58.6092C2494.62 64.6214 2492.41 73.2063 2492.41 83.92H2500.41ZM2517.45 57.36C2522.51 57.36 2526.56 59.3531 2529.49 63.3731C2532.52 67.5477 2534.57 74.2477 2534.57 83.92H2542.57C2542.57 73.2723 2540.34 64.6922 2535.96 58.6669C2531.46 52.4869 2524.95 49.36 2517.45 49.36V57.36ZM2534.57 83.92C2534.57 93.6755 2532.52 100.559 2529.46 104.889C2526.5 109.064 2522.44 111.12 2517.45 111.12V119.12C2525.02 119.12 2531.52 115.816 2535.99 109.511C2540.34 103.361 2542.57 94.6445 2542.57 83.92H2534.57ZM2517.45 108.08C2519.14 108.08 2520.97 107.687 2522.67 106.549C2524.34 105.428 2525.59 103.788 2526.51 101.802C2528.28 97.9779 2529.13 92.2069 2529.13 83.92H2521.13C2521.13 91.9531 2520.26 96.2621 2519.25 98.4384C2518.78 99.4522 2518.38 99.7919 2518.21 99.901C2518.08 99.9934 2517.88 100.08 2517.45 100.08V108.08ZM2529.13 83.92C2529.13 75.6878 2528.29 70.0153 2526.48 66.2864C2525.53 64.3312 2524.25 62.7516 2522.55 61.6977C2520.84 60.6422 2519.05 60.32 2517.45 60.32V68.32C2517.97 68.32 2518.2 68.4178 2518.33 68.4998C2518.47 68.5834 2518.84 68.8588 2519.28 69.7736C2520.26 71.7847 2521.13 75.9122 2521.13 83.92H2529.13ZM2517.45 60.32C2515.85 60.32 2514.06 60.6422 2512.36 61.7054C2510.66 62.7664 2509.38 64.3535 2508.45 66.3068C2506.67 70.0301 2505.85 75.696 2505.85 83.92H2513.85C2513.85 75.904 2514.71 71.7699 2515.67 69.7531C2516.11 68.8365 2516.47 68.5686 2516.59 68.492C2516.71 68.4178 2516.93 68.32 2517.45 68.32V60.32ZM2505.85 83.92C2505.85 92.1988 2506.68 97.9634 2508.42 101.782C2509.33 103.766 2510.57 105.413 2512.24 106.541C2513.93 107.686 2515.76 108.08 2517.45 108.08V100.08C2517.02 100.08 2516.84 99.9938 2516.71 99.9094C2516.56 99.8073 2516.16 99.4743 2515.7 98.4584C2514.7 96.2766 2513.85 91.9612 2513.85 83.92H2505.85Z" fill="#00503F" mask="url(#path-9-outside-3_253_3863)"/>
</svg>
