<svg width="2288" height="160" viewBox="0 0 2288 160" fill="none" xmlns="http://www.w3.org/2000/svg">
<mask id="path-1-inside-1_188_9809" fill="white">
<path d="M0 0H2288V160H0V0Z"/>
</mask>
<path d="M0 0H2288V160H0V0Z" fill="white"/>
<path d="M0 4H2288V-4H0V4ZM2288 156H0V164H2288V156Z" fill="#00503F" mask="url(#path-1-inside-1_188_9809)"/>
<path d="M82 92.96V108.8H99.76V119.52H51.84V108.8H70.24V92.96H54.88V82.24H70.24V70.16H82V82.24H96.72V92.96H82ZM62.32 56H100.16V67.12H57.6C55.04 72.56 52 77.84 48.4 82.72V121.52H36.64V95.44C34.8 97.04 32.8 98.56 30.72 99.92C29.52 96.64 26.96 91.44 25.2 88.56C33.2 83.52 39.6 75.76 44.32 67.12H28.08V56H49.44C50.8 52.48 51.84 48.96 52.72 45.52L64.88 48.4C64.08 50.96 63.2 53.44 62.32 56ZM116.64 62.88H113.92V90.24H116.64V62.88ZM125.28 100.8H113.92V108.16H105.52V52.32H125.28V100.8ZM139.76 86.32H142.8L142.96 77.12H140.16C140.16 79.92 140 83.04 139.76 86.32ZM140.16 58.64V67.44H143.04V58.64H140.16ZM126.96 48.96H152.32C152.32 48.96 152.32 52.56 152.24 53.76C151.92 97.2 151.92 112.56 149.84 116.32C148.24 119.28 146.88 120.24 144.64 120.8C142.56 121.44 140.24 121.44 137.44 121.36C137.28 118.48 136.32 114.16 134.88 111.28C136.56 111.44 138 111.44 139.2 111.44C140.16 111.52 140.72 111.12 141.36 109.68C142 108.32 142.4 104.48 142.64 96H138.56C136.88 105.36 133.6 114.96 127.36 121.84C126.08 119.92 122.48 116.16 120.72 114.88C125.44 109.44 128 102.8 129.36 96H126.96V86.32H130.64C130.88 83.12 130.96 80 130.96 77.12H127.04V67.44H130.96V58.64H126.96V48.96ZM164 100.88H165.36C165.84 100.88 166.4 100.72 166.8 100.16C167.36 99.44 167.6 97.76 167.6 95.04C167.6 90.96 167.44 85.44 164.64 79.52C165.68 73.92 166.96 64.72 167.68 58.24H164V100.88ZM171.44 48.64L178.48 52.64C176.96 60.8 174.8 72.08 173.2 78.64C176.48 85.44 176.96 91.52 176.96 96.8C176.96 102.88 175.92 106.48 173.6 108.4C172.48 109.36 171.04 109.92 169.36 110.24C168.32 110.4 167.12 110.48 165.52 110.48C165.52 108 165.12 104.32 164 101.6V121.68H154.56V48.96H170.08L171.44 48.64ZM191.68 92.4C189.76 80.08 203.04 74.96 203.04 68.4C203.04 64.88 200.56 63.04 197.28 63.04C194 63.04 191.68 64.72 189.2 67.2L181.36 60C185.76 54.96 191.84 51.6 199.04 51.6C208.96 51.6 216.72 56.32 216.72 67.44C216.72 78.56 203.04 81.84 204.08 92.4H191.68ZM197.84 115.12C192.88 115.12 189.36 111.2 189.36 106.24C189.36 101.36 192.88 97.44 197.84 97.44C202.72 97.44 206.32 101.36 206.32 106.24C206.32 111.2 202.72 115.12 197.84 115.12Z" fill="#00503F"/>
<mask id="path-4-outside-2_188_9809" maskUnits="userSpaceOnUse" x="242" y="47" width="325" height="73" fill="black">
<rect fill="white" x="242" y="47" width="325" height="73"/>
<path d="M257 114L246.12 54.48H260.76L264.52 81.6L266.92 100.48H267.24C268.36 94.16 269.56 87.76 270.76 81.6L276.84 54.48H288.84L295.08 81.6C296.28 87.68 297.32 94.08 298.52 100.48H298.92C299.64 94.08 300.44 87.76 301.16 81.6L305 54.48H318.6L308.28 114H290.28L284.92 88.08C283.96 83.52 283.16 78.72 282.6 74.24H282.2C281.48 78.72 280.76 83.52 279.88 88.08L274.68 114H257ZM323.446 114V54.48H337.766V77.12H357.366V54.48H371.526V114H357.366V89.52H337.766V114H323.446ZM382.199 114V54.48H419.959V66.32H396.519V77.36H416.439V89.36H396.519V102H420.839V114H382.199ZM443.709 65.76V81.76H450.109C456.909 81.76 460.509 78.8 460.509 73.2C460.509 67.6 456.909 65.76 450.109 65.76H443.709ZM477.549 114H461.549L450.589 93.04H443.709V114H429.389V54.48H451.229C463.949 54.48 474.509 58.8 474.509 73.2C474.509 81.92 470.429 87.52 464.269 90.4L477.549 114ZM482.83 114V54.48H520.59V66.32H497.15V77.36H517.07V89.36H497.15V102H521.47V114H482.83ZM537.221 92.4C535.301 80.08 548.581 74.96 548.581 68.4C548.581 64.88 546.101 63.04 542.821 63.04C539.541 63.04 537.221 64.72 534.741 67.2L526.901 60C531.301 54.96 537.381 51.6 544.581 51.6C554.501 51.6 562.261 56.32 562.261 67.44C562.261 78.56 548.581 81.84 549.621 92.4H537.221ZM543.381 115.12C538.421 115.12 534.901 111.2 534.901 106.24C534.901 101.36 538.421 97.44 543.381 97.44C548.261 97.44 551.861 101.36 551.861 106.24C551.861 111.2 548.261 115.12 543.381 115.12Z"/>
</mask>
<path d="M257 114L253.065 114.719L257 118V114ZM246.12 54.48V50.48L242.185 55.1993L246.12 54.48ZM260.76 54.48L264.722 53.9307L260.76 50.48V54.48ZM264.52 81.6L268.488 81.0956L268.482 81.0507L264.52 81.6ZM266.92 100.48L262.952 100.984L266.92 104.48V100.48ZM267.24 100.48V104.48L271.179 101.178L267.24 100.48ZM270.76 81.6L266.857 80.725L266.834 80.8352L270.76 81.6ZM276.84 54.48V50.48L272.937 53.605L276.84 54.48ZM288.84 54.48L292.738 53.5831L288.84 50.48V54.48ZM295.08 81.6L299.004 80.8255L298.978 80.7031L295.08 81.6ZM298.52 100.48L294.589 101.217L298.52 104.48V100.48ZM298.92 100.48V104.48L302.895 100.927L298.92 100.48ZM301.16 81.6L297.2 81.0392L297.187 81.1356L301.16 81.6ZM305 54.48V50.48L301.04 53.9192L305 54.48ZM318.6 54.48L322.541 55.1634L318.6 50.48V54.48ZM308.28 114V118L312.221 114.683L308.28 114ZM290.28 114L286.363 114.81L290.28 118V114ZM284.92 88.08L288.837 87.27L288.834 87.256L284.92 88.08ZM282.6 74.24L286.569 73.7439L282.6 70.24V74.24ZM282.2 74.24V70.24L278.251 73.6053L282.2 74.24ZM279.88 88.08L283.802 88.8668L283.808 88.8379L279.88 88.08ZM274.68 114V118L278.602 114.787L274.68 114ZM260.935 113.281L250.055 53.7607L242.185 55.1993L253.065 114.719L260.935 113.281ZM246.12 58.48H260.76V50.48H246.12V58.48ZM256.798 55.0293L260.558 82.1493L268.482 81.0507L264.722 53.9307L256.798 55.0293ZM260.552 82.1044L262.952 100.984L270.888 99.9756L268.488 81.0956L260.552 82.1044ZM266.92 104.48H267.24V96.48H266.92V104.48ZM271.179 101.178C272.294 94.8838 273.49 88.5063 274.686 82.3648L266.834 80.8352C265.63 87.0137 264.426 93.4362 263.301 99.782L271.179 101.178ZM274.663 82.475L280.743 55.355L272.937 53.605L266.857 80.725L274.663 82.475ZM276.84 58.48H288.84V50.48H276.84V58.48ZM284.942 55.3769L291.182 82.4969L298.978 80.7031L292.738 53.5831L284.942 55.3769ZM291.156 82.3745C292.362 88.4841 293.354 94.6333 294.589 101.217L302.451 99.7428C301.286 93.5267 300.198 86.8759 299.004 80.8255L291.156 82.3745ZM298.52 104.48H298.92V96.48H298.52V104.48ZM302.895 100.927C303.616 94.5219 304.405 88.2918 305.133 82.0644L297.187 81.1356C296.475 87.2282 295.664 93.6381 294.945 100.033L302.895 100.927ZM305.12 82.1608L308.96 55.0408L301.04 53.9192L297.2 81.0392L305.12 82.1608ZM305 58.48H318.6V50.48H305V58.48ZM314.659 53.7966L304.339 113.317L312.221 114.683L322.541 55.1634L314.659 53.7966ZM308.28 110H290.28V118H308.28V110ZM294.197 113.19L288.837 87.27L281.003 88.89L286.363 114.81L294.197 113.19ZM288.834 87.256C287.897 82.8049 287.115 78.1143 286.569 73.7439L278.631 74.7361C279.205 79.3257 280.023 84.2351 281.006 88.904L288.834 87.256ZM282.6 70.24H282.2V78.24H282.6V70.24ZM278.251 73.6053C277.521 78.1442 276.817 82.8431 275.952 87.3221L283.808 88.8379C284.703 84.1969 285.439 79.2958 286.149 74.8747L278.251 73.6053ZM275.958 87.2932L270.758 113.213L278.602 114.787L283.802 88.8668L275.958 87.2932ZM274.68 110H257V118H274.68V110ZM323.446 114H319.446L323.446 118V114ZM323.446 54.48V50.48L319.446 54.48H323.446ZM337.766 54.48H341.766L337.766 50.48V54.48ZM337.766 77.12H333.766L337.766 81.12V77.12ZM357.366 77.12V81.12L361.366 77.12H357.366ZM357.366 54.48V50.48L353.366 54.48H357.366ZM371.526 54.48H375.526L371.526 50.48V54.48ZM371.526 114V118L375.526 114H371.526ZM357.366 114H353.366L357.366 118V114ZM357.366 89.52H361.366L357.366 85.52V89.52ZM337.766 89.52V85.52L333.766 89.52H337.766ZM337.766 114V118L341.766 114H337.766ZM327.446 114V54.48H319.446V114H327.446ZM323.446 58.48H337.766V50.48H323.446V58.48ZM333.766 54.48V77.12H341.766V54.48H333.766ZM337.766 81.12H357.366V73.12H337.766V81.12ZM361.366 77.12V54.48H353.366V77.12H361.366ZM357.366 58.48H371.526V50.48H357.366V58.48ZM367.526 54.48V114H375.526V54.48H367.526ZM371.526 110H357.366V118H371.526V110ZM361.366 114V89.52H353.366V114H361.366ZM357.366 85.52H337.766V93.52H357.366V85.52ZM333.766 89.52V114H341.766V89.52H333.766ZM337.766 110H323.446V118H337.766V110ZM382.199 114H378.199L382.199 118V114ZM382.199 54.48V50.48L378.199 54.48H382.199ZM419.959 54.48H423.959L419.959 50.48V54.48ZM419.959 66.32V70.32L423.959 66.32H419.959ZM396.519 66.32V62.32L392.519 66.32H396.519ZM396.519 77.36H392.519L396.519 81.36V77.36ZM416.439 77.36H420.439L416.439 73.36V77.36ZM416.439 89.36V93.36L420.439 89.36H416.439ZM396.519 89.36V85.36L392.519 89.36H396.519ZM396.519 102H392.519L396.519 106V102ZM420.839 102H424.839L420.839 98V102ZM420.839 114V118L424.839 114H420.839ZM386.199 114V54.48H378.199V114H386.199ZM382.199 58.48H419.959V50.48H382.199V58.48ZM415.959 54.48V66.32H423.959V54.48H415.959ZM419.959 62.32H396.519V70.32H419.959V62.32ZM392.519 66.32V77.36H400.519V66.32H392.519ZM396.519 81.36H416.439V73.36H396.519V81.36ZM412.439 77.36V89.36H420.439V77.36H412.439ZM416.439 85.36H396.519V93.36H416.439V85.36ZM392.519 89.36V102H400.519V89.36H392.519ZM396.519 106H420.839V98H396.519V106ZM416.839 102V114H424.839V102H416.839ZM420.839 110H382.199V118H420.839V110ZM443.709 65.76V61.76L439.709 65.76H443.709ZM443.709 81.76H439.709L443.709 85.76V81.76ZM477.549 114V118L481.035 112.038L477.549 114ZM461.549 114L458.005 115.854L461.549 118V114ZM450.589 93.04L454.134 91.1865L450.589 89.04V93.04ZM443.709 93.04V89.04L439.709 93.04H443.709ZM443.709 114V118L447.709 114H443.709ZM429.389 114H425.389L429.389 118V114ZM429.389 54.48V50.48L425.389 54.48H429.389ZM464.269 90.4L462.575 86.7765L460.783 92.3616L464.269 90.4ZM439.709 65.76V81.76H447.709V65.76H439.709ZM443.709 85.76H450.109V77.76H443.709V85.76ZM450.109 85.76C454.006 85.76 457.661 84.923 460.401 82.6687C463.275 80.3038 464.509 76.9092 464.509 73.2H456.509C456.509 75.0908 455.944 75.9762 455.318 76.4913C454.557 77.117 453.012 77.76 450.109 77.76V85.76ZM464.509 73.2C464.509 69.4403 463.222 66.1355 460.069 64.0459C457.295 62.2071 453.688 61.76 450.109 61.76V69.76C453.33 69.76 454.923 70.2329 455.649 70.714C455.997 70.9445 456.509 71.3597 456.509 73.2H464.509ZM450.109 61.76H443.709V69.76H450.109V61.76ZM477.549 110H461.549V118H477.549V110ZM465.094 112.146L454.134 91.1865L447.045 94.8935L458.005 115.854L465.094 112.146ZM450.589 89.04H443.709V97.04H450.589V89.04ZM439.709 93.04V114H447.709V93.04H439.709ZM443.709 110H429.389V118H443.709V110ZM433.389 114V54.48H425.389V114H433.389ZM429.389 58.48H451.229V50.48H429.389V58.48ZM451.229 58.48C457.262 58.48 462.129 59.5272 465.388 61.7464C468.371 63.7776 470.509 67.1276 470.509 73.2H478.509C478.509 64.8724 475.367 58.8624 469.891 55.1336C464.69 51.5928 457.917 50.48 451.229 50.48V58.48ZM470.509 73.2C470.509 80.4046 467.295 84.57 462.575 86.7765L465.963 94.0235C473.564 90.47 478.509 83.4354 478.509 73.2H470.509ZM460.783 92.3616L474.063 115.962L481.035 112.038L467.755 88.4384L460.783 92.3616ZM482.83 114H478.83L482.83 118V114ZM482.83 54.48V50.48L478.83 54.48H482.83ZM520.59 54.48H524.59L520.59 50.48V54.48ZM520.59 66.32V70.32L524.59 66.32H520.59ZM497.15 66.32V62.32L493.15 66.32H497.15ZM497.15 77.36H493.15L497.15 81.36V77.36ZM517.07 77.36H521.07L517.07 73.36V77.36ZM517.07 89.36V93.36L521.07 89.36H517.07ZM497.15 89.36V85.36L493.15 89.36H497.15ZM497.15 102H493.15L497.15 106V102ZM521.47 102H525.47L521.47 98V102ZM521.47 114V118L525.47 114H521.47ZM486.83 114V54.48H478.83V114H486.83ZM482.83 58.48H520.59V50.48H482.83V58.48ZM516.59 54.48V66.32H524.59V54.48H516.59ZM520.59 62.32H497.15V70.32H520.59V62.32ZM493.15 66.32V77.36H501.15V66.32H493.15ZM497.15 81.36H517.07V73.36H497.15V81.36ZM513.07 77.36V89.36H521.07V77.36H513.07ZM517.07 85.36H497.15V93.36H517.07V85.36ZM493.15 89.36V102H501.15V89.36H493.15ZM497.15 106H521.47V98H497.15V106ZM517.47 102V114H525.47V102H517.47ZM521.47 110H482.83V118H521.47V110ZM537.221 92.4L533.268 93.0159L537.221 96.4V92.4ZM534.741 67.2L532.035 70.1461L537.569 70.0284L534.741 67.2ZM526.901 60L523.887 57.3694L524.195 62.9461L526.901 60ZM549.621 92.4V96.4L553.601 92.008L549.621 92.4ZM541.173 91.7841C540.489 87.3929 542.368 84.2113 545.234 80.8238C546.475 79.3578 548.458 77.2621 549.718 75.6089C551.07 73.8337 552.581 71.3965 552.581 68.4H544.581C544.581 68.6835 544.431 69.3463 543.354 70.7611C542.183 72.2979 540.967 73.4822 539.127 75.6562C535.833 79.5487 532.033 85.0871 533.268 93.0159L541.173 91.7841ZM552.581 68.4C552.581 65.6322 551.566 63.1389 549.563 61.3879C547.633 59.7018 545.175 59.04 542.821 59.04V67.04C543.746 67.04 544.168 67.2982 544.299 67.4121C544.361 67.4667 544.414 67.5326 544.461 67.6424C544.51 67.7586 544.581 67.9929 544.581 68.4H552.581ZM542.821 59.04C537.893 59.04 534.588 61.6955 531.912 64.3716L537.569 70.0284C539.853 67.7445 541.188 67.04 542.821 67.04V59.04ZM537.446 64.2539L529.606 57.0539L524.195 62.9461L532.035 70.1461L537.446 64.2539ZM529.914 62.6306C533.686 58.3096 538.722 55.6 544.581 55.6V47.6C536.039 47.6 528.915 51.6104 523.887 57.3694L529.914 62.6306ZM544.581 55.6C548.976 55.6 552.39 56.6533 554.626 58.461C556.728 60.1597 558.261 62.8981 558.261 67.44H566.261C566.261 60.8619 563.913 55.6803 559.655 52.239C555.532 48.9067 550.106 47.6 544.581 47.6V55.6ZM558.261 67.44C558.261 71.1931 556.091 73.6831 552.624 77.4028C549.509 80.7458 544.919 85.4756 545.64 92.792L553.601 92.008C553.282 88.7644 555.013 86.5742 558.477 82.8572C561.59 79.5169 566.261 74.8069 566.261 67.44H558.261ZM549.621 88.4H537.221V96.4H549.621V88.4ZM543.381 111.12C540.869 111.12 538.901 109.238 538.901 106.24H530.901C530.901 113.162 535.972 119.12 543.381 119.12V111.12ZM538.901 106.24C538.901 103.346 540.846 101.44 543.381 101.44V93.44C535.995 93.44 530.901 99.3736 530.901 106.24H538.901ZM543.381 101.44C545.859 101.44 547.861 103.372 547.861 106.24H555.861C555.861 99.3479 550.662 93.44 543.381 93.44V101.44ZM547.861 106.24C547.861 109.212 545.836 111.12 543.381 111.12V119.12C550.685 119.12 555.861 113.188 555.861 106.24H547.861Z" fill="#00503F" mask="url(#path-4-outside-2_188_9809)"/>
<path d="M666.92 75.68L657.08 82.88C656.12 81.2 654.84 79.2 653.32 77.2C612.52 78.96 606.2 79.12 601.4 80.72C600.84 78.48 598.92 72.72 597.56 69.6C599.96 69.04 601.72 67.6 604.36 65.12C607.08 62.64 615.48 53.12 620.52 43.68L632.28 48.72C627.72 55.36 622.12 61.92 616.44 67.52L644.84 66.8C642.12 63.68 639.4 60.72 636.84 58.08L645.88 52C652.92 58.96 662.6 68.88 666.92 75.68ZM646.36 96.4H615V106.4H646.36V96.4ZM603.08 121.52V85.28H658.92V121.52H646.36V117.6H615V121.52H603.08ZM701.56 97.76L705.16 96.56L707.24 107.04C695.96 111.76 683.72 116.64 674.04 120.32L668.84 108.32C674.12 106.88 681.48 104.48 689.4 101.92V75.44H671.88V63.84H689.4V46.8H701.56V97.76ZM725.24 108.24H731C733.64 108.24 734.12 104.64 734.6 90.72C737.4 92.96 742.6 95.36 745.72 96.08C744.76 112.88 742.04 119.6 732.28 119.6H723.32C713.4 119.6 710.44 115.68 710.44 102.96V46.88H722.6V63.68H742.76V75.28H722.6V103.04C722.6 107.6 722.84 108.24 725.24 108.24ZM821.88 67.36H790.36V75.2H816.28V101.76C816.28 107.12 815.16 110.32 811.48 112.08C807.72 113.84 803.08 114 797.16 114C796.68 110.64 794.92 105.68 793.32 102.56C796.52 102.8 801.24 102.8 802.36 102.8C803.64 102.8 804.12 102.48 804.12 101.52V86.56H790.36V121.04H778.2V86.56H765.64V113.84H753.88V75.2H778.2V67.36H747.64V56H778.84C777.8 53.36 776.44 50.48 775.4 48.08L787 44.56C788.84 48.08 791.24 52.72 792.6 56H821.88V67.36ZM867.4 85.68H882.84V70.72H867.4V85.68ZM839.72 85.68H855.08V70.72H839.72V85.68ZM867.4 59.28H895.08V100.88H882.84V97.12H867.4V121.6H855.08V97.12H839.72V101.28H828.04V59.28H855.08V45.6H867.4V59.28ZM959.72 62.88H971.88V121.6H959.72V116H905V63.28H917V104H931.96V46.08H944.28V104H959.72V62.88ZM1013.88 47.52H1034.52C1037.8 57.92 1044.76 68.8 1054.84 74.72C1052.2 77.36 1047.96 83.04 1046.04 86.72C1036.84 79.6 1029.96 69.36 1025.56 59.52H1013.88V47.52ZM997.56 47.12L1010.68 51.36C1004.68 64.48 995 78.64 986.44 87.12C984.2 84.48 979 79.36 976.04 77.04C984.36 70.08 992.76 58.4 997.56 47.12ZM1021.72 92.64L1033.16 87.44C1039.64 96.4 1046.92 107.84 1050.84 115.52L1038.76 122C1037.72 119.68 1036.36 116.88 1034.68 113.92C997.48 117.2 991.4 117.6 986.84 119.36C986.12 116.88 983.8 110.4 982.12 106.88C985.08 106.08 987.08 104.24 990.36 100.8C993.8 97.44 1003.8 84.16 1009.8 71.12L1023.64 76.72C1017.88 86.8 1010.6 96.56 1003.16 104.64L1028.28 102.88C1026.04 99.36 1023.8 95.76 1021.72 92.64ZM1113.16 70.08V76.32H1069.88V70.08H1086.2V68.08H1073.24V62.08H1086.2V59.36H1096.68V62.08H1110.36V68.08H1096.68V70.08H1113.16ZM1107.96 89.76L1114.68 94.16C1112.92 95.52 1111 96.8 1109.16 97.92C1111.4 99.52 1113.48 101.12 1115 102.48L1107.64 106.72C1103.88 103.12 1095.96 97.28 1089.88 93.28L1096.76 89.6C1098.68 90.8 1100.84 92.24 1103.08 93.68C1104.92 92.4 1106.68 90.96 1107.96 89.76ZM1079.08 108.64H1115.16V58.8H1067.88V108.64H1078.28C1077.88 106.96 1076.76 104.4 1075.96 103.36C1077.16 102.8 1078.36 101.92 1078.36 98.88V97.76C1076.6 98.4 1074.92 98.96 1073.24 99.44C1072.12 97.92 1069.48 94.64 1067.88 93.2C1072.36 92.32 1077 90.96 1081 89.36H1073.48V78.08H1110.2V89.36H1094.12C1091.96 91.12 1089.32 92.8 1086.44 94.32V99.36L1095.32 97.52C1095.08 99.52 1095.08 102.64 1095.32 104.32C1084.28 106.88 1080.76 107.84 1079.08 108.64ZM1083 84.72H1100.12V82.72H1083V84.72ZM1057 48.4H1126.52V121.68H1115.16V119.04H1067.88V121.68H1057V48.4Z" fill="#00503F"/>
<mask id="path-7-outside-3_188_9809" maskUnits="userSpaceOnUse" x="1153" y="41" width="200" height="85" fill="black">
<rect fill="white" x="1153" y="41" width="200" height="85"/>
<path d="M1214 92.96V108.8H1231.76V119.52H1183.84V108.8H1202.24V92.96H1186.88V82.24H1202.24V70.16H1214V82.24H1228.72V92.96H1214ZM1194.32 56H1232.16V67.12H1189.6C1187.04 72.56 1184 77.84 1180.4 82.72V121.52H1168.64V95.44C1166.8 97.04 1164.8 98.56 1162.72 99.92C1161.52 96.64 1158.96 91.44 1157.2 88.56C1165.2 83.52 1171.6 75.76 1176.32 67.12H1160.08V56H1181.44C1182.8 52.48 1183.84 48.96 1184.72 45.52L1196.88 48.4C1196.08 50.96 1195.2 53.44 1194.32 56ZM1248.64 62.88H1245.92V90.24H1248.64V62.88ZM1257.28 100.8H1245.92V108.16H1237.52V52.32H1257.28V100.8ZM1271.76 86.32H1274.8L1274.96 77.12H1272.16C1272.16 79.92 1272 83.04 1271.76 86.32ZM1272.16 58.64V67.44H1275.04V58.64H1272.16ZM1258.96 48.96H1284.32C1284.32 48.96 1284.32 52.56 1284.24 53.76C1283.92 97.2 1283.92 112.56 1281.84 116.32C1280.24 119.28 1278.88 120.24 1276.64 120.8C1274.56 121.44 1272.24 121.44 1269.44 121.36C1269.28 118.48 1268.32 114.16 1266.88 111.28C1268.56 111.44 1270 111.44 1271.2 111.44C1272.16 111.52 1272.72 111.12 1273.36 109.68C1274 108.32 1274.4 104.48 1274.64 96H1270.56C1268.88 105.36 1265.6 114.96 1259.36 121.84C1258.08 119.92 1254.48 116.16 1252.72 114.88C1257.44 109.44 1260 102.8 1261.36 96H1258.96V86.32H1262.64C1262.88 83.12 1262.96 80 1262.96 77.12H1259.04V67.44H1262.96V58.64H1258.96V48.96ZM1296 100.88H1297.36C1297.84 100.88 1298.4 100.72 1298.8 100.16C1299.36 99.44 1299.6 97.76 1299.6 95.04C1299.6 90.96 1299.44 85.44 1296.64 79.52C1297.68 73.92 1298.96 64.72 1299.68 58.24H1296V100.88ZM1303.44 48.64L1310.48 52.64C1308.96 60.8 1306.8 72.08 1305.2 78.64C1308.48 85.44 1308.96 91.52 1308.96 96.8C1308.96 102.88 1307.92 106.48 1305.6 108.4C1304.48 109.36 1303.04 109.92 1301.36 110.24C1300.32 110.4 1299.12 110.48 1297.52 110.48C1297.52 108 1297.12 104.32 1296 101.6V121.68H1286.56V48.96H1302.08L1303.44 48.64ZM1323.68 92.4C1321.76 80.08 1335.04 74.96 1335.04 68.4C1335.04 64.88 1332.56 63.04 1329.28 63.04C1326 63.04 1323.68 64.72 1321.2 67.2L1313.36 60C1317.76 54.96 1323.84 51.6 1331.04 51.6C1340.96 51.6 1348.72 56.32 1348.72 67.44C1348.72 78.56 1335.04 81.84 1336.08 92.4H1323.68ZM1329.84 115.12C1324.88 115.12 1321.36 111.2 1321.36 106.24C1321.36 101.36 1324.88 97.44 1329.84 97.44C1334.72 97.44 1338.32 101.36 1338.32 106.24C1338.32 111.2 1334.72 115.12 1329.84 115.12Z"/>
</mask>
<path d="M1214 92.96V88.96L1210 92.96H1214ZM1214 108.8H1210L1214 112.8V108.8ZM1231.76 108.8H1235.76L1231.76 104.8V108.8ZM1231.76 119.52V123.52L1235.76 119.52H1231.76ZM1183.84 119.52H1179.84L1183.84 123.52V119.52ZM1183.84 108.8V104.8L1179.84 108.8H1183.84ZM1202.24 108.8V112.8L1206.24 108.8H1202.24ZM1202.24 92.96H1206.24L1202.24 88.96V92.96ZM1186.88 92.96H1182.88L1186.88 96.96V92.96ZM1186.88 82.24V78.24L1182.88 82.24H1186.88ZM1202.24 82.24V86.24L1206.24 82.24H1202.24ZM1202.24 70.16V66.16L1198.24 70.16H1202.24ZM1214 70.16H1218L1214 66.16V70.16ZM1214 82.24H1210L1214 86.24V82.24ZM1228.72 82.24H1232.72L1228.72 78.24V82.24ZM1228.72 92.96V96.96L1232.72 92.96H1228.72ZM1194.32 56L1190.54 54.6997L1194.32 60V56ZM1232.16 56H1236.16L1232.16 52V56ZM1232.16 67.12V71.12L1236.16 67.12H1232.16ZM1189.6 67.12V63.12L1185.98 65.4168L1189.6 67.12ZM1180.4 82.72L1177.18 80.3454L1176.4 82.72H1180.4ZM1180.4 121.52V125.52L1184.4 121.52H1180.4ZM1168.64 121.52H1164.64L1168.64 125.52V121.52ZM1168.64 95.44H1172.64L1166.02 92.4216L1168.64 95.44ZM1162.72 99.92L1158.96 101.294L1164.91 103.268L1162.72 99.92ZM1157.2 88.56L1155.07 85.1756L1153.79 90.6458L1157.2 88.56ZM1176.32 67.12L1179.83 69.0377L1176.32 63.12V67.12ZM1160.08 67.12H1156.08L1160.08 71.12V67.12ZM1160.08 56V52L1156.08 56H1160.08ZM1181.44 56V60L1185.17 57.4416L1181.44 56ZM1184.72 45.52L1185.64 41.6277L1180.84 44.5287L1184.72 45.52ZM1196.88 48.4L1200.7 49.5931L1197.8 44.5077L1196.88 48.4ZM1210 92.96V108.8H1218V92.96H1210ZM1214 112.8H1231.76V104.8H1214V112.8ZM1227.76 108.8V119.52H1235.76V108.8H1227.76ZM1231.76 115.52H1183.84V123.52H1231.76V115.52ZM1187.84 119.52V108.8H1179.84V119.52H1187.84ZM1183.84 112.8H1202.24V104.8H1183.84V112.8ZM1206.24 108.8V92.96H1198.24V108.8H1206.24ZM1202.24 88.96H1186.88V96.96H1202.24V88.96ZM1190.88 92.96V82.24H1182.88V92.96H1190.88ZM1186.88 86.24H1202.24V78.24H1186.88V86.24ZM1206.24 82.24V70.16H1198.24V82.24H1206.24ZM1202.24 74.16H1214V66.16H1202.24V74.16ZM1210 70.16V82.24H1218V70.16H1210ZM1214 86.24H1228.72V78.24H1214V86.24ZM1224.72 82.24V92.96H1232.72V82.24H1224.72ZM1228.72 88.96H1214V96.96H1228.72V88.96ZM1194.32 60H1232.16V52H1194.32V60ZM1228.16 56V67.12H1236.16V56H1228.16ZM1232.16 63.12H1189.6V71.12H1232.16V63.12ZM1185.98 65.4168C1183.51 70.6582 1180.6 75.7067 1177.18 80.3454L1183.62 85.0946C1187.4 79.9733 1190.57 74.4618 1193.22 68.8232L1185.98 65.4168ZM1176.4 82.72V121.52H1184.4V82.72H1176.4ZM1180.4 117.52H1168.64V125.52H1180.4V117.52ZM1172.64 121.52V95.44H1164.64V121.52H1172.64ZM1166.02 92.4216C1164.31 93.9052 1162.45 95.3146 1160.53 96.5721L1164.91 103.268C1167.15 101.805 1169.29 100.175 1171.26 98.4584L1166.02 92.4216ZM1166.48 98.5457C1165.18 94.9966 1162.5 89.5594 1160.61 86.4742L1153.79 90.6458C1155.42 93.3206 1157.86 98.2834 1158.96 101.294L1166.48 98.5457ZM1159.33 91.9444C1168.07 86.4424 1174.89 78.0896 1179.83 69.0377L1172.81 65.2023C1168.31 73.4304 1162.33 80.5976 1155.07 85.1756L1159.33 91.9444ZM1176.32 63.12H1160.08V71.12H1176.32V63.12ZM1164.08 67.12V56H1156.08V67.12H1164.08ZM1160.08 60H1181.44V52H1160.08V60ZM1185.17 57.4416C1186.61 53.7277 1187.69 50.0464 1188.6 46.5113L1180.84 44.5287C1179.99 47.8736 1178.99 51.2322 1177.71 54.5584L1185.17 57.4416ZM1183.8 49.4123L1195.96 52.2923L1197.8 44.5077L1185.64 41.6277L1183.8 49.4123ZM1193.06 47.2069C1192.28 49.696 1191.43 52.09 1190.54 54.6997L1198.1 57.3003C1198.97 54.79 1199.88 52.224 1200.7 49.5931L1193.06 47.2069ZM1248.64 62.88H1252.64L1248.64 58.88V62.88ZM1245.92 62.88V58.88L1241.92 62.88H1245.92ZM1245.92 90.24H1241.92L1245.92 94.24V90.24ZM1248.64 90.24V94.24L1252.64 90.24H1248.64ZM1257.28 100.8V104.8L1261.28 100.8H1257.28ZM1245.92 100.8V96.8L1241.92 100.8H1245.92ZM1245.92 108.16V112.16L1249.92 108.16H1245.92ZM1237.52 108.16H1233.52L1237.52 112.16V108.16ZM1237.52 52.32V48.32L1233.52 52.32H1237.52ZM1257.28 52.32H1261.28L1257.28 48.32V52.32ZM1271.76 86.32L1267.77 86.0281L1271.76 90.32V86.32ZM1274.8 86.32V90.32L1278.8 86.3896L1274.8 86.32ZM1274.96 77.12L1278.96 77.1896L1274.96 73.12V77.12ZM1272.16 77.12V73.12L1268.16 77.12H1272.16ZM1272.16 58.64V54.64L1268.16 58.64H1272.16ZM1272.16 67.44H1268.16L1272.16 71.44V67.44ZM1275.04 67.44V71.44L1279.04 67.44H1275.04ZM1275.04 58.64H1279.04L1275.04 54.64V58.64ZM1258.96 48.96V44.96L1254.96 48.96H1258.96ZM1284.32 48.96H1288.32L1284.32 44.96V48.96ZM1284.24 53.76L1280.25 53.4939L1280.24 53.7305L1284.24 53.76ZM1281.84 116.32L1278.34 114.384L1278.32 114.418L1281.84 116.32ZM1276.64 120.8L1275.67 116.919L1275.46 116.977L1276.64 120.8ZM1269.44 121.36L1265.45 121.582L1269.33 125.358L1269.44 121.36ZM1266.88 111.28L1267.26 107.298L1263.3 113.069L1266.88 111.28ZM1271.2 111.44L1271.53 107.454L1271.2 107.44V111.44ZM1273.36 109.68L1269.74 107.977L1269.7 108.055L1273.36 109.68ZM1274.64 96L1278.64 96.1132L1274.64 92V96ZM1270.56 96V92L1266.62 95.2933L1270.56 96ZM1259.36 121.84L1256.03 124.059L1262.32 124.527L1259.36 121.84ZM1252.72 114.88L1249.7 112.259L1250.37 118.115L1252.72 114.88ZM1261.36 96L1265.28 96.7845L1261.36 92V96ZM1258.96 96H1254.96L1258.96 100V96ZM1258.96 86.32V82.32L1254.96 86.32H1258.96ZM1262.64 86.32V90.32L1266.63 86.6192L1262.64 86.32ZM1262.96 77.12H1266.96L1262.96 73.12V77.12ZM1259.04 77.12H1255.04L1259.04 81.12V77.12ZM1259.04 67.44V63.44L1255.04 67.44H1259.04ZM1262.96 67.44V71.44L1266.96 67.44H1262.96ZM1262.96 58.64H1266.96L1262.96 54.64V58.64ZM1258.96 58.64H1254.96L1258.96 62.64V58.64ZM1296 100.88H1292L1296 104.88V100.88ZM1298.8 100.16L1295.64 97.7042L1295.55 97.835L1298.8 100.16ZM1296.64 79.52L1292.71 78.7896L1293.02 81.2302L1296.64 79.52ZM1299.68 58.24L1303.66 58.6817L1299.68 54.24V58.24ZM1296 58.24V54.24L1292 58.24H1296ZM1303.44 48.64L1305.42 45.1622L1302.52 44.7463L1303.44 48.64ZM1310.48 52.64L1314.41 53.3725L1312.46 49.1622L1310.48 52.64ZM1305.2 78.64L1301.31 77.6922L1301.6 80.3778L1305.2 78.64ZM1305.6 108.4L1303.05 105.318L1303 105.363L1305.6 108.4ZM1301.36 110.24L1301.97 114.193L1302.11 114.169L1301.36 110.24ZM1297.52 110.48H1293.52L1297.52 114.48V110.48ZM1296 101.6L1299.7 100.077L1292 101.6H1296ZM1296 121.68V125.68L1300 121.68H1296ZM1286.56 121.68H1282.56L1286.56 125.68V121.68ZM1286.56 48.96V44.96L1282.56 48.96H1286.56ZM1302.08 48.96V52.96L1303 52.8537L1302.08 48.96ZM1248.64 58.88H1245.92V66.88H1248.64V58.88ZM1241.92 62.88V90.24H1249.92V62.88H1241.92ZM1245.92 94.24H1248.64V86.24H1245.92V94.24ZM1252.64 90.24V62.88H1244.64V90.24H1252.64ZM1257.28 96.8H1245.92V104.8H1257.28V96.8ZM1241.92 100.8V108.16H1249.92V100.8H1241.92ZM1245.92 104.16H1237.52V112.16H1245.92V104.16ZM1241.52 108.16V52.32H1233.52V108.16H1241.52ZM1237.52 56.32H1257.28V48.32H1237.52V56.32ZM1253.28 52.32V100.8H1261.28V52.32H1253.28ZM1271.76 90.32H1274.8V82.32H1271.76V90.32ZM1278.8 86.3896L1278.96 77.1896L1270.96 77.0504L1270.8 86.2504L1278.8 86.3896ZM1274.96 73.12H1272.16V81.12H1274.96V73.12ZM1268.16 77.12C1268.16 79.7809 1268.01 82.7921 1267.77 86.0281L1275.75 86.6119C1275.99 83.2879 1276.16 80.0591 1276.16 77.12H1268.16ZM1268.16 58.64V67.44H1276.16V58.64H1268.16ZM1272.16 71.44H1275.04V63.44H1272.16V71.44ZM1279.04 67.44V58.64H1271.04V67.44H1279.04ZM1275.04 54.64H1272.16V62.64H1275.04V54.64ZM1258.96 52.96H1284.32V44.96H1258.96V52.96ZM1284.32 48.96C1280.32 48.96 1280.32 48.96 1280.32 48.96C1280.32 48.96 1280.32 48.96 1280.32 48.96C1280.32 48.96 1280.32 48.9601 1280.32 48.9603C1280.32 48.9606 1280.32 48.9612 1280.32 48.9619C1280.32 48.9634 1280.32 48.9658 1280.32 48.9689C1280.32 48.9753 1280.32 48.985 1280.32 48.9978C1280.32 49.0234 1280.32 49.0616 1280.32 49.1108C1280.32 49.2093 1280.32 49.352 1280.32 49.5272C1280.32 49.8781 1280.32 50.3572 1280.31 50.8719C1280.3 51.9537 1280.28 53.0307 1280.25 53.4939L1288.23 54.0261C1288.28 53.2893 1288.3 51.9663 1288.31 50.9481C1288.31 50.4128 1288.32 49.9169 1288.32 49.5553C1288.32 49.3742 1288.32 49.2263 1288.32 49.1232C1288.32 49.0717 1288.32 49.0313 1288.32 49.0037C1288.32 48.9898 1288.32 48.9791 1288.32 48.9718C1288.32 48.9681 1288.32 48.9653 1288.32 48.9633C1288.32 48.9623 1288.32 48.9616 1288.32 48.961C1288.32 48.9607 1288.32 48.9605 1288.32 48.9603C1288.32 48.9603 1288.32 48.9602 1288.32 48.9601C1288.32 48.9601 1288.32 48.96 1284.32 48.96ZM1280.24 53.7305C1280.08 75.4847 1280 90.1175 1279.7 99.7969C1279.55 104.642 1279.35 108.14 1279.07 110.621C1278.93 111.859 1278.78 112.772 1278.63 113.434C1278.55 113.761 1278.48 113.998 1278.43 114.164C1278.37 114.333 1278.33 114.394 1278.34 114.384L1285.34 118.256C1286.29 116.547 1286.73 114.154 1287.02 111.514C1287.34 108.7 1287.55 104.938 1287.7 100.043C1288 90.2425 1288.08 75.4753 1288.24 53.7895L1280.24 53.7305ZM1278.32 114.418C1277.64 115.67 1277.2 116.158 1276.93 116.381C1276.71 116.558 1276.42 116.731 1275.67 116.919L1277.61 124.681C1279.1 124.309 1280.61 123.722 1282.03 122.539C1283.4 121.402 1284.44 119.93 1285.36 118.222L1278.32 114.418ZM1275.46 116.977C1274.1 117.395 1272.42 117.444 1269.55 117.362L1269.33 125.358C1272.06 125.436 1275.02 125.485 1277.82 124.623L1275.46 116.977ZM1273.43 121.138C1273.25 117.826 1272.19 112.952 1270.46 109.491L1263.3 113.069C1264.45 115.368 1265.31 119.134 1265.45 121.582L1273.43 121.138ZM1266.5 115.262C1268.39 115.442 1270 115.44 1271.2 115.44V107.44C1270 107.44 1268.73 107.438 1267.26 107.298L1266.5 115.262ZM1270.87 115.426C1272.05 115.524 1273.53 115.339 1274.89 114.262C1276.01 113.373 1276.63 112.175 1277.02 111.305L1269.7 108.055C1269.6 108.294 1269.54 108.377 1269.55 108.371C1269.55 108.362 1269.67 108.194 1269.91 107.998C1270.19 107.781 1270.53 107.609 1270.89 107.518C1271.23 107.434 1271.47 107.449 1271.53 107.454L1270.87 115.426ZM1276.98 111.383C1277.63 109.991 1277.93 108.025 1278.13 105.892C1278.35 103.566 1278.52 100.379 1278.64 96.1132L1270.64 95.8868C1270.52 100.101 1270.37 103.074 1270.17 105.128C1269.95 107.375 1269.73 108.009 1269.74 107.977L1276.98 111.383ZM1274.64 92H1270.56V100H1274.64V92ZM1266.62 95.2933C1265 104.338 1261.91 113.079 1256.4 119.153L1262.32 124.527C1269.29 116.841 1272.76 106.382 1274.5 96.7067L1266.62 95.2933ZM1262.69 119.621C1261.85 118.362 1260.43 116.739 1259.11 115.357C1257.8 113.982 1256.26 112.506 1255.07 111.645L1250.37 118.115C1250.94 118.534 1252.08 119.578 1253.33 120.883C1254.57 122.181 1255.59 123.398 1256.03 124.059L1262.69 119.621ZM1255.74 117.501C1261.06 111.375 1263.84 104.016 1265.28 96.7845L1257.44 95.2155C1256.16 101.584 1253.82 107.505 1249.7 112.259L1255.74 117.501ZM1261.36 92H1258.96V100H1261.36V92ZM1262.96 96V86.32H1254.96V96H1262.96ZM1258.96 90.32H1262.64V82.32H1258.96V90.32ZM1266.63 86.6192C1266.88 83.2949 1266.96 80.0715 1266.96 77.12H1258.96C1258.96 79.9285 1258.88 82.9451 1258.65 86.0208L1266.63 86.6192ZM1262.96 73.12H1259.04V81.12H1262.96V73.12ZM1263.04 77.12V67.44H1255.04V77.12H1263.04ZM1259.04 71.44H1262.96V63.44H1259.04V71.44ZM1266.96 67.44V58.64H1258.96V67.44H1266.96ZM1262.96 54.64H1258.96V62.64H1262.96V54.64ZM1262.96 58.64V48.96H1254.96V58.64H1262.96ZM1296 104.88H1297.36V96.88H1296V104.88ZM1297.36 104.88C1298.75 104.88 1300.7 104.375 1302.05 102.485L1295.55 97.835C1295.78 97.5127 1296.11 97.2397 1296.5 97.0687C1296.86 96.911 1297.17 96.88 1297.36 96.88V104.88ZM1301.96 102.616C1302.89 101.416 1303.21 99.9619 1303.36 98.9547C1303.54 97.8157 1303.6 96.4864 1303.6 95.04H1295.6C1295.6 96.3136 1295.54 97.1843 1295.46 97.7453C1295.41 98.0204 1295.38 98.1448 1295.37 98.1644C1295.36 98.1972 1295.42 97.991 1295.64 97.7042L1301.96 102.616ZM1303.6 95.04C1303.6 90.837 1303.45 84.5685 1300.26 77.8098L1293.02 81.2302C1295.43 86.3115 1295.6 91.083 1295.6 95.04H1303.6ZM1300.57 80.2504C1301.64 74.5243 1302.93 65.2218 1303.66 58.6817L1295.7 57.7983C1294.99 64.2181 1293.72 73.3157 1292.71 78.7896L1300.57 80.2504ZM1299.68 54.24H1296V62.24H1299.68V54.24ZM1292 58.24V100.88H1300V58.24H1292ZM1301.46 52.1178L1308.5 56.1178L1312.46 49.1622L1305.42 45.1622L1301.46 52.1178ZM1306.55 51.9075C1305.02 60.0931 1302.88 71.2594 1301.31 77.6922L1309.09 79.5878C1310.72 72.9006 1312.9 61.5069 1314.41 53.3725L1306.55 51.9075ZM1301.6 80.3778C1304.51 86.4105 1304.96 91.8081 1304.96 96.8H1312.96C1312.96 91.2319 1312.45 84.4695 1308.8 76.9022L1301.6 80.3778ZM1304.96 96.8C1304.96 102.771 1303.86 104.65 1303.05 105.318L1308.15 111.482C1311.98 108.31 1312.96 102.989 1312.96 96.8H1304.96ZM1303 105.363C1302.59 105.71 1301.89 106.066 1300.61 106.311L1302.11 114.169C1304.19 113.774 1306.37 113.01 1308.2 111.437L1303 105.363ZM1300.75 106.287C1299.98 106.406 1298.99 106.48 1297.52 106.48V114.48C1299.25 114.48 1300.66 114.394 1301.97 114.193L1300.75 106.287ZM1301.52 110.48C1301.52 107.741 1301.1 103.475 1299.7 100.077L1292.3 103.123C1293.14 105.165 1293.52 108.259 1293.52 110.48H1301.52ZM1292 101.6V121.68H1300V101.6H1292ZM1296 117.68H1286.56V125.68H1296V117.68ZM1290.56 121.68V48.96H1282.56V121.68H1290.56ZM1286.56 52.96H1302.08V44.96H1286.56V52.96ZM1303 52.8537L1304.36 52.5337L1302.52 44.7463L1301.16 45.0663L1303 52.8537ZM1323.68 92.4L1319.73 93.0159L1323.68 96.4V92.4ZM1321.2 67.2L1318.49 70.1461L1324.03 70.0284L1321.2 67.2ZM1313.36 60L1310.35 57.3694L1310.65 62.9461L1313.36 60ZM1336.08 92.4V96.4L1340.06 92.008L1336.08 92.4ZM1327.63 91.7841C1326.95 87.3929 1328.83 84.2113 1331.69 80.8238C1332.93 79.3578 1334.92 77.2621 1336.18 75.6089C1337.53 73.8337 1339.04 71.3965 1339.04 68.4H1331.04C1331.04 68.6835 1330.89 69.3463 1329.81 70.7611C1328.64 72.2979 1327.43 73.4822 1325.59 75.6562C1322.29 79.5487 1318.49 85.0871 1319.73 93.0159L1327.63 91.7841ZM1339.04 68.4C1339.04 65.6322 1338.03 63.1389 1336.02 61.3879C1334.09 59.7018 1331.63 59.04 1329.28 59.04V67.04C1330.21 67.04 1330.63 67.2982 1330.76 67.4121C1330.82 67.4667 1330.87 67.5326 1330.92 67.6424C1330.97 67.7586 1331.04 67.9929 1331.04 68.4H1339.04ZM1329.28 59.04C1324.35 59.04 1321.05 61.6955 1318.37 64.3716L1324.03 70.0284C1326.31 67.7445 1327.65 67.04 1329.28 67.04V59.04ZM1323.91 64.2539L1316.07 57.0539L1310.65 62.9461L1318.49 70.1461L1323.91 64.2539ZM1316.37 62.6306C1320.15 58.3096 1325.18 55.6 1331.04 55.6V47.6C1322.5 47.6 1315.37 51.6104 1310.35 57.3694L1316.37 62.6306ZM1331.04 55.6C1335.43 55.6 1338.85 56.6533 1341.09 58.461C1343.19 60.1597 1344.72 62.8981 1344.72 67.44H1352.72C1352.72 60.8619 1350.37 55.6803 1346.11 52.239C1341.99 48.9067 1336.57 47.6 1331.04 47.6V55.6ZM1344.72 67.44C1344.72 71.1931 1342.55 73.6831 1339.08 77.4028C1335.97 80.7458 1331.38 85.4756 1332.1 92.792L1340.06 92.008C1339.74 88.7644 1341.47 86.5742 1344.94 82.8572C1348.05 79.5169 1352.72 74.8069 1352.72 67.44H1344.72ZM1336.08 88.4H1323.68V96.4H1336.08V88.4ZM1329.84 111.12C1327.33 111.12 1325.36 109.238 1325.36 106.24H1317.36C1317.36 113.162 1322.43 119.12 1329.84 119.12V111.12ZM1325.36 106.24C1325.36 103.346 1327.31 101.44 1329.84 101.44V93.44C1322.45 93.44 1317.36 99.3736 1317.36 106.24H1325.36ZM1329.84 101.44C1332.32 101.44 1334.32 103.372 1334.32 106.24H1342.32C1342.32 99.3479 1337.12 93.44 1329.84 93.44V101.44ZM1334.32 106.24C1334.32 109.212 1332.3 111.12 1329.84 111.12V119.12C1337.14 119.12 1342.32 113.188 1342.32 106.24H1334.32Z" fill="#00503F" mask="url(#path-7-outside-3_188_9809)"/>
<path d="M1389 114L1378.12 54.48H1392.76L1396.52 81.6L1398.92 100.48H1399.24C1400.36 94.16 1401.56 87.76 1402.76 81.6L1408.84 54.48H1420.84L1427.08 81.6C1428.28 87.68 1429.32 94.08 1430.52 100.48H1430.92C1431.64 94.08 1432.44 87.76 1433.16 81.6L1437 54.48H1450.6L1440.28 114H1422.28L1416.92 88.08C1415.96 83.52 1415.16 78.72 1414.6 74.24H1414.2C1413.48 78.72 1412.76 83.52 1411.88 88.08L1406.68 114H1389ZM1455.45 114V54.48H1469.77V77.12H1489.37V54.48H1503.53V114H1489.37V89.52H1469.77V114H1455.45ZM1514.2 114V54.48H1551.96V66.32H1528.52V77.36H1548.44V89.36H1528.52V102H1552.84V114H1514.2ZM1575.71 65.76V81.76H1582.11C1588.91 81.76 1592.51 78.8 1592.51 73.2C1592.51 67.6 1588.91 65.76 1582.11 65.76H1575.71ZM1609.55 114H1593.55L1582.59 93.04H1575.71V114H1561.39V54.48H1583.23C1595.95 54.48 1606.51 58.8 1606.51 73.2C1606.51 81.92 1602.43 87.52 1596.27 90.4L1609.55 114ZM1614.83 114V54.48H1652.59V66.32H1629.15V77.36H1649.07V89.36H1629.15V102H1653.47V114H1614.83ZM1669.22 92.4C1667.3 80.08 1680.58 74.96 1680.58 68.4C1680.58 64.88 1678.1 63.04 1674.82 63.04C1671.54 63.04 1669.22 64.72 1666.74 67.2L1658.9 60C1663.3 54.96 1669.38 51.6 1676.58 51.6C1686.5 51.6 1694.26 56.32 1694.26 67.44C1694.26 78.56 1680.58 81.84 1681.62 92.4H1669.22ZM1675.38 115.12C1670.42 115.12 1666.9 111.2 1666.9 106.24C1666.9 101.36 1670.42 97.44 1675.38 97.44C1680.26 97.44 1683.86 101.36 1683.86 106.24C1683.86 111.2 1680.26 115.12 1675.38 115.12Z" fill="#00503F"/>
<mask id="path-10-outside-4_188_9809" maskUnits="userSpaceOnUse" x="1725" y="40" width="538" height="86" fill="black">
<rect fill="white" x="1725" y="40" width="538" height="86"/>
<path d="M1798.92 75.68L1789.08 82.88C1788.12 81.2 1786.84 79.2 1785.32 77.2C1744.52 78.96 1738.2 79.12 1733.4 80.72C1732.84 78.48 1730.92 72.72 1729.56 69.6C1731.96 69.04 1733.72 67.6 1736.36 65.12C1739.08 62.64 1747.48 53.12 1752.52 43.68L1764.28 48.72C1759.72 55.36 1754.12 61.92 1748.44 67.52L1776.84 66.8C1774.12 63.68 1771.4 60.72 1768.84 58.08L1777.88 52C1784.92 58.96 1794.6 68.88 1798.92 75.68ZM1778.36 96.4H1747V106.4H1778.36V96.4ZM1735.08 121.52V85.28H1790.92V121.52H1778.36V117.6H1747V121.52H1735.08ZM1833.56 97.76L1837.16 96.56L1839.24 107.04C1827.96 111.76 1815.72 116.64 1806.04 120.32L1800.84 108.32C1806.12 106.88 1813.48 104.48 1821.4 101.92V75.44H1803.88V63.84H1821.4V46.8H1833.56V97.76ZM1857.24 108.24H1863C1865.64 108.24 1866.12 104.64 1866.6 90.72C1869.4 92.96 1874.6 95.36 1877.72 96.08C1876.76 112.88 1874.04 119.6 1864.28 119.6H1855.32C1845.4 119.6 1842.44 115.68 1842.44 102.96V46.88H1854.6V63.68H1874.76V75.28H1854.6V103.04C1854.6 107.6 1854.84 108.24 1857.24 108.24ZM1953.88 67.36H1922.36V75.2H1948.28V101.76C1948.28 107.12 1947.16 110.32 1943.48 112.08C1939.72 113.84 1935.08 114 1929.16 114C1928.68 110.64 1926.92 105.68 1925.32 102.56C1928.52 102.8 1933.24 102.8 1934.36 102.8C1935.64 102.8 1936.12 102.48 1936.12 101.52V86.56H1922.36V121.04H1910.2V86.56H1897.64V113.84H1885.88V75.2H1910.2V67.36H1879.64V56H1910.84C1909.8 53.36 1908.44 50.48 1907.4 48.08L1919 44.56C1920.84 48.08 1923.24 52.72 1924.6 56H1953.88V67.36ZM1999.4 85.68H2014.84V70.72H1999.4V85.68ZM1971.72 85.68H1987.08V70.72H1971.72V85.68ZM1999.4 59.28H2027.08V100.88H2014.84V97.12H1999.4V121.6H1987.08V97.12H1971.72V101.28H1960.04V59.28H1987.08V45.6H1999.4V59.28ZM2091.72 62.88H2103.88V121.6H2091.72V116H2037V63.28H2049V104H2063.96V46.08H2076.28V104H2091.72V62.88ZM2145.88 47.52H2166.52C2169.8 57.92 2176.76 68.8 2186.84 74.72C2184.2 77.36 2179.96 83.04 2178.04 86.72C2168.84 79.6 2161.96 69.36 2157.56 59.52H2145.88V47.52ZM2129.56 47.12L2142.68 51.36C2136.68 64.48 2127 78.64 2118.44 87.12C2116.2 84.48 2111 79.36 2108.04 77.04C2116.36 70.08 2124.76 58.4 2129.56 47.12ZM2153.72 92.64L2165.16 87.44C2171.64 96.4 2178.92 107.84 2182.84 115.52L2170.76 122C2169.72 119.68 2168.36 116.88 2166.68 113.92C2129.48 117.2 2123.4 117.6 2118.84 119.36C2118.12 116.88 2115.8 110.4 2114.12 106.88C2117.08 106.08 2119.08 104.24 2122.36 100.8C2125.8 97.44 2135.8 84.16 2141.8 71.12L2155.64 76.72C2149.88 86.8 2142.6 96.56 2135.16 104.64L2160.28 102.88C2158.04 99.36 2155.8 95.76 2153.72 92.64ZM2245.16 70.08V76.32H2201.88V70.08H2218.2V68.08H2205.24V62.08H2218.2V59.36H2228.68V62.08H2242.36V68.08H2228.68V70.08H2245.16ZM2239.96 89.76L2246.68 94.16C2244.92 95.52 2243 96.8 2241.16 97.92C2243.4 99.52 2245.48 101.12 2247 102.48L2239.64 106.72C2235.88 103.12 2227.96 97.28 2221.88 93.28L2228.76 89.6C2230.68 90.8 2232.84 92.24 2235.08 93.68C2236.92 92.4 2238.68 90.96 2239.96 89.76ZM2211.08 108.64H2247.16V58.8H2199.88V108.64H2210.28C2209.88 106.96 2208.76 104.4 2207.96 103.36C2209.16 102.8 2210.36 101.92 2210.36 98.88V97.76C2208.6 98.4 2206.92 98.96 2205.24 99.44C2204.12 97.92 2201.48 94.64 2199.88 93.2C2204.36 92.32 2209 90.96 2213 89.36H2205.48V78.08H2242.2V89.36H2226.12C2223.96 91.12 2221.32 92.8 2218.44 94.32V99.36L2227.32 97.52C2227.08 99.52 2227.08 102.64 2227.32 104.32C2216.28 106.88 2212.76 107.84 2211.08 108.64ZM2215 84.72H2232.12V82.72H2215V84.72ZM2189 48.4H2258.52V121.68H2247.16V119.04H2199.88V121.68H2189V48.4Z"/>
</mask>
<path d="M1798.92 75.68L1801.28 78.9081L1802.3 73.5351L1798.92 75.68ZM1789.08 82.88L1785.61 84.8646L1791.44 86.1081L1789.08 82.88ZM1785.32 77.2L1788.5 74.7797L1785.15 73.2037L1785.32 77.2ZM1733.4 80.72L1729.52 81.6901L1734.66 84.5147L1733.4 80.72ZM1729.56 69.6L1728.65 65.7046L1725.89 71.1983L1729.56 69.6ZM1736.36 65.12L1733.66 62.1642L1733.62 62.2046L1736.36 65.12ZM1752.52 43.68L1754.1 40.0034L1748.99 41.7961L1752.52 43.68ZM1764.28 48.72L1767.58 50.9844L1765.86 45.0434L1764.28 48.72ZM1748.44 67.52L1745.63 64.6716L1748.54 71.5187L1748.44 67.52ZM1776.84 66.8L1776.94 70.7987L1779.86 64.1715L1776.84 66.8ZM1768.84 58.08L1766.61 54.7609L1765.97 60.8646L1768.84 58.08ZM1777.88 52L1780.69 49.1555L1775.65 48.6809L1777.88 52ZM1778.36 96.4H1782.36L1778.36 92.4V96.4ZM1747 96.4V92.4L1743 96.4H1747ZM1747 106.4H1743L1747 110.4V106.4ZM1778.36 106.4V110.4L1782.36 106.4H1778.36ZM1735.08 121.52H1731.08L1735.08 125.52V121.52ZM1735.08 85.28V81.28L1731.08 85.28H1735.08ZM1790.92 85.28H1794.92L1790.92 81.28V85.28ZM1790.92 121.52V125.52L1794.92 121.52H1790.92ZM1778.36 121.52H1774.36L1778.36 125.52V121.52ZM1778.36 117.6H1782.36L1778.36 113.6V117.6ZM1747 117.6V113.6L1743 117.6H1747ZM1747 121.52V125.52L1751 121.52H1747ZM1796.56 72.4519L1786.72 79.6519L1791.44 86.1081L1801.28 78.9081L1796.56 72.4519ZM1792.55 80.8954C1791.52 79.082 1790.14 76.934 1788.5 74.7797L1782.14 79.6203C1783.54 81.466 1784.72 83.318 1785.61 84.8646L1792.55 80.8954ZM1785.15 73.2037C1764.78 74.0822 1752.94 74.5646 1745.61 75.028C1738.32 75.4881 1735.08 75.9444 1732.14 76.9253L1734.66 84.5147C1736.52 83.8956 1738.84 83.4719 1746.11 83.012C1753.34 82.5553 1765.06 82.0778 1785.49 81.1963L1785.15 73.2037ZM1737.28 79.7499C1736.67 77.2907 1734.67 71.3207 1733.23 68.0017L1725.89 71.1983C1727.17 74.1193 1729.01 79.6693 1729.52 81.6901L1737.28 79.7499ZM1730.47 73.4954C1734.03 72.6634 1736.5 70.4793 1739.1 68.0354L1733.62 62.2046C1730.94 64.7207 1729.89 65.4166 1728.65 65.7046L1730.47 73.4954ZM1739.06 68.0758C1742.07 65.3249 1750.77 55.451 1756.05 45.5639L1748.99 41.7961C1744.19 50.789 1736.09 59.9551 1733.66 62.1642L1739.06 68.0758ZM1750.94 47.3566L1762.7 52.3966L1765.86 45.0434L1754.1 40.0034L1750.94 47.3566ZM1760.98 46.4556C1756.58 52.8655 1751.15 59.2321 1745.63 64.6716L1751.25 70.3684C1757.09 64.6079 1762.86 57.8544 1767.58 50.9844L1760.98 46.4556ZM1748.54 71.5187L1776.94 70.7987L1776.74 62.8013L1748.34 63.5213L1748.54 71.5187ZM1779.86 64.1715C1777.09 61.0021 1774.32 57.9897 1771.71 55.2954L1765.97 60.8646C1768.48 63.4503 1771.15 66.3579 1773.82 69.4285L1779.86 64.1715ZM1771.07 61.3991L1780.11 55.3191L1775.65 48.6809L1766.61 54.7609L1771.07 61.3991ZM1775.07 54.8445C1782.2 61.8919 1791.51 71.4825 1795.54 77.8249L1802.3 73.5351C1797.69 66.2775 1787.64 56.0281 1780.69 49.1555L1775.07 54.8445ZM1778.36 92.4H1747V100.4H1778.36V92.4ZM1743 96.4V106.4H1751V96.4H1743ZM1747 110.4H1778.36V102.4H1747V110.4ZM1782.36 106.4V96.4H1774.36V106.4H1782.36ZM1739.08 121.52V85.28H1731.08V121.52H1739.08ZM1735.08 89.28H1790.92V81.28H1735.08V89.28ZM1786.92 85.28V121.52H1794.92V85.28H1786.92ZM1790.92 117.52H1778.36V125.52H1790.92V117.52ZM1782.36 121.52V117.6H1774.36V121.52H1782.36ZM1778.36 113.6H1747V121.6H1778.36V113.6ZM1743 117.6V121.52H1751V117.6H1743ZM1747 117.52H1735.08V125.52H1747V117.52ZM1833.56 97.76H1829.56L1834.82 101.555L1833.56 97.76ZM1837.16 96.56L1841.08 95.7813L1835.9 92.7653L1837.16 96.56ZM1839.24 107.04L1840.78 110.73L1843.16 106.261L1839.24 107.04ZM1806.04 120.32L1802.37 121.91L1807.46 124.059L1806.04 120.32ZM1800.84 108.32L1799.79 104.461L1797.17 109.91L1800.84 108.32ZM1821.4 101.92L1822.63 105.726L1825.4 101.92H1821.4ZM1821.4 75.44H1825.4L1821.4 71.44V75.44ZM1803.88 75.44H1799.88L1803.88 79.44V75.44ZM1803.88 63.84V59.84L1799.88 63.84H1803.88ZM1821.4 63.84V67.84L1825.4 63.84H1821.4ZM1821.4 46.8V42.8L1817.4 46.8H1821.4ZM1833.56 46.8H1837.56L1833.56 42.8V46.8ZM1866.6 90.72L1869.1 87.5965L1862.6 90.5821L1866.6 90.72ZM1877.72 96.08L1881.71 96.3082L1878.62 92.1824L1877.72 96.08ZM1842.44 46.88V42.88L1838.44 46.88H1842.44ZM1854.6 46.88H1858.6L1854.6 42.88V46.88ZM1854.6 63.68H1850.6L1854.6 67.68V63.68ZM1874.76 63.68H1878.76L1874.76 59.68V63.68ZM1874.76 75.28V79.28L1878.76 75.28H1874.76ZM1854.6 75.28V71.28L1850.6 75.28H1854.6ZM1834.82 101.555L1838.42 100.355L1835.9 92.7653L1832.3 93.9653L1834.82 101.555ZM1833.24 97.3387L1835.32 107.819L1843.16 106.261L1841.08 95.7813L1833.24 97.3387ZM1837.7 103.35C1826.45 108.054 1814.26 112.917 1804.62 116.581L1807.46 124.059C1817.18 120.363 1829.47 115.466 1840.78 110.73L1837.7 103.35ZM1809.71 118.73L1804.51 106.73L1797.17 109.91L1802.37 121.91L1809.71 118.73ZM1801.89 112.179C1807.29 110.708 1814.76 108.27 1822.63 105.726L1820.17 98.1139C1812.2 100.69 1804.95 103.052 1799.79 104.461L1801.89 112.179ZM1825.4 101.92V75.44H1817.4V101.92H1825.4ZM1821.4 71.44H1803.88V79.44H1821.4V71.44ZM1807.88 75.44V63.84H1799.88V75.44H1807.88ZM1803.88 67.84H1821.4V59.84H1803.88V67.84ZM1825.4 63.84V46.8H1817.4V63.84H1825.4ZM1821.4 50.8H1833.56V42.8H1821.4V50.8ZM1829.56 46.8V97.76H1837.56V46.8H1829.56ZM1857.24 112.24H1863V104.24H1857.24V112.24ZM1863 112.24C1864.79 112.24 1866.54 111.522 1867.79 109.887C1868.79 108.573 1869.25 106.931 1869.54 105.459C1870.12 102.444 1870.36 97.7103 1870.6 90.8578L1862.6 90.5821C1862.36 97.6497 1862.12 101.676 1861.68 103.941C1861.46 105.109 1861.27 105.237 1861.43 105.033C1861.83 104.508 1862.53 104.24 1863 104.24V112.24ZM1864.1 93.8435C1865.83 95.2288 1868.13 96.5418 1870.32 97.5824C1872.51 98.6233 1874.88 99.5294 1876.82 99.9776L1878.62 92.1824C1877.44 91.9106 1875.65 91.2567 1873.76 90.3576C1871.87 89.4582 1870.17 88.4512 1869.1 87.5965L1864.1 93.8435ZM1873.73 95.8518C1873.24 104.298 1872.33 109.344 1870.77 112.255C1870.07 113.575 1869.3 114.314 1868.45 114.773C1867.57 115.255 1866.28 115.6 1864.28 115.6V123.6C1867.16 123.6 1869.87 123.105 1872.27 121.802C1874.71 120.476 1876.51 118.485 1877.83 116.025C1880.31 111.376 1881.24 104.662 1881.71 96.3082L1873.73 95.8518ZM1864.28 115.6H1855.32V123.6H1864.28V115.6ZM1855.32 115.6C1850.72 115.6 1849.14 114.664 1848.33 113.609C1847.25 112.207 1846.44 109.309 1846.44 102.96H1838.44C1838.44 109.331 1839.11 114.753 1841.99 118.491C1845.14 122.576 1850 123.6 1855.32 123.6V115.6ZM1846.44 102.96V46.88H1838.44V102.96H1846.44ZM1842.44 50.88H1854.6V42.88H1842.44V50.88ZM1850.6 46.88V63.68H1858.6V46.88H1850.6ZM1854.6 67.68H1874.76V59.68H1854.6V67.68ZM1870.76 63.68V75.28H1878.76V63.68H1870.76ZM1874.76 71.28H1854.6V79.28H1874.76V71.28ZM1850.6 75.28V103.04H1858.6V75.28H1850.6ZM1850.6 103.04C1850.6 104.178 1850.61 105.227 1850.69 106.117C1850.76 106.948 1850.91 108.066 1851.43 109.119C1852.07 110.409 1853.12 111.343 1854.44 111.827C1855.51 112.215 1856.58 112.24 1857.24 112.24V104.24C1857.02 104.24 1856.91 104.232 1856.88 104.228C1856.85 104.225 1856.98 104.235 1857.19 104.311C1857.42 104.395 1857.72 104.55 1858.02 104.819C1858.32 105.087 1858.5 105.37 1858.61 105.581C1858.7 105.773 1858.72 105.886 1858.71 105.844C1858.7 105.803 1858.68 105.681 1858.66 105.435C1858.62 104.923 1858.6 104.182 1858.6 103.04H1850.6ZM1953.88 67.36V71.36L1957.88 67.36H1953.88ZM1922.36 67.36V63.36L1918.36 67.36H1922.36ZM1922.36 75.2H1918.36L1922.36 79.2V75.2ZM1948.28 75.2H1952.28L1948.28 71.2V75.2ZM1943.48 112.08L1945.18 115.703L1945.21 115.689L1943.48 112.08ZM1929.16 114L1925.2 114.566L1929.16 118V114ZM1925.32 102.56L1925.62 98.5712L1921.76 104.385L1925.32 102.56ZM1936.12 86.56H1940.12L1936.12 82.56V86.56ZM1922.36 86.56V82.56L1918.36 86.56H1922.36ZM1922.36 121.04V125.04L1926.36 121.04H1922.36ZM1910.2 121.04H1906.2L1910.2 125.04V121.04ZM1910.2 86.56H1914.2L1910.2 82.56V86.56ZM1897.64 86.56V82.56L1893.64 86.56H1897.64ZM1897.64 113.84V117.84L1901.64 113.84H1897.64ZM1885.88 113.84H1881.88L1885.88 117.84V113.84ZM1885.88 75.2V71.2L1881.88 75.2H1885.88ZM1910.2 75.2V79.2L1914.2 75.2H1910.2ZM1910.2 67.36H1914.2L1910.2 63.36V67.36ZM1879.64 67.36H1875.64L1879.64 71.36V67.36ZM1879.64 56V52L1875.64 56H1879.64ZM1910.84 56V60L1914.56 54.5339L1910.84 56ZM1907.4 48.08L1906.24 44.2523L1903.73 49.6704L1907.4 48.08ZM1919 44.56L1922.54 42.707L1917.84 40.7323L1919 44.56ZM1924.6 56L1920.91 57.5321L1924.6 60V56ZM1953.88 56H1957.88L1953.88 52V56ZM1953.88 63.36H1922.36V71.36H1953.88V63.36ZM1918.36 67.36V75.2H1926.36V67.36H1918.36ZM1922.36 79.2H1948.28V71.2H1922.36V79.2ZM1944.28 75.2V101.76H1952.28V75.2H1944.28ZM1944.28 101.76C1944.28 104.242 1944.01 105.728 1943.6 106.666C1943.26 107.427 1942.78 107.981 1941.75 108.471L1945.21 115.689C1947.86 114.419 1949.78 112.493 1950.92 109.874C1951.99 107.432 1952.28 104.638 1952.28 101.76H1944.28ZM1941.78 108.457C1938.96 109.778 1935.24 110 1929.16 110V118C1934.92 118 1940.48 117.902 1945.18 115.703L1941.78 108.457ZM1933.12 113.434C1932.56 109.529 1930.63 104.141 1928.88 100.735L1921.76 104.385C1923.21 107.219 1924.8 111.751 1925.2 114.566L1933.12 113.434ZM1925.02 106.549C1928.4 106.802 1933.28 106.8 1934.36 106.8V98.8C1933.2 98.8 1928.64 98.7979 1925.62 98.5712L1925.02 106.549ZM1934.36 106.8C1935.09 106.8 1936.66 106.761 1938.04 105.775C1939.82 104.51 1940.12 102.635 1940.12 101.52H1932.12C1932.12 101.457 1932.12 101.115 1932.3 100.659C1932.51 100.136 1932.88 99.6327 1933.4 99.2651C1933.86 98.9362 1934.26 98.8391 1934.39 98.8127C1934.52 98.7867 1934.54 98.8 1934.36 98.8V106.8ZM1940.12 101.52V86.56H1932.12V101.52H1940.12ZM1936.12 82.56H1922.36V90.56H1936.12V82.56ZM1918.36 86.56V121.04H1926.36V86.56H1918.36ZM1922.36 117.04H1910.2V125.04H1922.36V117.04ZM1914.2 121.04V86.56H1906.2V121.04H1914.2ZM1910.2 82.56H1897.64V90.56H1910.2V82.56ZM1893.64 86.56V113.84H1901.64V86.56H1893.64ZM1897.64 109.84H1885.88V117.84H1897.64V109.84ZM1889.88 113.84V75.2H1881.88V113.84H1889.88ZM1885.88 79.2H1910.2V71.2H1885.88V79.2ZM1914.2 75.2V67.36H1906.2V75.2H1914.2ZM1910.2 63.36H1879.64V71.36H1910.2V63.36ZM1883.64 67.36V56H1875.64V67.36H1883.64ZM1879.64 60H1910.84V52H1879.64V60ZM1914.56 54.5339C1913.49 51.8232 1912.03 48.7035 1911.07 46.4896L1903.73 49.6704C1904.85 52.2565 1906.11 54.8968 1907.12 57.4661L1914.56 54.5339ZM1908.56 51.9076L1920.16 48.3877L1917.84 40.7323L1906.24 44.2523L1908.56 51.9076ZM1915.46 46.413C1917.32 49.9747 1919.63 54.4482 1920.91 57.5321L1928.29 54.4679C1926.85 50.9918 1924.36 46.1853 1922.54 42.707L1915.46 46.413ZM1924.6 60H1953.88V52H1924.6V60ZM1949.88 56V67.36H1957.88V56H1949.88ZM1999.4 85.68H1995.4L1999.4 89.68V85.68ZM2014.84 85.68V89.68L2018.84 85.68H2014.84ZM2014.84 70.72H2018.84L2014.84 66.72V70.72ZM1999.4 70.72V66.72L1995.4 70.72H1999.4ZM1971.72 85.68H1967.72L1971.72 89.68V85.68ZM1987.08 85.68V89.68L1991.08 85.68H1987.08ZM1987.08 70.72H1991.08L1987.08 66.72V70.72ZM1971.72 70.72V66.72L1967.72 70.72H1971.72ZM1999.4 59.28H1995.4L1999.4 63.28V59.28ZM2027.08 59.28H2031.08L2027.08 55.28V59.28ZM2027.08 100.88V104.88L2031.08 100.88H2027.08ZM2014.84 100.88H2010.84L2014.84 104.88V100.88ZM2014.84 97.12H2018.84L2014.84 93.12V97.12ZM1999.4 97.12V93.12L1995.4 97.12H1999.4ZM1999.4 121.6V125.6L2003.4 121.6H1999.4ZM1987.08 121.6H1983.08L1987.08 125.6V121.6ZM1987.08 97.12H1991.08L1987.08 93.12V97.12ZM1971.72 97.12V93.12L1967.72 97.12H1971.72ZM1971.72 101.28V105.28L1975.72 101.28H1971.72ZM1960.04 101.28H1956.04L1960.04 105.28V101.28ZM1960.04 59.28V55.28L1956.04 59.28H1960.04ZM1987.08 59.28V63.28L1991.08 59.28H1987.08ZM1987.08 45.6V41.6L1983.08 45.6H1987.08ZM1999.4 45.6H2003.4L1999.4 41.6V45.6ZM1999.4 89.68H2014.84V81.68H1999.4V89.68ZM2018.84 85.68V70.72H2010.84V85.68H2018.84ZM2014.84 66.72H1999.4V74.72H2014.84V66.72ZM1995.4 70.72V85.68H2003.4V70.72H1995.4ZM1971.72 89.68H1987.08V81.68H1971.72V89.68ZM1991.08 85.68V70.72H1983.08V85.68H1991.08ZM1987.08 66.72H1971.72V74.72H1987.08V66.72ZM1967.72 70.72V85.68H1975.72V70.72H1967.72ZM1999.4 63.28H2027.08V55.28H1999.4V63.28ZM2023.08 59.28V100.88H2031.08V59.28H2023.08ZM2027.08 96.88H2014.84V104.88H2027.08V96.88ZM2018.84 100.88V97.12H2010.84V100.88H2018.84ZM2014.84 93.12H1999.4V101.12H2014.84V93.12ZM1995.4 97.12V121.6H2003.4V97.12H1995.4ZM1999.4 117.6H1987.08V125.6H1999.4V117.6ZM1991.08 121.6V97.12H1983.08V121.6H1991.08ZM1987.08 93.12H1971.72V101.12H1987.08V93.12ZM1967.72 97.12V101.28H1975.72V97.12H1967.72ZM1971.72 97.28H1960.04V105.28H1971.72V97.28ZM1964.04 101.28V59.28H1956.04V101.28H1964.04ZM1960.04 63.28H1987.08V55.28H1960.04V63.28ZM1991.08 59.28V45.6H1983.08V59.28H1991.08ZM1987.08 49.6H1999.4V41.6H1987.08V49.6ZM1995.4 45.6V59.28H2003.4V45.6H1995.4ZM2091.72 62.88V58.88L2087.72 62.88H2091.72ZM2103.88 62.88H2107.88L2103.88 58.88V62.88ZM2103.88 121.6V125.6L2107.88 121.6H2103.88ZM2091.72 121.6H2087.72L2091.72 125.6V121.6ZM2091.72 116H2095.72L2091.72 112V116ZM2037 116H2033L2037 120V116ZM2037 63.28V59.28L2033 63.28H2037ZM2049 63.28H2053L2049 59.28V63.28ZM2049 104H2045L2049 108V104ZM2063.96 104V108L2067.96 104H2063.96ZM2063.96 46.08V42.08L2059.96 46.08H2063.96ZM2076.28 46.08H2080.28L2076.28 42.08V46.08ZM2076.28 104H2072.28L2076.28 108V104ZM2091.72 104V108L2095.72 104H2091.72ZM2091.72 66.88H2103.88V58.88H2091.72V66.88ZM2099.88 62.88V121.6H2107.88V62.88H2099.88ZM2103.88 117.6H2091.72V125.6H2103.88V117.6ZM2095.72 121.6V116H2087.72V121.6H2095.72ZM2091.72 112H2037V120H2091.72V112ZM2041 116V63.28H2033V116H2041ZM2037 67.28H2049V59.28H2037V67.28ZM2045 63.28V104H2053V63.28H2045ZM2049 108H2063.96V100H2049V108ZM2067.96 104V46.08H2059.96V104H2067.96ZM2063.96 50.08H2076.28V42.08H2063.96V50.08ZM2072.28 46.08V104H2080.28V46.08H2072.28ZM2076.28 108H2091.72V100H2076.28V108ZM2095.72 104V62.88H2087.72V104H2095.72ZM2145.88 47.52V43.52L2141.88 47.52H2145.88ZM2166.52 47.52L2170.33 46.3169L2166.52 43.52V47.52ZM2186.84 74.72L2189.67 77.5484L2188.87 71.2709L2186.84 74.72ZM2178.04 86.72L2175.59 89.8833L2181.59 88.5703L2178.04 86.72ZM2157.56 59.52L2161.21 57.8872L2157.56 55.52V59.52ZM2145.88 59.52H2141.88L2145.88 63.52V59.52ZM2129.56 47.12L2130.79 43.3138L2125.88 45.5538L2129.56 47.12ZM2142.68 51.36L2146.32 53.0236L2143.91 47.5538L2142.68 51.36ZM2118.44 87.12L2115.39 89.7079L2121.26 89.9617L2118.44 87.12ZM2108.04 77.04L2105.47 73.972L2105.57 80.1882L2108.04 77.04ZM2153.72 92.64L2152.06 88.9985L2150.39 94.8588L2153.72 92.64ZM2165.16 87.44L2168.4 85.0959L2163.5 83.7985L2165.16 87.44ZM2182.84 115.52L2184.73 119.045L2186.4 113.702L2182.84 115.52ZM2170.76 122L2167.11 123.636L2172.65 125.525L2170.76 122ZM2166.68 113.92L2170.16 111.946L2166.33 109.935L2166.68 113.92ZM2118.84 119.36L2115 120.475L2120.28 123.092L2118.84 119.36ZM2114.12 106.88L2113.08 103.019L2110.51 108.603L2114.12 106.88ZM2122.36 100.8L2119.57 97.9385L2119.47 98.0397L2122.36 100.8ZM2141.8 71.12L2143.3 67.412L2138.17 69.448L2141.8 71.12ZM2155.64 76.72L2159.11 78.7046L2157.14 73.012L2155.64 76.72ZM2135.16 104.64L2132.22 101.931L2135.44 108.63L2135.16 104.64ZM2160.28 102.88L2160.56 106.87L2163.65 100.732L2160.28 102.88ZM2145.88 51.52H2166.52V43.52H2145.88V51.52ZM2162.71 48.7231C2166.19 59.7712 2173.65 71.61 2184.81 78.1691L2188.87 71.2709C2179.87 65.99 2173.41 56.0688 2170.33 46.3169L2162.71 48.7231ZM2184.01 71.8916C2181.09 74.8102 2176.61 80.8179 2174.49 84.8697L2181.59 88.5703C2183.31 85.2621 2187.31 79.9098 2189.67 77.5484L2184.01 71.8916ZM2180.49 83.5567C2171.95 76.9502 2165.43 67.315 2161.21 57.8872L2153.91 61.1528C2158.49 71.405 2165.73 82.2498 2175.59 89.8833L2180.49 83.5567ZM2157.56 55.52H2145.88V63.52H2157.56V55.52ZM2149.88 59.52V47.52H2141.88V59.52H2149.88ZM2128.33 50.9262L2141.45 55.1662L2143.91 47.5538L2130.79 43.3138L2128.33 50.9262ZM2139.04 49.6964C2133.21 62.442 2123.79 76.1849 2115.62 84.2783L2121.26 89.9617C2130.21 81.0951 2140.15 66.518 2146.32 53.0236L2139.04 49.6964ZM2121.49 84.5321C2119.1 81.7133 2113.71 76.399 2110.51 73.8918L2105.57 80.1882C2108.29 82.321 2113.3 87.2467 2115.39 89.7079L2121.49 84.5321ZM2110.61 80.108C2119.47 72.6922 2128.23 60.4712 2133.24 48.6862L2125.88 45.5538C2121.29 56.3288 2113.25 67.4678 2105.47 73.972L2110.61 80.108ZM2155.38 96.2815L2166.82 91.0815L2163.5 83.7985L2152.06 88.9985L2155.38 96.2815ZM2161.92 89.7841C2168.33 98.645 2175.48 109.903 2179.28 117.338L2186.4 113.702C2182.36 105.777 2174.95 94.155 2168.4 85.0959L2161.92 89.7841ZM2180.95 111.995L2168.87 118.475L2172.65 125.525L2184.73 119.045L2180.95 111.995ZM2174.41 120.364C2173.33 117.955 2171.91 115.038 2170.16 111.946L2163.2 115.894C2164.81 118.722 2166.11 121.405 2167.11 123.636L2174.41 120.364ZM2166.33 109.935C2147.77 111.572 2136.88 112.498 2130.09 113.233C2123.34 113.964 2120.22 114.542 2117.4 115.628L2120.28 123.092C2122.02 122.418 2124.22 121.916 2130.95 121.187C2137.64 120.462 2148.39 119.548 2167.03 117.905L2166.33 109.935ZM2122.68 118.245C2121.91 115.602 2119.52 108.911 2117.73 105.157L2110.51 108.603C2112.08 111.889 2114.33 118.158 2115 120.475L2122.68 118.245ZM2115.16 110.741C2119.34 109.613 2122.04 106.937 2125.25 103.56L2119.47 98.0397C2116.12 101.543 2114.82 102.547 2113.08 103.019L2115.16 110.741ZM2125.15 103.662C2127.16 101.7 2130.7 97.2773 2134.42 91.8512C2138.18 86.3618 2142.31 79.5802 2145.43 72.792L2138.17 69.448C2135.29 75.6998 2131.42 82.0782 2127.82 87.3288C2124.18 92.6427 2121 96.54 2119.57 97.9385L2125.15 103.662ZM2140.3 74.828L2154.14 80.428L2157.14 73.012L2143.3 67.412L2140.3 74.828ZM2152.17 74.7354C2146.56 84.5395 2139.47 94.0583 2132.22 101.931L2138.1 107.349C2145.73 99.0617 2153.2 89.0605 2159.11 78.7046L2152.17 74.7354ZM2135.44 108.63L2160.56 106.87L2160 98.8898L2134.88 100.65L2135.44 108.63ZM2163.65 100.732C2161.45 97.2638 2159.16 93.5884 2157.05 90.4212L2150.39 94.8588C2152.44 97.9316 2154.63 101.456 2156.91 105.028L2163.65 100.732ZM2245.16 70.08H2249.16L2245.16 66.08V70.08ZM2245.16 76.32V80.32L2249.16 76.32H2245.16ZM2201.88 76.32H2197.88L2201.88 80.32V76.32ZM2201.88 70.08V66.08L2197.88 70.08H2201.88ZM2218.2 70.08V74.08L2222.2 70.08H2218.2ZM2218.2 68.08H2222.2L2218.2 64.08V68.08ZM2205.24 68.08H2201.24L2205.24 72.08V68.08ZM2205.24 62.08V58.08L2201.24 62.08H2205.24ZM2218.2 62.08V66.08L2222.2 62.08H2218.2ZM2218.2 59.36V55.36L2214.2 59.36H2218.2ZM2228.68 59.36H2232.68L2228.68 55.36V59.36ZM2228.68 62.08H2224.68L2228.68 66.08V62.08ZM2242.36 62.08H2246.36L2242.36 58.08V62.08ZM2242.36 68.08V72.08L2246.36 68.08H2242.36ZM2228.68 68.08V64.08L2224.68 68.08H2228.68ZM2228.68 70.08H2224.68L2228.68 74.08V70.08ZM2239.96 89.76L2242.15 86.4135L2237.22 86.8419L2239.96 89.76ZM2246.68 94.16L2249.13 97.3251L2248.87 90.8135L2246.68 94.16ZM2241.16 97.92L2239.08 94.5032L2238.84 101.175L2241.16 97.92ZM2247 102.48L2249 105.946L2249.67 99.499L2247 102.48ZM2239.64 106.72L2236.87 109.609L2241.64 110.186L2239.64 106.72ZM2221.88 93.28L2219.99 89.7529L2219.68 96.6217L2221.88 93.28ZM2228.76 89.6L2230.88 86.208L2226.87 86.0729L2228.76 89.6ZM2235.08 93.68L2232.92 97.0447L2237.36 96.9636L2235.08 93.68ZM2211.08 108.64L2209.36 105.029L2211.08 112.64V108.64ZM2247.16 108.64V112.64L2251.16 108.64H2247.16ZM2247.16 58.8H2251.16L2247.16 54.8V58.8ZM2199.88 58.8V54.8L2195.88 58.8H2199.88ZM2199.88 108.64H2195.88L2199.88 112.64V108.64ZM2210.28 108.64V112.64L2214.17 107.714L2210.28 108.64ZM2207.96 103.36L2206.27 99.7353L2204.79 105.799L2207.96 103.36ZM2210.36 97.76H2214.36L2208.99 94.0008L2210.36 97.76ZM2205.24 99.44L2202.02 101.813L2206.34 103.286L2205.24 99.44ZM2199.88 93.2L2199.11 89.275L2197.2 96.1732L2199.88 93.2ZM2213 89.36L2214.49 93.0739L2213 85.36V89.36ZM2205.48 89.36H2201.48L2205.48 93.36V89.36ZM2205.48 78.08V74.08L2201.48 78.08H2205.48ZM2242.2 78.08H2246.2L2242.2 74.08V78.08ZM2242.2 89.36V93.36L2246.2 89.36H2242.2ZM2226.12 89.36V85.36L2223.59 86.2591L2226.12 89.36ZM2218.44 94.32L2216.57 90.7825L2214.44 94.32H2218.44ZM2218.44 99.36H2214.44L2219.25 103.277L2218.44 99.36ZM2227.32 97.52L2231.29 97.9966L2226.51 93.6032L2227.32 97.52ZM2227.32 104.32L2228.22 108.217L2231.28 103.754L2227.32 104.32ZM2215 84.72H2211L2215 88.72V84.72ZM2232.12 84.72V88.72L2236.12 84.72H2232.12ZM2232.12 82.72H2236.12L2232.12 78.72V82.72ZM2215 82.72V78.72L2211 82.72H2215ZM2189 48.4V44.4L2185 48.4H2189ZM2258.52 48.4H2262.52L2258.52 44.4V48.4ZM2258.52 121.68V125.68L2262.52 121.68H2258.52ZM2247.16 121.68H2243.16L2247.16 125.68V121.68ZM2247.16 119.04H2251.16L2247.16 115.04V119.04ZM2199.88 119.04V115.04L2195.88 119.04H2199.88ZM2199.88 121.68V125.68L2203.88 121.68H2199.88ZM2189 121.68H2185L2189 125.68V121.68ZM2241.16 70.08V76.32H2249.16V70.08H2241.16ZM2245.16 72.32H2201.88V80.32H2245.16V72.32ZM2205.88 76.32V70.08H2197.88V76.32H2205.88ZM2201.88 74.08H2218.2V66.08H2201.88V74.08ZM2222.2 70.08V68.08H2214.2V70.08H2222.2ZM2218.2 64.08H2205.24V72.08H2218.2V64.08ZM2209.24 68.08V62.08H2201.24V68.08H2209.24ZM2205.24 66.08H2218.2V58.08H2205.24V66.08ZM2222.2 62.08V59.36H2214.2V62.08H2222.2ZM2218.2 63.36H2228.68V55.36H2218.2V63.36ZM2224.68 59.36V62.08H2232.68V59.36H2224.68ZM2228.68 66.08H2242.36V58.08H2228.68V66.08ZM2238.36 62.08V68.08H2246.36V62.08H2238.36ZM2242.36 64.08H2228.68V72.08H2242.36V64.08ZM2224.68 68.08V70.08H2232.68V68.08H2224.68ZM2228.68 74.08H2245.16V66.08H2228.68V74.08ZM2237.77 93.1065L2244.49 97.5065L2248.87 90.8135L2242.15 86.4135L2237.77 93.1065ZM2244.23 90.9949C2242.62 92.243 2240.83 93.4398 2239.08 94.5032L2243.24 101.337C2245.17 100.16 2247.22 98.797 2249.13 97.3251L2244.23 90.9949ZM2238.84 101.175C2241.02 102.739 2242.97 104.242 2244.33 105.461L2249.67 99.499C2247.99 97.9979 2245.78 96.3009 2243.48 94.6651L2238.84 101.175ZM2245 99.014L2237.64 103.254L2241.64 110.186L2249 105.946L2245 99.014ZM2242.41 103.831C2238.38 99.9733 2230.21 93.9735 2224.08 89.9383L2219.68 96.6217C2225.71 100.586 2233.38 106.267 2236.87 109.609L2242.41 103.831ZM2223.77 96.8071L2230.65 93.1271L2226.87 86.0729L2219.99 89.7529L2223.77 96.8071ZM2226.64 92.992C2228.54 94.1812 2230.59 95.5461 2232.92 97.0447L2237.24 90.3153C2235.09 88.9339 2232.82 87.4188 2230.88 86.208L2226.64 92.992ZM2237.36 96.9636C2239.36 95.577 2241.27 94.0156 2242.7 92.6781L2237.22 86.8419C2236.09 87.9044 2234.48 89.223 2232.8 90.3964L2237.36 96.9636ZM2211.08 112.64H2247.16V104.64H2211.08V112.64ZM2251.16 108.64V58.8H2243.16V108.64H2251.16ZM2247.16 54.8H2199.88V62.8H2247.16V54.8ZM2195.88 58.8V108.64H2203.88V58.8H2195.88ZM2199.88 112.64H2210.28V104.64H2199.88V112.64ZM2214.17 107.714C2213.9 106.566 2213.42 105.27 2212.93 104.153C2212.47 103.09 2211.83 101.833 2211.13 100.921L2204.79 105.799C2204.79 105.797 2204.8 105.807 2204.81 105.832C2204.83 105.857 2204.85 105.891 2204.88 105.936C2204.94 106.027 2205.01 106.147 2205.09 106.295C2205.25 106.593 2205.43 106.961 2205.61 107.367C2205.98 108.21 2206.26 109.034 2206.39 109.566L2214.17 107.714ZM2209.65 106.985C2210.52 106.58 2211.89 105.834 2212.93 104.28C2213.96 102.747 2214.36 100.906 2214.36 98.88H2206.36C2206.36 99.8936 2206.16 100.013 2206.29 99.8198C2206.35 99.7314 2206.42 99.6676 2206.46 99.6393C2206.48 99.6238 2206.45 99.6528 2206.27 99.7353L2209.65 106.985ZM2214.36 98.88V97.76H2206.36V98.88H2214.36ZM2208.99 94.0008C2207.3 94.6178 2205.71 95.1461 2204.14 95.5939L2206.34 103.286C2208.13 102.774 2209.9 102.182 2211.73 101.519L2208.99 94.0008ZM2208.46 97.0672C2207.32 95.5216 2204.48 91.958 2202.56 90.2268L2197.2 96.1732C2198.48 97.322 2200.92 100.318 2202.02 101.813L2208.46 97.0672ZM2200.65 97.125C2205.36 96.1995 2210.24 94.7711 2214.49 93.0739L2211.51 85.6461C2207.76 87.1489 2203.36 88.4405 2199.11 89.275L2200.65 97.125ZM2213 85.36H2205.48V93.36H2213V85.36ZM2209.48 89.36V78.08H2201.48V89.36H2209.48ZM2205.48 82.08H2242.2V74.08H2205.48V82.08ZM2238.2 78.08V89.36H2246.2V78.08H2238.2ZM2242.2 85.36H2226.12V93.36H2242.2V85.36ZM2223.59 86.2591C2221.69 87.8111 2219.28 89.3514 2216.57 90.7825L2220.31 97.8575C2223.36 96.2486 2226.23 94.4289 2228.65 92.4609L2223.59 86.2591ZM2214.44 94.32V99.36H2222.44V94.32H2214.44ZM2219.25 103.277L2228.13 101.437L2226.51 93.6032L2217.63 95.4432L2219.25 103.277ZM2223.35 97.0434C2223.07 99.3273 2223.06 102.803 2223.36 104.886L2231.28 103.754C2231.1 102.477 2231.09 99.7127 2231.29 97.9966L2223.35 97.0434ZM2226.42 100.423C2220.9 101.704 2217.2 102.597 2214.66 103.276C2212.17 103.94 2210.56 104.457 2209.36 105.029L2212.8 112.251C2213.28 112.023 2214.27 111.66 2216.72 111.004C2219.12 110.363 2222.7 109.496 2228.22 108.217L2226.42 100.423ZM2215 88.72H2232.12V80.72H2215V88.72ZM2236.12 84.72V82.72H2228.12V84.72H2236.12ZM2232.12 78.72H2215V86.72H2232.12V78.72ZM2211 82.72V84.72H2219V82.72H2211ZM2189 52.4H2258.52V44.4H2189V52.4ZM2254.52 48.4V121.68H2262.52V48.4H2254.52ZM2258.52 117.68H2247.16V125.68H2258.52V117.68ZM2251.16 121.68V119.04H2243.16V121.68H2251.16ZM2247.16 115.04H2199.88V123.04H2247.16V115.04ZM2195.88 119.04V121.68H2203.88V119.04H2195.88ZM2199.88 117.68H2189V125.68H2199.88V117.68ZM2193 121.68V48.4H2185V121.68H2193Z" fill="#00503F" mask="url(#path-10-outside-4_188_9809)"/>
</svg>
