<svg width="3158" height="160" viewBox="0 0 3158 160" fill="none" xmlns="http://www.w3.org/2000/svg">
<mask id="path-1-inside-1_188_9795" fill="white">
<path d="M0 0H3158V160H0V0Z"/>
</mask>
<path d="M0 0H3158V160H0V0Z" fill="white"/>
<path d="M0 4H3158V-4H0V4ZM3158 156H0V164H3158V156Z" fill="#00503F" mask="url(#path-1-inside-1_188_9795)"/>
<path d="M39.84 62.88H37.12V90.24H39.84V62.88ZM48.48 100.8H37.12V108.16H28.72V52.32H48.48V100.8ZM62.96 86.32H66L66.16 77.12H63.36C63.36 79.92 63.2 83.04 62.96 86.32ZM63.36 58.64V67.44H66.24V58.64H63.36ZM50.16 48.96H75.52C75.52 48.96 75.52 52.56 75.44 53.76C75.12 97.2 75.12 112.56 73.04 116.32C71.44 119.28 70.08 120.24 67.84 120.8C65.76 121.44 63.44 121.44 60.64 121.36C60.48 118.48 59.52 114.16 58.08 111.28C59.76 111.44 61.2 111.44 62.4 111.44C63.36 111.52 63.92 111.12 64.56 109.68C65.2 108.32 65.6 104.48 65.84 96H61.76C60.08 105.36 56.8 114.96 50.56 121.84C49.28 119.92 45.68 116.16 43.92 114.88C48.64 109.44 51.2 102.8 52.56 96H50.16V86.32H53.84C54.08 83.12 54.16 80 54.16 77.12H50.24V67.44H54.16V58.64H50.16V48.96ZM87.2 100.88H88.56C89.04 100.88 89.6 100.72 90 100.16C90.56 99.44 90.8 97.76 90.8 95.04C90.8 90.96 90.64 85.44 87.84 79.52C88.88 73.92 90.16 64.72 90.88 58.24H87.2V100.88ZM94.64 48.64L101.68 52.64C100.16 60.8 98 72.08 96.4 78.64C99.68 85.44 100.16 91.52 100.16 96.8C100.16 102.88 99.12 106.48 96.8 108.4C95.68 109.36 94.24 109.92 92.56 110.24C91.52 110.4 90.32 110.48 88.72 110.48C88.72 108 88.32 104.32 87.2 101.6V121.68H77.76V48.96H93.28L94.64 48.64ZM175.68 86.32H148.96C154.64 97.76 164.64 106.08 179.76 109.84C177.04 112.4 173.52 117.44 171.76 120.72C157.2 116.16 147.76 107.76 141.12 95.76C136.32 105.76 127.2 115.2 110.16 121.04C108.72 118.16 105.04 113.28 102.56 110.96C119.92 105.44 127.76 95.84 131.28 86.32H105.76V74.32H133.76C133.84 72.72 133.92 71.28 133.92 69.84V62.48H108.88V50.48H172.64V62.48H146.24V70C146.24 71.36 146.24 72.8 146.16 74.32H175.68V86.32ZM210.56 92.72C209.28 80.56 225.28 78.16 225.28 71.12C225.28 66.72 221.52 64.72 216.24 64.72C211.68 64.72 208 66.8 204.8 70.48L196.96 63.28C201.92 57.2 209.44 53.2 217.92 53.2C229.68 53.2 238.88 58.4 238.88 69.84C238.88 81.36 222.32 82.16 223.04 92.72H210.56ZM207.36 106.08C207.36 100.96 211.28 97.36 216.8 97.36C222.32 97.36 226.24 100.96 226.24 106.08C226.24 111.2 222.32 114.96 216.8 114.96C211.28 114.96 207.36 111.2 207.36 106.08Z" fill="#00503F"/>
<mask id="path-4-outside-2_188_9795" maskUnits="userSpaceOnUse" x="279" y="47" width="282" height="73" fill="black">
<rect fill="white" x="279" y="47" width="282" height="73"/>
<path d="M294 114L283.12 54.48H297.76L301.52 81.6L303.92 100.48H304.24C305.36 94.16 306.56 87.76 307.76 81.6L313.84 54.48H325.84L332.08 81.6C333.28 87.68 334.32 94.08 335.52 100.48H335.92C336.64 94.08 337.44 87.76 338.16 81.6L342 54.48H355.6L345.28 114H327.28L321.92 88.08C320.96 83.52 320.16 78.72 319.6 74.24H319.2C318.48 78.72 317.76 83.52 316.88 88.08L311.68 114H294ZM360.446 114V54.48H374.766V77.12H394.366V54.48H408.526V114H394.366V89.52H374.766V114H360.446ZM419.199 114V54.48H456.959V66.32H433.519V77.36H453.439V89.36H433.519V102H457.839V114H419.199ZM466.389 114V54.48H480.949L495.749 82.96L501.589 96.16H501.989C501.189 89.84 500.069 81.28 500.069 74.16V54.48H513.669V114H499.109L484.389 85.28L478.549 72.24H478.149C478.789 78.88 479.989 87.04 479.989 94.24V114H466.389ZM531.483 92.4C529.563 80.08 542.843 74.96 542.843 68.4C542.843 64.88 540.363 63.04 537.083 63.04C533.803 63.04 531.483 64.72 529.003 67.2L521.163 60C525.563 54.96 531.643 51.6 538.843 51.6C548.763 51.6 556.523 56.32 556.523 67.44C556.523 78.56 542.843 81.84 543.883 92.4H531.483ZM537.643 115.12C532.683 115.12 529.163 111.2 529.163 106.24C529.163 101.36 532.683 97.44 537.643 97.44C542.523 97.44 546.123 101.36 546.123 106.24C546.123 111.2 542.523 115.12 537.643 115.12Z"/>
</mask>
<path d="M294 114L290.065 114.719L294 118V114ZM283.12 54.48V50.48L279.185 55.1993L283.12 54.48ZM297.76 54.48L301.722 53.9307L297.76 50.48V54.48ZM301.52 81.6L305.488 81.0956L305.482 81.0507L301.52 81.6ZM303.92 100.48L299.952 100.984L303.92 104.48V100.48ZM304.24 100.48V104.48L308.179 101.178L304.24 100.48ZM307.76 81.6L303.857 80.725L303.834 80.8352L307.76 81.6ZM313.84 54.48V50.48L309.937 53.605L313.84 54.48ZM325.84 54.48L329.738 53.5831L325.84 50.48V54.48ZM332.08 81.6L336.004 80.8255L335.978 80.7031L332.08 81.6ZM335.52 100.48L331.589 101.217L335.52 104.48V100.48ZM335.92 100.48V104.48L339.895 100.927L335.92 100.48ZM338.16 81.6L334.2 81.0392L334.187 81.1356L338.16 81.6ZM342 54.48V50.48L338.04 53.9192L342 54.48ZM355.6 54.48L359.541 55.1634L355.6 50.48V54.48ZM345.28 114V118L349.221 114.683L345.28 114ZM327.28 114L323.363 114.81L327.28 118V114ZM321.92 88.08L325.837 87.27L325.834 87.256L321.92 88.08ZM319.6 74.24L323.569 73.7439L319.6 70.24V74.24ZM319.2 74.24V70.24L315.251 73.6053L319.2 74.24ZM316.88 88.08L320.802 88.8668L320.808 88.8379L316.88 88.08ZM311.68 114V118L315.602 114.787L311.68 114ZM297.935 113.281L287.055 53.7607L279.185 55.1993L290.065 114.719L297.935 113.281ZM283.12 58.48H297.76V50.48H283.12V58.48ZM293.798 55.0293L297.558 82.1493L305.482 81.0507L301.722 53.9307L293.798 55.0293ZM297.552 82.1044L299.952 100.984L307.888 99.9756L305.488 81.0956L297.552 82.1044ZM303.92 104.48H304.24V96.48H303.92V104.48ZM308.179 101.178C309.294 94.8838 310.49 88.5063 311.686 82.3648L303.834 80.8352C302.63 87.0137 301.426 93.4362 300.301 99.782L308.179 101.178ZM311.663 82.475L317.743 55.355L309.937 53.605L303.857 80.725L311.663 82.475ZM313.84 58.48H325.84V50.48H313.84V58.48ZM321.942 55.3769L328.182 82.4969L335.978 80.7031L329.738 53.5831L321.942 55.3769ZM328.156 82.3745C329.362 88.4841 330.354 94.6333 331.589 101.217L339.451 99.7428C338.286 93.5267 337.198 86.8759 336.004 80.8255L328.156 82.3745ZM335.52 104.48H335.92V96.48H335.52V104.48ZM339.895 100.927C340.616 94.5219 341.405 88.2918 342.133 82.0644L334.187 81.1356C333.475 87.2282 332.664 93.6381 331.945 100.033L339.895 100.927ZM342.12 82.1608L345.96 55.0408L338.04 53.9192L334.2 81.0392L342.12 82.1608ZM342 58.48H355.6V50.48H342V58.48ZM351.659 53.7966L341.339 113.317L349.221 114.683L359.541 55.1634L351.659 53.7966ZM345.28 110H327.28V118H345.28V110ZM331.197 113.19L325.837 87.27L318.003 88.89L323.363 114.81L331.197 113.19ZM325.834 87.256C324.897 82.8049 324.115 78.1143 323.569 73.7439L315.631 74.7361C316.205 79.3257 317.023 84.2351 318.006 88.904L325.834 87.256ZM319.6 70.24H319.2V78.24H319.6V70.24ZM315.251 73.6053C314.521 78.1442 313.817 82.8431 312.952 87.3221L320.808 88.8379C321.703 84.1969 322.439 79.2958 323.149 74.8747L315.251 73.6053ZM312.958 87.2932L307.758 113.213L315.602 114.787L320.802 88.8668L312.958 87.2932ZM311.68 110H294V118H311.68V110ZM360.446 114H356.446L360.446 118V114ZM360.446 54.48V50.48L356.446 54.48H360.446ZM374.766 54.48H378.766L374.766 50.48V54.48ZM374.766 77.12H370.766L374.766 81.12V77.12ZM394.366 77.12V81.12L398.366 77.12H394.366ZM394.366 54.48V50.48L390.366 54.48H394.366ZM408.526 54.48H412.526L408.526 50.48V54.48ZM408.526 114V118L412.526 114H408.526ZM394.366 114H390.366L394.366 118V114ZM394.366 89.52H398.366L394.366 85.52V89.52ZM374.766 89.52V85.52L370.766 89.52H374.766ZM374.766 114V118L378.766 114H374.766ZM364.446 114V54.48H356.446V114H364.446ZM360.446 58.48H374.766V50.48H360.446V58.48ZM370.766 54.48V77.12H378.766V54.48H370.766ZM374.766 81.12H394.366V73.12H374.766V81.12ZM398.366 77.12V54.48H390.366V77.12H398.366ZM394.366 58.48H408.526V50.48H394.366V58.48ZM404.526 54.48V114H412.526V54.48H404.526ZM408.526 110H394.366V118H408.526V110ZM398.366 114V89.52H390.366V114H398.366ZM394.366 85.52H374.766V93.52H394.366V85.52ZM370.766 89.52V114H378.766V89.52H370.766ZM374.766 110H360.446V118H374.766V110ZM419.199 114H415.199L419.199 118V114ZM419.199 54.48V50.48L415.199 54.48H419.199ZM456.959 54.48H460.959L456.959 50.48V54.48ZM456.959 66.32V70.32L460.959 66.32H456.959ZM433.519 66.32V62.32L429.519 66.32H433.519ZM433.519 77.36H429.519L433.519 81.36V77.36ZM453.439 77.36H457.439L453.439 73.36V77.36ZM453.439 89.36V93.36L457.439 89.36H453.439ZM433.519 89.36V85.36L429.519 89.36H433.519ZM433.519 102H429.519L433.519 106V102ZM457.839 102H461.839L457.839 98V102ZM457.839 114V118L461.839 114H457.839ZM423.199 114V54.48H415.199V114H423.199ZM419.199 58.48H456.959V50.48H419.199V58.48ZM452.959 54.48V66.32H460.959V54.48H452.959ZM456.959 62.32H433.519V70.32H456.959V62.32ZM429.519 66.32V77.36H437.519V66.32H429.519ZM433.519 81.36H453.439V73.36H433.519V81.36ZM449.439 77.36V89.36H457.439V77.36H449.439ZM453.439 85.36H433.519V93.36H453.439V85.36ZM429.519 89.36V102H437.519V89.36H429.519ZM433.519 106H457.839V98H433.519V106ZM453.839 102V114H461.839V102H453.839ZM457.839 110H419.199V118H457.839V110ZM466.389 114H462.389L466.389 118V114ZM466.389 54.48V50.48L462.389 54.48H466.389ZM480.949 54.48L484.499 52.6355L480.949 50.48V54.48ZM495.749 82.96L499.407 81.3416L499.299 81.1155L495.749 82.96ZM501.589 96.16L497.931 97.7784L501.589 100.16V96.16ZM501.989 96.16V100.16L505.958 95.6577L501.989 96.16ZM500.069 54.48V50.48L496.069 54.48H500.069ZM513.669 54.48H517.669L513.669 50.48V54.48ZM513.669 114V118L517.669 114H513.669ZM499.109 114L495.55 115.824L499.109 118V114ZM484.389 85.28L480.739 86.9149L480.83 87.1045L484.389 85.28ZM478.549 72.24L482.2 70.6051L478.549 68.24V72.24ZM478.149 72.24V68.24L474.168 72.6238L478.149 72.24ZM479.989 114V118L483.989 114H479.989ZM470.389 114V54.48H462.389V114H470.389ZM466.389 58.48H480.949V50.48H466.389V58.48ZM477.4 56.3245L492.2 84.8045L499.299 81.1155L484.499 52.6355L477.4 56.3245ZM492.091 84.5784L497.931 97.7784L505.247 94.5416L499.407 81.3416L492.091 84.5784ZM501.589 100.16H501.989V92.16H501.589V100.16ZM505.958 95.6577C505.148 89.2574 504.069 80.9742 504.069 74.16H496.069C496.069 81.5858 497.231 90.4226 498.021 96.6623L505.958 95.6577ZM504.069 74.16V54.48H496.069V74.16H504.069ZM500.069 58.48H513.669V50.48H500.069V58.48ZM509.669 54.48V114H517.669V54.48H509.669ZM513.669 110H499.109V118H513.669V110ZM502.669 112.176L487.949 83.4555L480.83 87.1045L495.55 115.824L502.669 112.176ZM488.04 83.6451L482.2 70.6051L474.899 73.8749L480.739 86.9149L488.04 83.6451ZM478.549 68.24H478.149V76.24H478.549V68.24ZM474.168 72.6238C474.837 79.5664 475.989 87.2954 475.989 94.24H483.989C483.989 86.7846 482.742 78.1936 482.131 71.8562L474.168 72.6238ZM475.989 94.24V114H483.989V94.24H475.989ZM479.989 110H466.389V118H479.989V110ZM531.483 92.4L527.531 93.0159L531.483 96.4V92.4ZM529.003 67.2L526.298 70.1461L531.832 70.0284L529.003 67.2ZM521.163 60L518.15 57.3694L518.458 62.9461L521.163 60ZM543.883 92.4V96.4L547.864 92.008L543.883 92.4ZM535.435 91.7841C534.751 87.3929 536.63 84.2113 539.497 80.8238C540.737 79.3578 542.721 77.2621 543.98 75.6089C545.332 73.8337 546.843 71.3965 546.843 68.4H538.843C538.843 68.6835 538.694 69.3463 537.616 70.7611C536.446 72.2979 535.229 73.4822 533.39 75.6562C530.096 79.5487 526.295 85.0871 527.531 93.0159L535.435 91.7841ZM546.843 68.4C546.843 65.6322 545.829 63.1389 543.825 61.3879C541.895 59.7018 539.437 59.04 537.083 59.04V67.04C538.009 67.04 538.431 67.2982 538.561 67.4121C538.624 67.4667 538.677 67.5326 538.723 67.6424C538.773 67.7586 538.843 67.9929 538.843 68.4H546.843ZM537.083 59.04C532.156 59.04 528.851 61.6955 526.175 64.3716L531.832 70.0284C534.115 67.7445 535.451 67.04 537.083 67.04V59.04ZM531.709 64.2539L523.869 57.0539L518.458 62.9461L526.298 70.1461L531.709 64.2539ZM524.176 62.6306C527.949 58.3096 532.985 55.6 538.843 55.6V47.6C530.302 47.6 523.178 51.6104 518.15 57.3694L524.176 62.6306ZM538.843 55.6C543.238 55.6 546.652 56.6533 548.889 58.461C550.991 60.1597 552.523 62.8981 552.523 67.44H560.523C560.523 60.8619 558.176 55.6803 553.917 52.239C549.794 48.9067 544.368 47.6 538.843 47.6V55.6ZM552.523 67.44C552.523 71.1931 550.354 73.6831 546.887 77.4028C543.771 80.7458 539.182 85.4756 539.902 92.792L547.864 92.008C547.544 88.7644 549.275 86.5742 552.739 82.8572C555.853 79.5169 560.523 74.8069 560.523 67.44H552.523ZM543.883 88.4H531.483V96.4H543.883V88.4ZM537.643 111.12C535.132 111.12 533.163 109.238 533.163 106.24H525.163C525.163 113.162 530.235 119.12 537.643 119.12V111.12ZM533.163 106.24C533.163 103.346 535.109 101.44 537.643 101.44V93.44C530.258 93.44 525.163 99.3736 525.163 106.24H533.163ZM537.643 101.44C540.122 101.44 542.123 103.372 542.123 106.24H550.123C550.123 99.3479 544.924 93.44 537.643 93.44V101.44ZM542.123 106.24C542.123 109.212 540.099 111.12 537.643 111.12V119.12C544.947 119.12 550.123 113.188 550.123 106.24H542.123Z" fill="#00503F" mask="url(#path-4-outside-2_188_9795)"/>
<path d="M588.36 114V105.84C603.24 92.32 613.24 81.52 613.24 72.88C613.24 67.44 610.2 64.48 605.48 64.48C601.4 64.48 598.2 67.2 595.4 70.24L587.64 62.56C593.48 56.4 598.92 53.36 607.4 53.36C618.92 53.36 626.92 60.72 626.92 72.08C626.92 82.32 618.12 93.6 609 102.8C611.96 102.4 616.04 102 618.68 102H629.64V114H588.36ZM654.87 115.12C642.31 115.12 633.83 104.4 633.83 83.92C633.83 63.44 642.31 53.36 654.87 53.36C667.43 53.36 675.99 63.6 675.99 83.92C675.99 104.4 667.43 115.12 654.87 115.12ZM654.87 104.08C659.11 104.08 662.55 100.24 662.55 83.92C662.55 67.68 659.11 64.32 654.87 64.32C650.63 64.32 647.27 67.68 647.27 83.92C647.27 100.24 650.63 104.08 654.87 104.08ZM679.46 114V105.84C694.34 92.32 704.34 81.52 704.34 72.88C704.34 67.44 701.3 64.48 696.58 64.48C692.5 64.48 689.3 67.2 686.5 70.24L678.74 62.56C684.58 56.4 690.02 53.36 698.5 53.36C710.02 53.36 718.02 60.72 718.02 72.08C718.02 82.32 709.22 93.6 700.1 102.8C703.06 102.4 707.14 102 709.78 102H720.74V114H679.46ZM737.01 88.32H748.37V79.6C748.37 75.84 748.77 70.16 748.93 66.4H748.61C747.09 69.76 745.49 73.2 743.81 76.56L737.01 88.32ZM768.29 88.32V99.12H761.65V114H748.37V99.12H723.41V89.28L744.13 54.48H761.65V88.32H768.29ZM794.16 94H805.76V84.08H794.16V94ZM805.76 65.12H789.92C788.24 68.08 786.4 70.8 784.56 73.28H805.76V65.12ZM844.32 94V105.2H817.76V121.6H805.76V105.2H770.08V94H782.48V76C781.52 77.12 780.56 78.24 779.6 79.2C777.36 77.12 772.4 73.28 769.6 71.6C776.56 65.6 782.56 55.44 785.76 45.28L797.68 48.32C797.04 50.16 796.32 52.08 795.52 53.92H839.6V65.12H817.76V73.28H837.68V84.08H817.76V94H844.32ZM868.32 115.12C855.76 115.12 847.28 104.4 847.28 83.92C847.28 63.44 855.76 53.36 868.32 53.36C880.88 53.36 889.44 63.6 889.44 83.92C889.44 104.4 880.88 115.12 868.32 115.12ZM868.32 104.08C872.56 104.08 876 100.24 876 83.92C876 67.68 872.56 64.32 868.32 64.32C864.08 64.32 860.72 67.68 860.72 83.92C860.72 100.24 864.08 104.08 868.32 104.08ZM913.79 115.12C902.11 115.12 893.39 108.64 893.39 99.2C893.39 91.76 897.63 87.12 903.15 84.16V83.76C898.51 80.32 895.39 75.76 895.39 69.44C895.39 59.52 903.23 53.36 914.27 53.36C924.99 53.36 932.11 59.6 932.11 69.28C932.11 74.96 928.67 79.68 924.59 82.48V82.88C930.27 85.84 934.59 90.8 934.59 98.96C934.59 108.16 926.27 115.12 913.79 115.12ZM917.39 79.04C919.63 76.32 920.59 73.28 920.59 70.24C920.59 65.92 918.11 63.2 913.87 63.2C910.67 63.2 907.87 65.2 907.87 69.44C907.87 74.16 911.55 76.72 917.39 79.04ZM914.11 105.2C918.19 105.2 921.39 103.12 921.39 98.4C921.39 93.2 916.83 90.96 909.55 87.84C907.15 90.16 905.55 93.76 905.55 97.52C905.55 102.4 909.47 105.2 914.11 105.2ZM960.7 86.88H990.86V79.2H961.18C961.1 81.6 960.94 84.24 960.7 86.88ZM990.86 60.48H961.18V68.16H990.86V60.48ZM1003.26 49.12V107.52C1003.26 114.08 1001.74 117.36 997.66 119.28C993.42 121.28 987.58 121.52 979.42 121.52C978.78 118.08 976.46 112.4 974.62 109.28C979.74 109.68 986.46 109.6 988.38 109.6C990.22 109.6 990.86 108.96 990.86 107.36V98.16H958.94C956.78 107.04 952.78 115.6 945.5 121.6C943.74 119.2 939.02 114.8 936.46 113.2C948.22 103.44 949.18 88.48 949.18 76.56V49.12H1003.26ZM1018.14 114V102.48H1030.78V68.64H1019.82V59.84C1026.22 58.64 1030.38 57.04 1034.54 54.48H1045.02V102.48H1055.74V114H1018.14ZM1063.69 114V102.48H1076.33V68.64H1065.37V59.84C1071.77 58.64 1075.93 57.04 1080.09 54.48H1090.57V102.48H1101.29V114H1063.69ZM1126.28 103.6H1159.48V88H1126.28V103.6ZM1159.48 61.84H1126.28V76.48H1159.48V61.84ZM1114.28 50.08H1172.04V120.64H1159.48V115.36H1126.28V120.64H1114.28V50.08ZM1247.08 122.24C1239 114.4 1231.4 101.52 1231.4 83.6C1231.4 65.68 1239 52.8 1247.08 44.96L1256.28 48.88C1248.92 56.96 1242.28 67.68 1242.28 83.6C1242.28 99.52 1248.92 110.24 1256.28 118.32L1247.08 122.24ZM1272.68 97.12H1291V93.68H1275.56C1274.6 94.88 1273.64 96 1272.68 97.12ZM1279.96 67.52V70.16H1312.2V67.52H1279.96ZM1279.96 56.88V59.44H1312.2V56.88H1279.96ZM1303.08 109.6H1332.44V119.52H1261.08V109.6H1291V106H1271.24V98.64C1270.36 99.6 1269.48 100.4 1268.6 101.2C1266.36 99.12 1261.64 95.6 1258.92 94C1263.88 90.32 1268.6 84.64 1271.48 78.88H1268.52V48.16H1324.28V78.88H1276.52L1283.48 80.88C1283 82 1282.44 83.04 1281.8 84.16H1291V80.16H1303.08V84.16H1327.24V93.68H1303.08V97.12H1323.48V106H1303.08V109.6ZM1388.76 84.96H1397.64V77.04H1388.84V78.56C1388.84 80.56 1388.84 82.72 1388.76 84.96ZM1397.64 59.44H1388.84V66.88H1397.64V59.44ZM1352.68 88.8V92.64H1360.12V88.8H1352.68ZM1360.12 64.4H1352.68V67.76H1360.12V64.4ZM1352.68 76.48V80.08H1360.12V76.48H1352.68ZM1408.84 48.96V109.36C1408.84 114.72 1407.88 117.76 1404.76 119.52C1401.64 121.36 1397.4 121.68 1391.32 121.6C1391 118.56 1389.56 113.52 1388.12 110.64C1391.08 110.88 1394.92 110.8 1396.04 110.8C1397.24 110.8 1397.64 110.4 1397.64 109.2V95.28H1388.12C1387.16 104.8 1385.16 114.72 1381.16 121.68C1379.32 119.76 1374.76 116.48 1372.2 115.2L1365.64 119.04C1363.96 115.84 1359.96 110.64 1356.76 106.88L1364.28 102.72H1344.92L1355.64 105.84C1352.68 111.68 1347.88 118 1343.64 121.84C1341.48 119.84 1337 116.56 1334.36 115.04C1338.52 112 1342.44 107.28 1344.68 102.72H1335.4V92.64H1342.28V64.4H1336.28V54.32H1342.28V46.48H1352.68V54.32H1360.12V46.48H1370.76V54.32H1375.96V64.4H1370.76V92.64H1375.08V102.72H1366.2C1368.68 105.44 1371.64 108.8 1373.64 111.6C1377.64 101.76 1377.96 88.64 1377.96 78.56V48.96H1408.84ZM1433.48 103.6H1466.68V88H1433.48V103.6ZM1466.68 61.84H1433.48V76.48H1466.68V61.84ZM1421.48 50.08H1479.24V120.64H1466.68V115.36H1433.48V120.64H1421.48V50.08ZM1499.72 44.96C1507.8 52.8 1515.4 65.68 1515.4 83.6C1515.4 101.52 1507.8 114.4 1499.72 122.24L1490.52 118.32C1497.88 110.24 1504.52 99.52 1504.52 83.6C1504.52 67.68 1497.88 56.96 1490.52 48.88L1499.72 44.96Z" fill="#00503F"/>
<mask id="path-7-outside-3_188_9795" maskUnits="userSpaceOnUse" x="1591" y="44" width="219" height="82" fill="black">
<rect fill="white" x="1591" y="44" width="219" height="82"/>
<path d="M1606.84 62.88H1604.12V90.24H1606.84V62.88ZM1615.48 100.8H1604.12V108.16H1595.72V52.32H1615.48V100.8ZM1629.96 86.32H1633L1633.16 77.12H1630.36C1630.36 79.92 1630.2 83.04 1629.96 86.32ZM1630.36 58.64V67.44H1633.24V58.64H1630.36ZM1617.16 48.96H1642.52C1642.52 48.96 1642.52 52.56 1642.44 53.76C1642.12 97.2 1642.12 112.56 1640.04 116.32C1638.44 119.28 1637.08 120.24 1634.84 120.8C1632.76 121.44 1630.44 121.44 1627.64 121.36C1627.48 118.48 1626.52 114.16 1625.08 111.28C1626.76 111.44 1628.2 111.44 1629.4 111.44C1630.36 111.52 1630.92 111.12 1631.56 109.68C1632.2 108.32 1632.6 104.48 1632.84 96H1628.76C1627.08 105.36 1623.8 114.96 1617.56 121.84C1616.28 119.92 1612.68 116.16 1610.92 114.88C1615.64 109.44 1618.2 102.8 1619.56 96H1617.16V86.32H1620.84C1621.08 83.12 1621.16 80 1621.16 77.12H1617.24V67.44H1621.16V58.64H1617.16V48.96ZM1654.2 100.88H1655.56C1656.04 100.88 1656.6 100.72 1657 100.16C1657.56 99.44 1657.8 97.76 1657.8 95.04C1657.8 90.96 1657.64 85.44 1654.84 79.52C1655.88 73.92 1657.16 64.72 1657.88 58.24H1654.2V100.88ZM1661.64 48.64L1668.68 52.64C1667.16 60.8 1665 72.08 1663.4 78.64C1666.68 85.44 1667.16 91.52 1667.16 96.8C1667.16 102.88 1666.12 106.48 1663.8 108.4C1662.68 109.36 1661.24 109.92 1659.56 110.24C1658.52 110.4 1657.32 110.48 1655.72 110.48C1655.72 108 1655.32 104.32 1654.2 101.6V121.68H1644.76V48.96H1660.28L1661.64 48.64ZM1742.68 86.32H1715.96C1721.64 97.76 1731.64 106.08 1746.76 109.84C1744.04 112.4 1740.52 117.44 1738.76 120.72C1724.2 116.16 1714.76 107.76 1708.12 95.76C1703.32 105.76 1694.2 115.2 1677.16 121.04C1675.72 118.16 1672.04 113.28 1669.56 110.96C1686.92 105.44 1694.76 95.84 1698.28 86.32H1672.76V74.32H1700.76C1700.84 72.72 1700.92 71.28 1700.92 69.84V62.48H1675.88V50.48H1739.64V62.48H1713.24V70C1713.24 71.36 1713.24 72.8 1713.16 74.32H1742.68V86.32ZM1777.56 92.72C1776.28 80.56 1792.28 78.16 1792.28 71.12C1792.28 66.72 1788.52 64.72 1783.24 64.72C1778.68 64.72 1775 66.8 1771.8 70.48L1763.96 63.28C1768.92 57.2 1776.44 53.2 1784.92 53.2C1796.68 53.2 1805.88 58.4 1805.88 69.84C1805.88 81.36 1789.32 82.16 1790.04 92.72H1777.56ZM1774.36 106.08C1774.36 100.96 1778.28 97.36 1783.8 97.36C1789.32 97.36 1793.24 100.96 1793.24 106.08C1793.24 111.2 1789.32 114.96 1783.8 114.96C1778.28 114.96 1774.36 111.2 1774.36 106.08Z"/>
</mask>
<path d="M1606.84 62.88H1610.84L1606.84 58.88V62.88ZM1604.12 62.88V58.88L1600.12 62.88H1604.12ZM1604.12 90.24H1600.12L1604.12 94.24V90.24ZM1606.84 90.24V94.24L1610.84 90.24H1606.84ZM1615.48 100.8V104.8L1619.48 100.8H1615.48ZM1604.12 100.8V96.8L1600.12 100.8H1604.12ZM1604.12 108.16V112.16L1608.12 108.16H1604.12ZM1595.72 108.16H1591.72L1595.72 112.16V108.16ZM1595.72 52.32V48.32L1591.72 52.32H1595.72ZM1615.48 52.32H1619.48L1615.48 48.32V52.32ZM1629.96 86.32L1625.97 86.0281L1629.96 90.32V86.32ZM1633 86.32V90.32L1637 86.3896L1633 86.32ZM1633.16 77.12L1637.16 77.1896L1633.16 73.12V77.12ZM1630.36 77.12V73.12L1626.36 77.12H1630.36ZM1630.36 58.64V54.64L1626.36 58.64H1630.36ZM1630.36 67.44H1626.36L1630.36 71.44V67.44ZM1633.24 67.44V71.44L1637.24 67.44H1633.24ZM1633.24 58.64H1637.24L1633.24 54.64V58.64ZM1617.16 48.96V44.96L1613.16 48.96H1617.16ZM1642.52 48.96H1646.52L1642.52 44.96V48.96ZM1642.44 53.76L1638.45 53.4939L1638.44 53.7305L1642.44 53.76ZM1640.04 116.32L1636.54 114.384L1636.52 114.418L1640.04 116.32ZM1634.84 120.8L1633.87 116.919L1633.66 116.977L1634.84 120.8ZM1627.64 121.36L1623.65 121.582L1627.53 125.358L1627.64 121.36ZM1625.08 111.28L1625.46 107.298L1621.5 113.069L1625.08 111.28ZM1629.4 111.44L1629.73 107.454L1629.4 107.44V111.44ZM1631.56 109.68L1627.94 107.977L1627.9 108.055L1631.56 109.68ZM1632.84 96L1636.84 96.1132L1632.84 92V96ZM1628.76 96V92L1624.82 95.2933L1628.76 96ZM1617.56 121.84L1614.23 124.059L1620.52 124.527L1617.56 121.84ZM1610.92 114.88L1607.9 112.259L1608.57 118.115L1610.92 114.88ZM1619.56 96L1623.48 96.7845L1619.56 92V96ZM1617.16 96H1613.16L1617.16 100V96ZM1617.16 86.32V82.32L1613.16 86.32H1617.16ZM1620.84 86.32V90.32L1624.83 86.6192L1620.84 86.32ZM1621.16 77.12H1625.16L1621.16 73.12V77.12ZM1617.24 77.12H1613.24L1617.24 81.12V77.12ZM1617.24 67.44V63.44L1613.24 67.44H1617.24ZM1621.16 67.44V71.44L1625.16 67.44H1621.16ZM1621.16 58.64H1625.16L1621.16 54.64V58.64ZM1617.16 58.64H1613.16L1617.16 62.64V58.64ZM1654.2 100.88H1650.2L1654.2 104.88V100.88ZM1657 100.16L1653.84 97.7042L1653.75 97.835L1657 100.16ZM1654.84 79.52L1650.91 78.7896L1651.22 81.2302L1654.84 79.52ZM1657.88 58.24L1661.86 58.6817L1657.88 54.24V58.24ZM1654.2 58.24V54.24L1650.2 58.24H1654.2ZM1661.64 48.64L1663.62 45.1622L1660.72 44.7463L1661.64 48.64ZM1668.68 52.64L1672.61 53.3725L1670.66 49.1622L1668.68 52.64ZM1663.4 78.64L1659.51 77.6922L1659.8 80.3778L1663.4 78.64ZM1663.8 108.4L1661.25 105.318L1661.2 105.363L1663.8 108.4ZM1659.56 110.24L1660.17 114.193L1660.31 114.169L1659.56 110.24ZM1655.72 110.48H1651.72L1655.72 114.48V110.48ZM1654.2 101.6L1657.9 100.077L1650.2 101.6H1654.2ZM1654.2 121.68V125.68L1658.2 121.68H1654.2ZM1644.76 121.68H1640.76L1644.76 125.68V121.68ZM1644.76 48.96V44.96L1640.76 48.96H1644.76ZM1660.28 48.96V52.96L1661.2 52.8537L1660.28 48.96ZM1606.84 58.88H1604.12V66.88H1606.84V58.88ZM1600.12 62.88V90.24H1608.12V62.88H1600.12ZM1604.12 94.24H1606.84V86.24H1604.12V94.24ZM1610.84 90.24V62.88H1602.84V90.24H1610.84ZM1615.48 96.8H1604.12V104.8H1615.48V96.8ZM1600.12 100.8V108.16H1608.12V100.8H1600.12ZM1604.12 104.16H1595.72V112.16H1604.12V104.16ZM1599.72 108.16V52.32H1591.72V108.16H1599.72ZM1595.72 56.32H1615.48V48.32H1595.72V56.32ZM1611.48 52.32V100.8H1619.48V52.32H1611.48ZM1629.96 90.32H1633V82.32H1629.96V90.32ZM1637 86.3896L1637.16 77.1896L1629.16 77.0504L1629 86.2504L1637 86.3896ZM1633.16 73.12H1630.36V81.12H1633.16V73.12ZM1626.36 77.12C1626.36 79.7809 1626.21 82.7921 1625.97 86.0281L1633.95 86.6119C1634.19 83.2879 1634.36 80.0591 1634.36 77.12H1626.36ZM1626.36 58.64V67.44H1634.36V58.64H1626.36ZM1630.36 71.44H1633.24V63.44H1630.36V71.44ZM1637.24 67.44V58.64H1629.24V67.44H1637.24ZM1633.24 54.64H1630.36V62.64H1633.24V54.64ZM1617.16 52.96H1642.52V44.96H1617.16V52.96ZM1642.52 48.96C1638.52 48.96 1638.52 48.96 1638.52 48.96C1638.52 48.96 1638.52 48.96 1638.52 48.96C1638.52 48.96 1638.52 48.9601 1638.52 48.9603C1638.52 48.9606 1638.52 48.9612 1638.52 48.9619C1638.52 48.9634 1638.52 48.9658 1638.52 48.9689C1638.52 48.9753 1638.52 48.985 1638.52 48.9978C1638.52 49.0234 1638.52 49.0616 1638.52 49.1108C1638.52 49.2093 1638.52 49.352 1638.52 49.5272C1638.52 49.8781 1638.52 50.3572 1638.51 50.8719C1638.5 51.9537 1638.48 53.0307 1638.45 53.4939L1646.43 54.0261C1646.48 53.2893 1646.5 51.9663 1646.51 50.9481C1646.51 50.4128 1646.52 49.9169 1646.52 49.5553C1646.52 49.3742 1646.52 49.2263 1646.52 49.1232C1646.52 49.0717 1646.52 49.0313 1646.52 49.0037C1646.52 48.9898 1646.52 48.9791 1646.52 48.9718C1646.52 48.9681 1646.52 48.9653 1646.52 48.9633C1646.52 48.9623 1646.52 48.9616 1646.52 48.961C1646.52 48.9607 1646.52 48.9605 1646.52 48.9603C1646.52 48.9603 1646.52 48.9602 1646.52 48.9601C1646.52 48.9601 1646.52 48.96 1642.52 48.96ZM1638.44 53.7305C1638.28 75.4847 1638.2 90.1175 1637.9 99.7969C1637.75 104.642 1637.55 108.14 1637.27 110.621C1637.13 111.859 1636.98 112.772 1636.83 113.434C1636.75 113.761 1636.68 113.998 1636.63 114.164C1636.57 114.333 1636.53 114.394 1636.54 114.384L1643.54 118.256C1644.49 116.547 1644.93 114.154 1645.22 111.514C1645.54 108.7 1645.75 104.938 1645.9 100.043C1646.2 90.2425 1646.28 75.4753 1646.44 53.7895L1638.44 53.7305ZM1636.52 114.418C1635.84 115.67 1635.4 116.158 1635.13 116.381C1634.91 116.558 1634.62 116.731 1633.87 116.919L1635.81 124.681C1637.3 124.309 1638.81 123.722 1640.23 122.539C1641.6 121.402 1642.64 119.93 1643.56 118.222L1636.52 114.418ZM1633.66 116.977C1632.3 117.395 1630.62 117.444 1627.75 117.362L1627.53 125.358C1630.26 125.436 1633.22 125.485 1636.02 124.623L1633.66 116.977ZM1631.63 121.138C1631.45 117.826 1630.39 112.952 1628.66 109.491L1621.5 113.069C1622.65 115.368 1623.51 119.134 1623.65 121.582L1631.63 121.138ZM1624.7 115.262C1626.59 115.442 1628.2 115.44 1629.4 115.44V107.44C1628.2 107.44 1626.93 107.438 1625.46 107.298L1624.7 115.262ZM1629.07 115.426C1630.25 115.524 1631.73 115.339 1633.09 114.262C1634.21 113.373 1634.83 112.175 1635.22 111.305L1627.9 108.055C1627.8 108.294 1627.74 108.377 1627.75 108.371C1627.75 108.362 1627.87 108.194 1628.11 107.998C1628.39 107.781 1628.73 107.609 1629.09 107.518C1629.43 107.434 1629.67 107.449 1629.73 107.454L1629.07 115.426ZM1635.18 111.383C1635.83 109.991 1636.13 108.025 1636.33 105.892C1636.55 103.566 1636.72 100.379 1636.84 96.1132L1628.84 95.8868C1628.72 100.101 1628.57 103.074 1628.37 105.128C1628.15 107.375 1627.93 108.009 1627.94 107.977L1635.18 111.383ZM1632.84 92H1628.76V100H1632.84V92ZM1624.82 95.2933C1623.2 104.338 1620.11 113.079 1614.6 119.153L1620.52 124.527C1627.49 116.841 1630.96 106.382 1632.7 96.7067L1624.82 95.2933ZM1620.89 119.621C1620.05 118.362 1618.63 116.739 1617.31 115.357C1616 113.982 1614.46 112.506 1613.27 111.645L1608.57 118.115C1609.14 118.534 1610.28 119.578 1611.53 120.883C1612.77 122.181 1613.79 123.398 1614.23 124.059L1620.89 119.621ZM1613.94 117.501C1619.26 111.375 1622.04 104.016 1623.48 96.7845L1615.64 95.2155C1614.36 101.584 1612.02 107.505 1607.9 112.259L1613.94 117.501ZM1619.56 92H1617.16V100H1619.56V92ZM1621.16 96V86.32H1613.16V96H1621.16ZM1617.16 90.32H1620.84V82.32H1617.16V90.32ZM1624.83 86.6192C1625.08 83.2949 1625.16 80.0715 1625.16 77.12H1617.16C1617.16 79.9285 1617.08 82.9451 1616.85 86.0208L1624.83 86.6192ZM1621.16 73.12H1617.24V81.12H1621.16V73.12ZM1621.24 77.12V67.44H1613.24V77.12H1621.24ZM1617.24 71.44H1621.16V63.44H1617.24V71.44ZM1625.16 67.44V58.64H1617.16V67.44H1625.16ZM1621.16 54.64H1617.16V62.64H1621.16V54.64ZM1621.16 58.64V48.96H1613.16V58.64H1621.16ZM1654.2 104.88H1655.56V96.88H1654.2V104.88ZM1655.56 104.88C1656.95 104.88 1658.9 104.375 1660.25 102.485L1653.75 97.835C1653.98 97.5127 1654.31 97.2397 1654.7 97.0687C1655.06 96.911 1655.37 96.88 1655.56 96.88V104.88ZM1660.16 102.616C1661.09 101.416 1661.41 99.9619 1661.56 98.9547C1661.74 97.8157 1661.8 96.4864 1661.8 95.04H1653.8C1653.8 96.3136 1653.74 97.1843 1653.66 97.7453C1653.61 98.0204 1653.58 98.1448 1653.57 98.1644C1653.56 98.1972 1653.62 97.991 1653.84 97.7042L1660.16 102.616ZM1661.8 95.04C1661.8 90.837 1661.65 84.5685 1658.46 77.8098L1651.22 81.2302C1653.63 86.3115 1653.8 91.083 1653.8 95.04H1661.8ZM1658.77 80.2504C1659.84 74.5243 1661.13 65.2218 1661.86 58.6817L1653.9 57.7983C1653.19 64.2181 1651.92 73.3157 1650.91 78.7896L1658.77 80.2504ZM1657.88 54.24H1654.2V62.24H1657.88V54.24ZM1650.2 58.24V100.88H1658.2V58.24H1650.2ZM1659.66 52.1178L1666.7 56.1178L1670.66 49.1622L1663.62 45.1622L1659.66 52.1178ZM1664.75 51.9075C1663.22 60.0931 1661.08 71.2594 1659.51 77.6922L1667.29 79.5878C1668.92 72.9006 1671.1 61.5069 1672.61 53.3725L1664.75 51.9075ZM1659.8 80.3778C1662.71 86.4105 1663.16 91.8081 1663.16 96.8H1671.16C1671.16 91.2319 1670.65 84.4695 1667 76.9022L1659.8 80.3778ZM1663.16 96.8C1663.16 102.771 1662.06 104.65 1661.25 105.318L1666.35 111.482C1670.18 108.31 1671.16 102.989 1671.16 96.8H1663.16ZM1661.2 105.363C1660.79 105.71 1660.09 106.066 1658.81 106.311L1660.31 114.169C1662.39 113.774 1664.57 113.01 1666.4 111.437L1661.2 105.363ZM1658.95 106.287C1658.18 106.406 1657.19 106.48 1655.72 106.48V114.48C1657.45 114.48 1658.86 114.394 1660.17 114.193L1658.95 106.287ZM1659.72 110.48C1659.72 107.741 1659.3 103.475 1657.9 100.077L1650.5 103.123C1651.34 105.165 1651.72 108.259 1651.72 110.48H1659.72ZM1650.2 101.6V121.68H1658.2V101.6H1650.2ZM1654.2 117.68H1644.76V125.68H1654.2V117.68ZM1648.76 121.68V48.96H1640.76V121.68H1648.76ZM1644.76 52.96H1660.28V44.96H1644.76V52.96ZM1661.2 52.8537L1662.56 52.5337L1660.72 44.7463L1659.36 45.0663L1661.2 52.8537ZM1742.68 86.32V90.32L1746.68 86.32H1742.68ZM1715.96 86.32V82.32L1712.38 88.0988L1715.96 86.32ZM1746.76 109.84L1749.5 112.753L1747.73 105.958L1746.76 109.84ZM1738.76 120.72L1737.56 124.537L1742.28 122.611L1738.76 120.72ZM1708.12 95.76L1711.62 93.8234L1704.51 94.0291L1708.12 95.76ZM1677.16 121.04L1673.58 122.829L1678.46 124.824L1677.16 121.04ZM1669.56 110.96L1668.35 107.148L1666.83 113.881L1669.56 110.96ZM1698.28 86.32L1702.03 87.7072L1698.28 82.32V86.32ZM1672.76 86.32H1668.76L1672.76 90.32V86.32ZM1672.76 74.32V70.32L1668.76 74.32H1672.76ZM1700.76 74.32V78.32L1704.76 74.5197L1700.76 74.32ZM1700.92 62.48H1704.92L1700.92 58.48V62.48ZM1675.88 62.48H1671.88L1675.88 66.48V62.48ZM1675.88 50.48V46.48L1671.88 50.48H1675.88ZM1739.64 50.48H1743.64L1739.64 46.48V50.48ZM1739.64 62.48V66.48L1743.64 62.48H1739.64ZM1713.24 62.48V58.48L1709.24 62.48H1713.24ZM1713.16 74.32L1709.17 74.1098L1713.16 78.32V74.32ZM1742.68 74.32H1746.68L1742.68 70.32V74.32ZM1742.68 82.32H1715.96V90.32H1742.68V82.32ZM1712.38 88.0988C1718.62 100.663 1729.62 109.699 1745.79 113.722L1747.73 105.958C1733.66 102.461 1724.66 94.8568 1719.54 84.5412L1712.38 88.0988ZM1744.02 106.927C1740.88 109.877 1737.12 115.311 1735.24 118.829L1742.28 122.611C1743.92 119.569 1747.2 114.923 1749.5 112.753L1744.02 106.927ZM1739.96 116.903C1726.43 112.667 1717.79 104.973 1711.62 93.8234L1704.62 97.6966C1711.73 110.547 1721.97 119.653 1737.56 124.537L1739.96 116.903ZM1704.51 94.0291C1700.21 102.997 1691.96 111.739 1675.86 117.256L1678.46 124.824C1696.44 118.661 1706.43 108.523 1711.73 97.4909L1704.51 94.0291ZM1680.74 119.251C1679.07 115.923 1675.1 110.665 1672.29 108.039L1666.83 113.881C1668.98 115.895 1672.37 120.397 1673.58 122.829L1680.74 119.251ZM1670.77 114.772C1689.25 108.896 1698.06 98.4366 1702.03 87.7072L1694.53 84.9328C1691.46 93.2434 1684.59 101.984 1668.35 107.148L1670.77 114.772ZM1698.28 82.32H1672.76V90.32H1698.28V82.32ZM1676.76 86.32V74.32H1668.76V86.32H1676.76ZM1672.76 78.32H1700.76V70.32H1672.76V78.32ZM1704.76 74.5197C1704.83 72.9618 1704.92 71.4037 1704.92 69.84H1696.92C1696.92 71.1563 1696.85 72.4782 1696.76 74.1203L1704.76 74.5197ZM1704.92 69.84V62.48H1696.92V69.84H1704.92ZM1700.92 58.48H1675.88V66.48H1700.92V58.48ZM1679.88 62.48V50.48H1671.88V62.48H1679.88ZM1675.88 54.48H1739.64V46.48H1675.88V54.48ZM1735.64 50.48V62.48H1743.64V50.48H1735.64ZM1739.64 58.48H1713.24V66.48H1739.64V58.48ZM1709.24 62.48V70H1717.24V62.48H1709.24ZM1709.24 70C1709.24 71.3717 1709.24 72.7103 1709.17 74.1098L1717.15 74.5302C1717.24 72.8897 1717.24 71.3483 1717.24 70H1709.24ZM1713.16 78.32H1742.68V70.32H1713.16V78.32ZM1738.68 74.32V86.32H1746.68V74.32H1738.68ZM1777.56 92.72L1773.58 93.1387L1777.56 96.72V92.72ZM1771.8 70.48L1769.09 73.4261L1774.82 73.1047L1771.8 70.48ZM1763.96 63.28L1760.86 60.7515L1761.25 66.2261L1763.96 63.28ZM1790.04 92.72V96.72L1794.03 92.4479L1790.04 92.72ZM1781.54 92.3013C1781.13 88.4691 1783.2 86.0444 1786.9 83.1521C1788.52 81.8898 1790.89 80.2327 1792.55 78.656C1794.3 77.0027 1796.28 74.5427 1796.28 71.12H1788.28C1788.28 71.2173 1788.26 71.6973 1787.05 72.854C1785.75 74.0873 1784.2 75.1102 1781.98 76.8479C1778 79.9556 1772.71 84.8109 1773.58 93.1387L1781.54 92.3013ZM1796.28 71.12C1796.28 67.5738 1794.66 64.716 1791.93 62.9258C1789.43 61.282 1786.29 60.72 1783.24 60.72V68.72C1785.47 68.72 1786.85 69.158 1787.55 69.6142C1787.86 69.8175 1788 70.0055 1788.09 70.1631C1788.17 70.3201 1788.28 70.6042 1788.28 71.12H1796.28ZM1783.24 60.72C1777.24 60.72 1772.54 63.5389 1768.78 67.8553L1774.82 73.1047C1777.47 70.0611 1780.12 68.72 1783.24 68.72V60.72ZM1774.51 67.5339L1766.67 60.3339L1761.25 66.2261L1769.09 73.4261L1774.51 67.5339ZM1767.06 65.8085C1771.32 60.5858 1777.73 57.2 1784.92 57.2V49.2C1775.15 49.2 1766.52 53.8142 1760.86 60.7515L1767.06 65.8085ZM1784.92 57.2C1790.29 57.2 1794.6 58.3981 1797.46 60.4698C1800.15 62.4158 1801.88 65.3477 1801.88 69.84H1809.88C1809.88 62.8923 1807.01 57.5042 1802.16 53.9902C1797.48 50.6019 1791.31 49.2 1784.92 49.2V57.2ZM1801.88 69.84C1801.88 73.2952 1799.65 75.2554 1795.33 78.4106C1791.73 81.0409 1785.51 85.1527 1786.05 92.9921L1794.03 92.4479C1793.85 89.7273 1795.55 88.1591 1800.05 84.8694C1803.83 82.1046 1809.88 77.9048 1809.88 69.84H1801.88ZM1790.04 88.72H1777.56V96.72H1790.04V88.72ZM1778.36 106.08C1778.36 104.592 1778.91 103.493 1779.72 102.741C1780.56 101.966 1781.91 101.36 1783.8 101.36V93.36C1780.17 93.36 1776.8 94.5535 1774.3 96.8594C1771.77 99.1865 1770.36 102.448 1770.36 106.08H1778.36ZM1783.8 101.36C1785.69 101.36 1787.04 101.966 1787.88 102.741C1788.69 103.493 1789.24 104.592 1789.24 106.08H1797.24C1797.24 102.448 1795.83 99.1865 1793.3 96.8594C1790.8 94.5535 1787.43 93.36 1783.8 93.36V101.36ZM1789.24 106.08C1789.24 108.785 1787.32 110.96 1783.8 110.96V118.96C1791.32 118.96 1797.24 113.615 1797.24 106.08H1789.24ZM1783.8 110.96C1780.28 110.96 1778.36 108.785 1778.36 106.08H1770.36C1770.36 113.615 1776.28 118.96 1783.8 118.96V110.96Z" fill="#00503F" mask="url(#path-7-outside-3_188_9795)"/>
<path d="M1861 114L1850.12 54.48H1864.76L1868.52 81.6L1870.92 100.48H1871.24C1872.36 94.16 1873.56 87.76 1874.76 81.6L1880.84 54.48H1892.84L1899.08 81.6C1900.28 87.68 1901.32 94.08 1902.52 100.48H1902.92C1903.64 94.08 1904.44 87.76 1905.16 81.6L1909 54.48H1922.6L1912.28 114H1894.28L1888.92 88.08C1887.96 83.52 1887.16 78.72 1886.6 74.24H1886.2C1885.48 78.72 1884.76 83.52 1883.88 88.08L1878.68 114H1861ZM1927.45 114V54.48H1941.77V77.12H1961.37V54.48H1975.53V114H1961.37V89.52H1941.77V114H1927.45ZM1986.2 114V54.48H2023.96V66.32H2000.52V77.36H2020.44V89.36H2000.52V102H2024.84V114H1986.2ZM2033.39 114V54.48H2047.95L2062.75 82.96L2068.59 96.16H2068.99C2068.19 89.84 2067.07 81.28 2067.07 74.16V54.48H2080.67V114H2066.11L2051.39 85.28L2045.55 72.24H2045.15C2045.79 78.88 2046.99 87.04 2046.99 94.24V114H2033.39ZM2098.48 92.4C2096.56 80.08 2109.84 74.96 2109.84 68.4C2109.84 64.88 2107.36 63.04 2104.08 63.04C2100.8 63.04 2098.48 64.72 2096 67.2L2088.16 60C2092.56 54.96 2098.64 51.6 2105.84 51.6C2115.76 51.6 2123.52 56.32 2123.52 67.44C2123.52 78.56 2109.84 81.84 2110.88 92.4H2098.48ZM2104.64 115.12C2099.68 115.12 2096.16 111.2 2096.16 106.24C2096.16 101.36 2099.68 97.44 2104.64 97.44C2109.52 97.44 2113.12 101.36 2113.12 106.24C2113.12 111.2 2109.52 115.12 2104.64 115.12Z" fill="#00503F"/>
<mask id="path-10-outside-4_188_9795" maskUnits="userSpaceOnUse" x="2151" y="41" width="936" height="85" fill="black">
<rect fill="white" x="2151" y="41" width="936" height="85"/>
<path d="M2155.36 114V105.84C2170.24 92.32 2180.24 81.52 2180.24 72.88C2180.24 67.44 2177.2 64.48 2172.48 64.48C2168.4 64.48 2165.2 67.2 2162.4 70.24L2154.64 62.56C2160.48 56.4 2165.92 53.36 2174.4 53.36C2185.92 53.36 2193.92 60.72 2193.92 72.08C2193.92 82.32 2185.12 93.6 2176 102.8C2178.96 102.4 2183.04 102 2185.68 102H2196.64V114H2155.36ZM2221.87 115.12C2209.31 115.12 2200.83 104.4 2200.83 83.92C2200.83 63.44 2209.31 53.36 2221.87 53.36C2234.43 53.36 2242.99 63.6 2242.99 83.92C2242.99 104.4 2234.43 115.12 2221.87 115.12ZM2221.87 104.08C2226.11 104.08 2229.55 100.24 2229.55 83.92C2229.55 67.68 2226.11 64.32 2221.87 64.32C2217.63 64.32 2214.27 67.68 2214.27 83.92C2214.27 100.24 2217.63 104.08 2221.87 104.08ZM2246.46 114V105.84C2261.34 92.32 2271.34 81.52 2271.34 72.88C2271.34 67.44 2268.3 64.48 2263.58 64.48C2259.5 64.48 2256.3 67.2 2253.5 70.24L2245.74 62.56C2251.58 56.4 2257.02 53.36 2265.5 53.36C2277.02 53.36 2285.02 60.72 2285.02 72.08C2285.02 82.32 2276.22 93.6 2267.1 102.8C2270.06 102.4 2274.14 102 2276.78 102H2287.74V114H2246.46ZM2304.01 88.32H2315.37V79.6C2315.37 75.84 2315.77 70.16 2315.93 66.4H2315.61C2314.09 69.76 2312.49 73.2 2310.81 76.56L2304.01 88.32ZM2335.29 88.32V99.12H2328.65V114H2315.37V99.12H2290.41V89.28L2311.13 54.48H2328.65V88.32H2335.29ZM2361.16 94H2372.76V84.08H2361.16V94ZM2372.76 65.12H2356.92C2355.24 68.08 2353.4 70.8 2351.56 73.28H2372.76V65.12ZM2411.32 94V105.2H2384.76V121.6H2372.76V105.2H2337.08V94H2349.48V76C2348.52 77.12 2347.56 78.24 2346.6 79.2C2344.36 77.12 2339.4 73.28 2336.6 71.6C2343.56 65.6 2349.56 55.44 2352.76 45.28L2364.68 48.32C2364.04 50.16 2363.32 52.08 2362.52 53.92H2406.6V65.12H2384.76V73.28H2404.68V84.08H2384.76V94H2411.32ZM2435.32 115.12C2422.76 115.12 2414.28 104.4 2414.28 83.92C2414.28 63.44 2422.76 53.36 2435.32 53.36C2447.88 53.36 2456.44 63.6 2456.44 83.92C2456.44 104.4 2447.88 115.12 2435.32 115.12ZM2435.32 104.08C2439.56 104.08 2443 100.24 2443 83.92C2443 67.68 2439.56 64.32 2435.32 64.32C2431.08 64.32 2427.72 67.68 2427.72 83.92C2427.72 100.24 2431.08 104.08 2435.32 104.08ZM2480.79 115.12C2469.11 115.12 2460.39 108.64 2460.39 99.2C2460.39 91.76 2464.63 87.12 2470.15 84.16V83.76C2465.51 80.32 2462.39 75.76 2462.39 69.44C2462.39 59.52 2470.23 53.36 2481.27 53.36C2491.99 53.36 2499.11 59.6 2499.11 69.28C2499.11 74.96 2495.67 79.68 2491.59 82.48V82.88C2497.27 85.84 2501.59 90.8 2501.59 98.96C2501.59 108.16 2493.27 115.12 2480.79 115.12ZM2484.39 79.04C2486.63 76.32 2487.59 73.28 2487.59 70.24C2487.59 65.92 2485.11 63.2 2480.87 63.2C2477.67 63.2 2474.87 65.2 2474.87 69.44C2474.87 74.16 2478.55 76.72 2484.39 79.04ZM2481.11 105.2C2485.19 105.2 2488.39 103.12 2488.39 98.4C2488.39 93.2 2483.83 90.96 2476.55 87.84C2474.15 90.16 2472.55 93.76 2472.55 97.52C2472.55 102.4 2476.47 105.2 2481.11 105.2ZM2527.7 86.88H2557.86V79.2H2528.18C2528.1 81.6 2527.94 84.24 2527.7 86.88ZM2557.86 60.48H2528.18V68.16H2557.86V60.48ZM2570.26 49.12V107.52C2570.26 114.08 2568.74 117.36 2564.66 119.28C2560.42 121.28 2554.58 121.52 2546.42 121.52C2545.78 118.08 2543.46 112.4 2541.62 109.28C2546.74 109.68 2553.46 109.6 2555.38 109.6C2557.22 109.6 2557.86 108.96 2557.86 107.36V98.16H2525.94C2523.78 107.04 2519.78 115.6 2512.5 121.6C2510.74 119.2 2506.02 114.8 2503.46 113.2C2515.22 103.44 2516.18 88.48 2516.18 76.56V49.12H2570.26ZM2585.14 114V102.48H2597.78V68.64H2586.82V59.84C2593.22 58.64 2597.38 57.04 2601.54 54.48H2612.02V102.48H2622.74V114H2585.14ZM2630.69 114V102.48H2643.33V68.64H2632.37V59.84C2638.77 58.64 2642.93 57.04 2647.09 54.48H2657.57V102.48H2668.29V114H2630.69ZM2693.28 103.6H2726.48V88H2693.28V103.6ZM2726.48 61.84H2693.28V76.48H2726.48V61.84ZM2681.28 50.08H2739.04V120.64H2726.48V115.36H2693.28V120.64H2681.28V50.08ZM2814.08 122.24C2806 114.4 2798.4 101.52 2798.4 83.6C2798.4 65.68 2806 52.8 2814.08 44.96L2823.28 48.88C2815.92 56.96 2809.28 67.68 2809.28 83.6C2809.28 99.52 2815.92 110.24 2823.28 118.32L2814.08 122.24ZM2839.68 97.12H2858V93.68H2842.56C2841.6 94.88 2840.64 96 2839.68 97.12ZM2846.96 67.52V70.16H2879.2V67.52H2846.96ZM2846.96 56.88V59.44H2879.2V56.88H2846.96ZM2870.08 109.6H2899.44V119.52H2828.08V109.6H2858V106H2838.24V98.64C2837.36 99.6 2836.48 100.4 2835.6 101.2C2833.36 99.12 2828.64 95.6 2825.92 94C2830.88 90.32 2835.6 84.64 2838.48 78.88H2835.52V48.16H2891.28V78.88H2843.52L2850.48 80.88C2850 82 2849.44 83.04 2848.8 84.16H2858V80.16H2870.08V84.16H2894.24V93.68H2870.08V97.12H2890.48V106H2870.08V109.6ZM2955.76 84.96H2964.64V77.04H2955.84V78.56C2955.84 80.56 2955.84 82.72 2955.76 84.96ZM2964.64 59.44H2955.84V66.88H2964.64V59.44ZM2919.68 88.8V92.64H2927.12V88.8H2919.68ZM2927.12 64.4H2919.68V67.76H2927.12V64.4ZM2919.68 76.48V80.08H2927.12V76.48H2919.68ZM2975.84 48.96V109.36C2975.84 114.72 2974.88 117.76 2971.76 119.52C2968.64 121.36 2964.4 121.68 2958.32 121.6C2958 118.56 2956.56 113.52 2955.12 110.64C2958.08 110.88 2961.92 110.8 2963.04 110.8C2964.24 110.8 2964.64 110.4 2964.64 109.2V95.28H2955.12C2954.16 104.8 2952.16 114.72 2948.16 121.68C2946.32 119.76 2941.76 116.48 2939.2 115.2L2932.64 119.04C2930.96 115.84 2926.96 110.64 2923.76 106.88L2931.28 102.72H2911.92L2922.64 105.84C2919.68 111.68 2914.88 118 2910.64 121.84C2908.48 119.84 2904 116.56 2901.36 115.04C2905.52 112 2909.44 107.28 2911.68 102.72H2902.4V92.64H2909.28V64.4H2903.28V54.32H2909.28V46.48H2919.68V54.32H2927.12V46.48H2937.76V54.32H2942.96V64.4H2937.76V92.64H2942.08V102.72H2933.2C2935.68 105.44 2938.64 108.8 2940.64 111.6C2944.64 101.76 2944.96 88.64 2944.96 78.56V48.96H2975.84ZM3000.48 103.6H3033.68V88H3000.48V103.6ZM3033.68 61.84H3000.48V76.48H3033.68V61.84ZM2988.48 50.08H3046.24V120.64H3033.68V115.36H3000.48V120.64H2988.48V50.08ZM3066.72 44.96C3074.8 52.8 3082.4 65.68 3082.4 83.6C3082.4 101.52 3074.8 114.4 3066.72 122.24L3057.52 118.32C3064.88 110.24 3071.52 99.52 3071.52 83.6C3071.52 67.68 3064.88 56.96 3057.52 48.88L3066.72 44.96Z"/>
</mask>
<path d="M2155.36 114H2151.36L2155.36 118V114ZM2155.36 105.84L2152.67 102.88L2151.36 105.84H2155.36ZM2162.4 70.24L2159.59 73.083L2165.34 72.9499L2162.4 70.24ZM2154.64 62.56L2151.74 59.808L2151.83 65.403L2154.64 62.56ZM2176 102.8L2173.16 99.984L2176.54 106.764L2176 102.8ZM2196.64 102H2200.64L2196.64 98V102ZM2196.64 114V118L2200.64 114H2196.64ZM2159.36 114V105.84H2151.36V114H2159.36ZM2158.05 108.8C2165.51 102.021 2171.93 95.7604 2176.51 90.0232C2180.98 84.4111 2184.24 78.6317 2184.24 72.88H2176.24C2176.24 75.7683 2174.5 79.7089 2170.25 85.0368C2166.11 90.2396 2160.09 96.1391 2152.67 102.88L2158.05 108.8ZM2184.24 72.88C2184.24 69.4303 2183.27 66.2375 2181.03 63.8839C2178.77 61.5079 2175.69 60.48 2172.48 60.48V68.48C2173.99 68.48 2174.79 68.9321 2175.23 69.3961C2175.69 69.8825 2176.24 70.8897 2176.24 72.88H2184.24ZM2172.48 60.48C2166.54 60.48 2162.3 64.4465 2159.46 67.5301L2165.34 72.9499C2168.1 69.9535 2170.26 68.48 2172.48 68.48V60.48ZM2165.21 67.397L2157.45 59.717L2151.83 65.403L2159.59 73.083L2165.21 67.397ZM2157.54 65.312C2160.27 62.4333 2162.71 60.4941 2165.28 59.248C2167.8 58.0209 2170.67 57.36 2174.4 57.36V49.36C2169.65 49.36 2165.56 50.2191 2161.78 52.052C2158.05 53.8659 2154.85 56.5267 2151.74 59.808L2157.54 65.312ZM2174.4 57.36C2179.31 57.36 2183.15 58.9156 2185.73 61.3634C2188.29 63.7901 2189.92 67.3794 2189.92 72.08H2197.92C2197.92 65.4205 2195.55 59.6499 2191.23 55.5566C2186.93 51.4844 2181.01 49.36 2174.4 49.36V57.36ZM2189.92 72.08C2189.92 76.1068 2188.16 80.72 2185.01 85.6829C2181.88 90.5936 2177.62 95.4838 2173.16 99.984L2178.84 105.616C2183.5 100.916 2188.2 95.5664 2191.75 89.9771C2195.28 84.44 2197.92 78.2931 2197.92 72.08H2189.92ZM2176.54 106.764C2179.44 106.372 2183.31 106 2185.68 106V98C2182.77 98 2178.48 98.4283 2175.46 98.836L2176.54 106.764ZM2185.68 106H2196.64V98H2185.68V106ZM2192.64 102V114H2200.64V102H2192.64ZM2196.64 110H2155.36V118H2196.64V110ZM2221.87 111.12C2216.88 111.12 2212.85 109.067 2209.91 104.897C2206.86 100.568 2204.83 93.6825 2204.83 83.92H2196.83C2196.83 94.6375 2199.04 103.352 2203.37 109.503C2207.81 115.813 2214.3 119.12 2221.87 119.12V111.12ZM2204.83 83.92C2204.83 74.1537 2206.86 67.4586 2209.88 63.3108C2212.77 59.3268 2216.79 57.36 2221.87 57.36V49.36C2214.39 49.36 2207.89 52.4331 2203.4 58.6092C2199.04 64.6214 2196.83 73.2063 2196.83 83.92H2204.83ZM2221.87 57.36C2226.93 57.36 2230.98 59.3531 2233.91 63.3731C2236.94 67.5477 2238.99 74.2477 2238.99 83.92H2246.99C2246.99 73.2723 2244.76 64.6922 2240.37 58.6669C2235.88 52.4869 2229.37 49.36 2221.87 49.36V57.36ZM2238.99 83.92C2238.99 93.6755 2236.94 100.559 2233.88 104.889C2230.92 109.064 2226.86 111.12 2221.87 111.12V119.12C2229.44 119.12 2235.94 115.816 2240.4 109.511C2244.76 103.361 2246.99 94.6445 2246.99 83.92H2238.99ZM2221.87 108.08C2223.56 108.08 2225.38 107.687 2227.08 106.549C2228.76 105.428 2230.01 103.788 2230.93 101.802C2232.7 97.9779 2233.55 92.2069 2233.55 83.92H2225.55C2225.55 91.9531 2224.68 96.2621 2223.67 98.4384C2223.2 99.4522 2222.8 99.7919 2222.63 99.901C2222.5 99.9934 2222.3 100.08 2221.87 100.08V108.08ZM2233.55 83.92C2233.55 75.6878 2232.71 70.0153 2230.9 66.2864C2229.95 64.3312 2228.67 62.7516 2226.96 61.6977C2225.26 60.6422 2223.47 60.32 2221.87 60.32V68.32C2222.39 68.32 2222.62 68.4178 2222.75 68.4998C2222.89 68.5834 2223.26 68.8588 2223.7 69.7736C2224.67 71.7847 2225.55 75.9122 2225.55 83.92H2233.55ZM2221.87 60.32C2220.27 60.32 2218.48 60.6422 2216.78 61.7054C2215.08 62.7664 2213.8 64.3535 2212.87 66.3068C2211.09 70.0301 2210.27 75.696 2210.27 83.92H2218.27C2218.27 75.904 2219.13 71.7699 2220.09 69.7531C2220.53 68.8365 2220.89 68.5686 2221.01 68.492C2221.13 68.4178 2221.35 68.32 2221.87 68.32V60.32ZM2210.27 83.92C2210.27 92.1988 2211.1 97.9634 2212.84 101.782C2213.75 103.766 2214.99 105.413 2216.66 106.541C2218.35 107.686 2220.18 108.08 2221.87 108.08V100.08C2221.44 100.08 2221.26 99.9938 2221.13 99.9094C2220.98 99.8073 2220.58 99.4743 2220.12 98.4584C2219.12 96.2766 2218.27 91.9612 2218.27 83.92H2210.27ZM2246.46 114H2242.46L2246.46 118V114ZM2246.46 105.84L2243.77 102.88L2242.46 105.84H2246.46ZM2253.5 70.24L2250.69 73.083L2256.44 72.9499L2253.5 70.24ZM2245.74 62.56L2242.84 59.808L2242.93 65.403L2245.74 62.56ZM2267.1 102.8L2264.26 99.984L2267.64 106.764L2267.1 102.8ZM2287.74 102H2291.74L2287.74 98V102ZM2287.74 114V118L2291.74 114H2287.74ZM2250.46 114V105.84H2242.46V114H2250.46ZM2249.15 108.8C2256.61 102.021 2263.03 95.7604 2267.61 90.0232C2272.08 84.4111 2275.34 78.6317 2275.34 72.88H2267.34C2267.34 75.7683 2265.6 79.7089 2261.35 85.0368C2257.21 90.2396 2251.19 96.1391 2243.77 102.88L2249.15 108.8ZM2275.34 72.88C2275.34 69.4303 2274.37 66.2375 2272.13 63.8839C2269.87 61.5079 2266.79 60.48 2263.58 60.48V68.48C2265.09 68.48 2265.89 68.9321 2266.33 69.3961C2266.79 69.8825 2267.34 70.8897 2267.34 72.88H2275.34ZM2263.58 60.48C2257.64 60.48 2253.4 64.4465 2250.56 67.5301L2256.44 72.9499C2259.2 69.9535 2261.36 68.48 2263.58 68.48V60.48ZM2256.31 67.397L2248.55 59.717L2242.93 65.403L2250.69 73.083L2256.31 67.397ZM2248.64 65.312C2251.37 62.4333 2253.81 60.4941 2256.38 59.248C2258.9 58.0209 2261.77 57.36 2265.5 57.36V49.36C2260.75 49.36 2256.66 50.2191 2252.88 52.052C2249.15 53.8659 2245.95 56.5267 2242.84 59.808L2248.64 65.312ZM2265.5 57.36C2270.41 57.36 2274.25 58.9156 2276.83 61.3634C2279.39 63.7901 2281.02 67.3794 2281.02 72.08H2289.02C2289.02 65.4205 2286.65 59.6499 2282.33 55.5566C2278.03 51.4844 2272.11 49.36 2265.5 49.36V57.36ZM2281.02 72.08C2281.02 76.1068 2279.26 80.72 2276.11 85.6829C2272.98 90.5936 2268.72 95.4838 2264.26 99.984L2269.94 105.616C2274.6 100.916 2279.3 95.5664 2282.85 89.9771C2286.38 84.44 2289.02 78.2931 2289.02 72.08H2281.02ZM2267.64 106.764C2270.54 106.372 2274.41 106 2276.78 106V98C2273.87 98 2269.58 98.4283 2266.56 98.836L2267.64 106.764ZM2276.78 106H2287.74V98H2276.78V106ZM2283.74 102V114H2291.74V102H2283.74ZM2287.74 110H2246.46V118H2287.74V110ZM2304.01 88.32L2300.55 86.3177L2304.01 92.32V88.32ZM2315.37 88.32V92.32L2319.37 88.32H2315.37ZM2315.93 66.4L2319.93 66.5701L2315.93 62.4V66.4ZM2315.61 66.4V62.4L2311.97 64.7513L2315.61 66.4ZM2310.81 76.56L2314.27 78.5623L2314.39 78.3489L2310.81 76.56ZM2335.29 88.32H2339.29L2335.29 84.32V88.32ZM2335.29 99.12V103.12L2339.29 99.12H2335.29ZM2328.65 99.12V95.12L2324.65 99.12H2328.65ZM2328.65 114V118L2332.65 114H2328.65ZM2315.37 114H2311.37L2315.37 118V114ZM2315.37 99.12H2319.37L2315.37 95.12V99.12ZM2290.41 99.12H2286.41L2290.41 103.12V99.12ZM2290.41 89.28L2286.97 87.2336L2286.41 89.28H2290.41ZM2311.13 54.48V50.48L2307.69 52.4336L2311.13 54.48ZM2328.65 54.48H2332.65L2328.65 50.48V54.48ZM2328.65 88.32H2324.65L2328.65 92.32V88.32ZM2304.01 92.32H2315.37V84.32H2304.01V92.32ZM2319.37 88.32V79.6H2311.37V88.32H2319.37ZM2319.37 79.6C2319.37 75.9448 2319.76 70.5402 2319.93 66.5701L2311.93 66.2299C2311.78 69.7798 2311.37 75.7352 2311.37 79.6H2319.37ZM2315.93 62.4H2315.61V70.4H2315.93V62.4ZM2311.97 64.7513C2310.46 68.088 2308.88 71.476 2307.23 74.7711L2314.39 78.3489C2316.1 74.924 2317.72 71.432 2319.25 68.0487L2311.97 64.7513ZM2307.35 74.5577L2300.55 86.3177L2307.47 90.3223L2314.27 78.5623L2307.35 74.5577ZM2331.29 88.32V99.12H2339.29V88.32H2331.29ZM2335.29 95.12H2328.65V103.12H2335.29V95.12ZM2324.65 99.12V114H2332.65V99.12H2324.65ZM2328.65 110H2315.37V118H2328.65V110ZM2319.37 114V99.12H2311.37V114H2319.37ZM2315.37 95.12H2290.41V103.12H2315.37V95.12ZM2294.41 99.12V89.28H2286.41V99.12H2294.41ZM2293.85 91.3264L2314.57 56.5264L2307.69 52.4336L2286.97 87.2336L2293.85 91.3264ZM2311.13 58.48H2328.65V50.48H2311.13V58.48ZM2324.65 54.48V88.32H2332.65V54.48H2324.65ZM2328.65 92.32H2335.29V84.32H2328.65V92.32ZM2361.16 94H2357.16L2361.16 98V94ZM2372.76 94V98L2376.76 94H2372.76ZM2372.76 84.08H2376.76L2372.76 80.08V84.08ZM2361.16 84.08V80.08L2357.16 84.08H2361.16ZM2372.76 65.12H2376.76L2372.76 61.12V65.12ZM2356.92 65.12V61.12L2353.44 63.1456L2356.92 65.12ZM2351.56 73.28L2348.35 70.8966L2351.56 77.28V73.28ZM2372.76 73.28V77.28L2376.76 73.28H2372.76ZM2411.32 94H2415.32L2411.32 90V94ZM2411.32 105.2V109.2L2415.32 105.2H2411.32ZM2384.76 105.2V101.2L2380.76 105.2H2384.76ZM2384.76 121.6V125.6L2388.76 121.6H2384.76ZM2372.76 121.6H2368.76L2372.76 125.6V121.6ZM2372.76 105.2H2376.76L2372.76 101.2V105.2ZM2337.08 105.2H2333.08L2337.08 109.2V105.2ZM2337.08 94V90L2333.08 94H2337.08ZM2349.48 94V98L2353.48 94H2349.48ZM2349.48 76H2353.48L2346.44 73.3968L2349.48 76ZM2346.6 79.2L2343.88 82.1312L2349.43 82.0284L2346.6 79.2ZM2336.6 71.6L2333.99 68.5704L2334.54 75.03L2336.6 71.6ZM2352.76 45.28L2353.75 41.4041L2348.94 44.0783L2352.76 45.28ZM2364.68 48.32L2368.46 49.6341L2365.67 44.4441L2364.68 48.32ZM2362.52 53.92L2358.85 52.3251L2362.52 57.92V53.92ZM2406.6 53.92H2410.6L2406.6 49.92V53.92ZM2406.6 65.12V69.12L2410.6 65.12H2406.6ZM2384.76 65.12V61.12L2380.76 65.12H2384.76ZM2384.76 73.28H2380.76L2384.76 77.28V73.28ZM2404.68 73.28H2408.68L2404.68 69.28V73.28ZM2404.68 84.08V88.08L2408.68 84.08H2404.68ZM2384.76 84.08V80.08L2380.76 84.08H2384.76ZM2384.76 94H2380.76L2384.76 98V94ZM2361.16 98H2372.76V90H2361.16V98ZM2376.76 94V84.08H2368.76V94H2376.76ZM2372.76 80.08H2361.16V88.08H2372.76V80.08ZM2357.16 84.08V94H2365.16V84.08H2357.16ZM2372.76 61.12H2356.92V69.12H2372.76V61.12ZM2353.44 63.1456C2351.86 65.932 2350.12 68.5141 2348.35 70.8966L2354.77 75.6634C2356.68 73.0859 2358.62 70.228 2360.4 67.0944L2353.44 63.1456ZM2351.56 77.28H2372.76V69.28H2351.56V77.28ZM2376.76 73.28V65.12H2368.76V73.28H2376.76ZM2407.32 94V105.2H2415.32V94H2407.32ZM2411.32 101.2H2384.76V109.2H2411.32V101.2ZM2380.76 105.2V121.6H2388.76V105.2H2380.76ZM2384.76 117.6H2372.76V125.6H2384.76V117.6ZM2376.76 121.6V105.2H2368.76V121.6H2376.76ZM2372.76 101.2H2337.08V109.2H2372.76V101.2ZM2341.08 105.2V94H2333.08V105.2H2341.08ZM2337.08 98H2349.48V90H2337.08V98ZM2353.48 94V76H2345.48V94H2353.48ZM2346.44 73.3968C2345.46 74.5435 2344.6 75.5404 2343.77 76.3716L2349.43 82.0284C2350.52 80.9396 2351.58 79.6965 2352.52 78.6032L2346.44 73.3968ZM2349.32 76.2688C2346.91 74.0321 2341.73 70.0152 2338.66 68.17L2334.54 75.03C2337.07 76.5448 2341.81 80.2079 2343.88 82.1312L2349.32 76.2688ZM2339.21 74.6296C2346.88 68.0209 2353.22 57.1465 2356.58 46.4816L2348.94 44.0783C2345.9 53.7335 2340.24 63.1791 2333.99 68.5704L2339.21 74.6296ZM2351.77 49.1559L2363.69 52.1959L2365.67 44.4441L2353.75 41.4041L2351.77 49.1559ZM2360.9 47.0059C2360.28 48.7876 2359.6 50.6071 2358.85 52.3251L2366.19 55.5149C2367.04 53.5529 2367.8 51.5323 2368.46 49.6341L2360.9 47.0059ZM2362.52 57.92H2406.6V49.92H2362.52V57.92ZM2402.6 53.92V65.12H2410.6V53.92H2402.6ZM2406.6 61.12H2384.76V69.12H2406.6V61.12ZM2380.76 65.12V73.28H2388.76V65.12H2380.76ZM2384.76 77.28H2404.68V69.28H2384.76V77.28ZM2400.68 73.28V84.08H2408.68V73.28H2400.68ZM2404.68 80.08H2384.76V88.08H2404.68V80.08ZM2380.76 84.08V94H2388.76V84.08H2380.76ZM2384.76 98H2411.32V90H2384.76V98ZM2435.32 111.12C2430.33 111.12 2426.3 109.067 2423.36 104.897C2420.31 100.568 2418.28 93.6825 2418.28 83.92H2410.28C2410.28 94.6375 2412.49 103.352 2416.82 109.503C2421.26 115.813 2427.75 119.12 2435.32 119.12V111.12ZM2418.28 83.92C2418.28 74.1537 2420.31 67.4586 2423.33 63.3108C2426.22 59.3268 2430.24 57.36 2435.32 57.36V49.36C2427.84 49.36 2421.34 52.4331 2416.85 58.6092C2412.49 64.6214 2410.28 73.2063 2410.28 83.92H2418.28ZM2435.32 57.36C2440.38 57.36 2444.43 59.3531 2447.36 63.3731C2450.39 67.5477 2452.44 74.2477 2452.44 83.92H2460.44C2460.44 73.2723 2458.21 64.6922 2453.82 58.6669C2449.33 52.4869 2442.82 49.36 2435.32 49.36V57.36ZM2452.44 83.92C2452.44 93.6755 2450.39 100.559 2447.33 104.889C2444.37 109.064 2440.31 111.12 2435.32 111.12V119.12C2442.89 119.12 2449.39 115.816 2453.85 109.511C2458.21 103.361 2460.44 94.6445 2460.44 83.92H2452.44ZM2435.32 108.08C2437.01 108.08 2438.83 107.687 2440.53 106.549C2442.21 105.428 2443.46 103.788 2444.38 101.802C2446.15 97.9779 2447 92.2069 2447 83.92H2439C2439 91.9531 2438.13 96.2621 2437.12 98.4384C2436.65 99.4522 2436.25 99.7919 2436.08 99.901C2435.95 99.9934 2435.75 100.08 2435.32 100.08V108.08ZM2447 83.92C2447 75.6878 2446.16 70.0153 2444.35 66.2864C2443.4 64.3312 2442.12 62.7516 2440.41 61.6977C2438.71 60.6422 2436.92 60.32 2435.32 60.32V68.32C2435.84 68.32 2436.07 68.4178 2436.2 68.4998C2436.34 68.5834 2436.71 68.8588 2437.15 69.7736C2438.12 71.7847 2439 75.9122 2439 83.92H2447ZM2435.32 60.32C2433.72 60.32 2431.93 60.6422 2430.23 61.7054C2428.53 62.7664 2427.25 64.3535 2426.32 66.3068C2424.54 70.0301 2423.72 75.696 2423.72 83.92H2431.72C2431.72 75.904 2432.58 71.7699 2433.54 69.7531C2433.98 68.8365 2434.34 68.5686 2434.46 68.492C2434.58 68.4178 2434.8 68.32 2435.32 68.32V60.32ZM2423.72 83.92C2423.72 92.1988 2424.55 97.9634 2426.29 101.782C2427.2 103.766 2428.44 105.413 2430.11 106.541C2431.8 107.686 2433.63 108.08 2435.32 108.08V100.08C2434.89 100.08 2434.71 99.9938 2434.58 99.9094C2434.43 99.8073 2434.03 99.4743 2433.57 98.4584C2432.57 96.2766 2431.72 91.9612 2431.72 83.92H2423.72ZM2470.15 84.16L2472.04 87.6852L2474.15 84.16H2470.15ZM2470.15 83.76H2474.15L2472.53 80.5468L2470.15 83.76ZM2491.59 82.48L2489.33 79.1819L2487.59 82.48H2491.59ZM2491.59 82.88H2487.59L2489.74 86.4272L2491.59 82.88ZM2484.39 79.04L2482.91 82.7574L2487.48 81.5828L2484.39 79.04ZM2476.55 87.84L2478.13 84.1634L2473.77 84.964L2476.55 87.84ZM2480.79 111.12C2470.28 111.12 2464.39 105.519 2464.39 99.2H2456.39C2456.39 111.761 2467.94 119.12 2480.79 119.12V111.12ZM2464.39 99.2C2464.39 93.6923 2467.36 90.1958 2472.04 87.6852L2468.26 80.6348C2461.9 84.0442 2456.39 89.8277 2456.39 99.2H2464.39ZM2474.15 84.16V83.76H2466.15V84.16H2474.15ZM2472.53 80.5468C2468.62 77.6496 2466.39 74.1756 2466.39 69.44H2458.39C2458.39 77.3444 2462.4 82.9904 2467.77 86.9732L2472.53 80.5468ZM2466.39 69.44C2466.39 65.6257 2467.85 62.7478 2470.25 60.7544C2472.72 58.7004 2476.46 57.36 2481.27 57.36V49.36C2475.04 49.36 2469.34 51.0996 2465.13 54.6056C2460.85 58.1722 2458.39 63.3343 2458.39 69.44H2466.39ZM2481.27 57.36C2485.87 57.36 2489.31 58.6931 2491.55 60.6812C2493.75 62.627 2495.11 65.4815 2495.11 69.28H2503.11C2503.11 63.3985 2500.91 58.293 2496.87 54.6988C2492.86 51.1469 2487.39 49.36 2481.27 49.36V57.36ZM2495.11 69.28C2495.11 73.2783 2492.66 76.8956 2489.33 79.1819L2493.85 85.7781C2498.68 82.4644 2503.11 76.6417 2503.11 69.28H2495.11ZM2487.59 82.48V82.88H2495.59V82.48H2487.59ZM2489.74 86.4272C2494.4 88.8557 2497.59 92.6035 2497.59 98.96H2505.59C2505.59 88.9965 2500.14 82.8243 2493.44 79.3328L2489.74 86.4272ZM2497.59 98.96C2497.59 105.139 2491.97 111.12 2480.79 111.12V119.12C2494.57 119.12 2505.59 111.181 2505.59 98.96H2497.59ZM2487.48 81.5828C2490.33 78.1181 2491.59 74.1701 2491.59 70.24H2483.59C2483.59 72.3899 2482.93 74.5219 2481.3 76.4972L2487.48 81.5828ZM2491.59 70.24C2491.59 67.3295 2490.75 64.4938 2488.73 62.3563C2486.69 60.1874 2483.87 59.2 2480.87 59.2V67.2C2482.11 67.2 2482.65 67.5726 2482.91 67.8437C2483.19 68.1461 2483.59 68.8305 2483.59 70.24H2491.59ZM2480.87 59.2C2478.46 59.2 2475.91 59.9582 2473.94 61.8102C2471.91 63.7105 2470.87 66.3922 2470.87 69.44H2478.87C2478.87 68.2478 2479.23 67.8095 2479.4 67.6498C2479.63 67.4418 2480.08 67.2 2480.87 67.2V59.2ZM2470.87 69.44C2470.87 73.0389 2472.35 75.8908 2474.73 78.0819C2476.94 80.1169 2479.89 81.5545 2482.91 82.7574L2485.87 75.3226C2483.05 74.2055 2481.24 73.2031 2480.15 72.1981C2479.23 71.3492 2478.87 70.5611 2478.87 69.44H2470.87ZM2481.11 109.2C2483.77 109.2 2486.62 108.525 2488.87 106.622C2491.22 104.63 2492.39 101.733 2492.39 98.4H2484.39C2484.39 99.7868 2483.96 100.29 2483.69 100.518C2483.32 100.835 2482.53 101.2 2481.11 101.2V109.2ZM2492.39 98.4C2492.39 94.3064 2490.46 91.3678 2487.66 89.1867C2485.13 87.2095 2481.66 85.6781 2478.13 84.1634L2474.97 91.5166C2478.72 93.1219 2481.17 94.2705 2482.74 95.4933C2484.04 96.5122 2484.39 97.2936 2484.39 98.4H2492.39ZM2473.77 84.964C2470.58 88.0462 2468.55 92.6879 2468.55 97.52H2476.55C2476.55 94.8321 2477.72 92.2738 2479.33 90.716L2473.77 84.964ZM2468.55 97.52C2468.55 101.131 2470.04 104.176 2472.52 106.253C2474.92 108.269 2478.02 109.2 2481.11 109.2V101.2C2479.56 101.2 2478.38 100.731 2477.66 100.127C2477.02 99.584 2476.55 98.7894 2476.55 97.52H2468.55ZM2527.7 86.88L2523.72 86.5179L2527.7 90.88V86.88ZM2557.86 86.88V90.88L2561.86 86.88H2557.86ZM2557.86 79.2H2561.86L2557.86 75.2V79.2ZM2528.18 79.2V75.2L2524.18 79.0667L2528.18 79.2ZM2557.86 60.48H2561.86L2557.86 56.48V60.48ZM2528.18 60.48V56.48L2524.18 60.48H2528.18ZM2528.18 68.16H2524.18L2528.18 72.16V68.16ZM2557.86 68.16V72.16L2561.86 68.16H2557.86ZM2570.26 49.12H2574.26L2570.26 45.12V49.12ZM2564.66 119.28L2562.96 115.661L2562.95 115.662L2564.66 119.28ZM2546.42 121.52L2542.49 122.252L2546.42 125.52V121.52ZM2541.62 109.28L2541.93 105.292L2538.17 111.312L2541.62 109.28ZM2557.86 98.16H2561.86L2557.86 94.16V98.16ZM2525.94 98.16V94.16L2522.05 97.2146L2525.94 98.16ZM2512.5 121.6L2509.27 123.965L2515.04 124.687L2512.5 121.6ZM2503.46 113.2L2500.91 110.122L2501.34 116.592L2503.46 113.2ZM2516.18 49.12V45.12L2512.18 49.12H2516.18ZM2527.7 90.88H2557.86V82.88H2527.7V90.88ZM2561.86 86.88V79.2H2553.86V86.88H2561.86ZM2557.86 75.2H2528.18V83.2H2557.86V75.2ZM2524.18 79.0667C2524.1 81.3906 2523.95 83.9543 2523.72 86.5179L2531.68 87.2421C2531.93 84.5257 2532.1 81.8094 2532.18 79.3333L2524.18 79.0667ZM2557.86 56.48H2528.18V64.48H2557.86V56.48ZM2524.18 60.48V68.16H2532.18V60.48H2524.18ZM2528.18 72.16H2557.86V64.16H2528.18V72.16ZM2561.86 68.16V60.48H2553.86V68.16H2561.86ZM2566.26 49.12V107.52H2574.26V49.12H2566.26ZM2566.26 107.52C2566.26 110.571 2565.89 112.336 2565.37 113.428C2564.94 114.347 2564.29 115.034 2562.96 115.661L2566.36 122.899C2569.11 121.606 2571.26 119.693 2572.61 116.852C2573.87 114.184 2574.26 111.029 2574.26 107.52H2566.26ZM2562.95 115.662C2559.68 117.209 2554.8 117.52 2546.42 117.52V125.52C2554.36 125.52 2561.16 125.351 2566.37 122.898L2562.95 115.662ZM2550.35 120.788C2549.61 116.79 2547.08 110.672 2545.07 107.248L2538.17 111.312C2539.84 114.128 2541.95 119.37 2542.49 122.252L2550.35 120.788ZM2541.31 113.268C2546.63 113.683 2553.55 113.6 2555.38 113.6V105.6C2553.37 105.6 2546.85 105.677 2541.93 105.292L2541.31 113.268ZM2555.38 113.6C2556.57 113.6 2558.49 113.433 2560.02 112.019C2561.65 110.521 2561.86 108.551 2561.86 107.36H2553.86C2553.86 107.769 2553.75 106.919 2554.6 106.141C2554.98 105.785 2555.36 105.652 2555.51 105.61C2555.64 105.575 2555.63 105.6 2555.38 105.6V113.6ZM2561.86 107.36V98.16H2553.86V107.36H2561.86ZM2557.86 94.16H2525.94V102.16H2557.86V94.16ZM2522.05 97.2146C2520.01 105.618 2516.33 113.261 2509.96 118.513L2515.04 124.687C2523.23 117.939 2527.55 108.462 2529.83 99.1054L2522.05 97.2146ZM2515.73 119.235C2514.62 117.727 2512.78 115.824 2511 114.171C2509.23 112.519 2507.19 110.812 2505.58 109.808L2501.34 116.592C2502.29 117.188 2503.89 118.481 2505.56 120.029C2507.22 121.576 2508.62 123.073 2509.27 123.965L2515.73 119.235ZM2506.01 116.278C2519.35 105.214 2520.18 88.4133 2520.18 76.56H2512.18C2512.18 88.5467 2511.09 101.666 2500.91 110.122L2506.01 116.278ZM2520.18 76.56V49.12H2512.18V76.56H2520.18ZM2516.18 53.12H2570.26V45.12H2516.18V53.12ZM2585.14 114H2581.14L2585.14 118V114ZM2585.14 102.48V98.48L2581.14 102.48H2585.14ZM2597.78 102.48V106.48L2601.78 102.48H2597.78ZM2597.78 68.64H2601.78L2597.78 64.64V68.64ZM2586.82 68.64H2582.82L2586.82 72.64V68.64ZM2586.82 59.84L2586.08 55.9085L2582.82 59.84H2586.82ZM2601.54 54.48V50.48L2599.44 51.0734L2601.54 54.48ZM2612.02 54.48H2616.02L2612.02 50.48V54.48ZM2612.02 102.48H2608.02L2612.02 106.48V102.48ZM2622.74 102.48H2626.74L2622.74 98.48V102.48ZM2622.74 114V118L2626.74 114H2622.74ZM2589.14 114V102.48H2581.14V114H2589.14ZM2585.14 106.48H2597.78V98.48H2585.14V106.48ZM2601.78 102.48V68.64H2593.78V102.48H2601.78ZM2597.78 64.64H2586.82V72.64H2597.78V64.64ZM2590.82 68.64V59.84H2582.82V68.64H2590.82ZM2587.56 63.7715C2594.35 62.4972 2598.99 60.7451 2603.64 57.8866L2599.44 51.0734C2595.77 53.3349 2592.09 54.7828 2586.08 55.9085L2587.56 63.7715ZM2601.54 58.48H2612.02V50.48H2601.54V58.48ZM2608.02 54.48V102.48H2616.02V54.48H2608.02ZM2612.02 106.48H2622.74V98.48H2612.02V106.48ZM2618.74 102.48V114H2626.74V102.48H2618.74ZM2622.74 110H2585.14V118H2622.74V110ZM2630.69 114H2626.69L2630.69 118V114ZM2630.69 102.48V98.48L2626.69 102.48H2630.69ZM2643.33 102.48V106.48L2647.33 102.48H2643.33ZM2643.33 68.64H2647.33L2643.33 64.64V68.64ZM2632.37 68.64H2628.37L2632.37 72.64V68.64ZM2632.37 59.84L2631.63 55.9085L2628.37 59.84H2632.37ZM2647.09 54.48V50.48L2644.99 51.0734L2647.09 54.48ZM2657.57 54.48H2661.57L2657.57 50.48V54.48ZM2657.57 102.48H2653.57L2657.57 106.48V102.48ZM2668.29 102.48H2672.29L2668.29 98.48V102.48ZM2668.29 114V118L2672.29 114H2668.29ZM2634.69 114V102.48H2626.69V114H2634.69ZM2630.69 106.48H2643.33V98.48H2630.69V106.48ZM2647.33 102.48V68.64H2639.33V102.48H2647.33ZM2643.33 64.64H2632.37V72.64H2643.33V64.64ZM2636.37 68.64V59.84H2628.37V68.64H2636.37ZM2633.11 63.7715C2639.9 62.4972 2644.54 60.7451 2649.19 57.8866L2644.99 51.0734C2641.32 53.3349 2637.64 54.7828 2631.63 55.9085L2633.11 63.7715ZM2647.09 58.48H2657.57V50.48H2647.09V58.48ZM2653.57 54.48V102.48H2661.57V54.48H2653.57ZM2657.57 106.48H2668.29V98.48H2657.57V106.48ZM2664.29 102.48V114H2672.29V102.48H2664.29ZM2668.29 110H2630.69V118H2668.29V110ZM2693.28 103.6H2689.28L2693.28 107.6V103.6ZM2726.48 103.6V107.6L2730.48 103.6H2726.48ZM2726.48 88H2730.48L2726.48 84V88ZM2693.28 88V84L2689.28 88H2693.28ZM2726.48 61.84H2730.48L2726.48 57.84V61.84ZM2693.28 61.84V57.84L2689.28 61.84H2693.28ZM2693.28 76.48H2689.28L2693.28 80.48V76.48ZM2726.48 76.48V80.48L2730.48 76.48H2726.48ZM2681.28 50.08V46.08L2677.28 50.08H2681.28ZM2739.04 50.08H2743.04L2739.04 46.08V50.08ZM2739.04 120.64V124.64L2743.04 120.64H2739.04ZM2726.48 120.64H2722.48L2726.48 124.64V120.64ZM2726.48 115.36H2730.48L2726.48 111.36V115.36ZM2693.28 115.36V111.36L2689.28 115.36H2693.28ZM2693.28 120.64V124.64L2697.28 120.64H2693.28ZM2681.28 120.64H2677.28L2681.28 124.64V120.64ZM2693.28 107.6H2726.48V99.6H2693.28V107.6ZM2730.48 103.6V88H2722.48V103.6H2730.48ZM2726.48 84H2693.28V92H2726.48V84ZM2689.28 88V103.6H2697.28V88H2689.28ZM2726.48 57.84H2693.28V65.84H2726.48V57.84ZM2689.28 61.84V76.48H2697.28V61.84H2689.28ZM2693.28 80.48H2726.48V72.48H2693.28V80.48ZM2730.48 76.48V61.84H2722.48V76.48H2730.48ZM2681.28 54.08H2739.04V46.08H2681.28V54.08ZM2735.04 50.08V120.64H2743.04V50.08H2735.04ZM2739.04 116.64H2726.48V124.64H2739.04V116.64ZM2730.48 120.64V115.36H2722.48V120.64H2730.48ZM2726.48 111.36H2693.28V119.36H2726.48V111.36ZM2689.28 115.36V120.64H2697.28V115.36H2689.28ZM2693.28 116.64H2681.28V124.64H2693.28V116.64ZM2685.28 120.64V50.08H2677.28V120.64H2685.28ZM2814.08 122.24L2811.29 125.111L2815.65 125.92L2814.08 122.24ZM2814.08 44.96L2815.65 41.2801L2811.29 42.0893L2814.08 44.96ZM2823.28 48.88L2826.24 51.5736L2824.85 45.2001L2823.28 48.88ZM2823.28 118.32L2824.85 122L2826.24 115.626L2823.28 118.32ZM2816.87 119.369C2809.46 112.182 2802.4 100.302 2802.4 83.6H2794.4C2794.4 102.738 2802.54 116.618 2811.29 125.111L2816.87 119.369ZM2802.4 83.6C2802.4 66.8977 2809.46 55.0177 2816.87 47.8307L2811.29 42.0893C2802.54 50.5823 2794.4 64.4623 2794.4 83.6H2802.4ZM2812.51 48.6399L2821.71 52.5599L2824.85 45.2001L2815.65 41.2801L2812.51 48.6399ZM2820.32 46.1864C2812.53 54.7446 2805.28 66.3819 2805.28 83.6H2813.28C2813.28 68.9781 2819.31 59.1754 2826.24 51.5736L2820.32 46.1864ZM2805.28 83.6C2805.28 100.818 2812.53 112.455 2820.32 121.014L2826.24 115.626C2819.31 108.025 2813.28 98.2219 2813.28 83.6H2805.28ZM2821.71 114.64L2812.51 118.56L2815.65 125.92L2824.85 122L2821.71 114.64ZM2839.68 97.12L2836.64 94.5168L2839.68 101.12V97.12ZM2858 97.12V101.12L2862 97.12H2858ZM2858 93.68H2862L2858 89.68V93.68ZM2842.56 93.68V89.68L2839.44 91.1812L2842.56 93.68ZM2846.96 67.52V63.52L2842.96 67.52H2846.96ZM2846.96 70.16H2842.96L2846.96 74.16V70.16ZM2879.2 70.16V74.16L2883.2 70.16H2879.2ZM2879.2 67.52H2883.2L2879.2 63.52V67.52ZM2846.96 56.88V52.88L2842.96 56.88H2846.96ZM2846.96 59.44H2842.96L2846.96 63.44V59.44ZM2879.2 59.44V63.44L2883.2 59.44H2879.2ZM2879.2 56.88H2883.2L2879.2 52.88V56.88ZM2870.08 109.6H2866.08L2870.08 113.6V109.6ZM2899.44 109.6H2903.44L2899.44 105.6V109.6ZM2899.44 119.52V123.52L2903.44 119.52H2899.44ZM2828.08 119.52H2824.08L2828.08 123.52V119.52ZM2828.08 109.6V105.6L2824.08 109.6H2828.08ZM2858 109.6V113.6L2862 109.6H2858ZM2858 106H2862L2858 102V106ZM2838.24 106H2834.24L2838.24 110V106ZM2838.24 98.64H2842.24L2835.29 95.9371L2838.24 98.64ZM2835.6 101.2L2832.88 104.131L2838.29 104.16L2835.6 101.2ZM2825.92 94L2823.54 90.7876L2823.89 97.4477L2825.92 94ZM2838.48 78.88L2842.06 80.6689L2838.48 74.88V78.88ZM2835.52 78.88H2831.52L2835.52 82.88V78.88ZM2835.52 48.16V44.16L2831.52 48.16H2835.52ZM2891.28 48.16H2895.28L2891.28 44.16V48.16ZM2891.28 78.88V82.88L2895.28 78.88H2891.28ZM2843.52 78.88V74.88L2842.42 82.7244L2843.52 78.88ZM2850.48 80.88L2854.16 82.4557L2851.58 77.0356L2850.48 80.88ZM2848.8 84.16L2845.33 82.1754L2848.8 88.16V84.16ZM2858 84.16V88.16L2862 84.16H2858ZM2858 80.16V76.16L2854 80.16H2858ZM2870.08 80.16H2874.08L2870.08 76.16V80.16ZM2870.08 84.16H2866.08L2870.08 88.16V84.16ZM2894.24 84.16H2898.24L2894.24 80.16V84.16ZM2894.24 93.68V97.68L2898.24 93.68H2894.24ZM2870.08 93.68V89.68L2866.08 93.68H2870.08ZM2870.08 97.12H2866.08L2870.08 101.12V97.12ZM2890.48 97.12H2894.48L2890.48 93.12V97.12ZM2890.48 106V110L2894.48 106H2890.48ZM2870.08 106V102L2866.08 106H2870.08ZM2839.68 101.12H2858V93.12H2839.68V101.12ZM2862 97.12V93.68H2854V97.12H2862ZM2858 89.68H2842.56V97.68H2858V89.68ZM2839.44 91.1812C2838.53 92.32 2837.61 93.3898 2836.64 94.5168L2842.72 99.7232C2843.67 98.6102 2844.67 97.44 2845.68 96.1788L2839.44 91.1812ZM2842.96 67.52V70.16H2850.96V67.52H2842.96ZM2846.96 74.16H2879.2V66.16H2846.96V74.16ZM2883.2 70.16V67.52H2875.2V70.16H2883.2ZM2879.2 63.52H2846.96V71.52H2879.2V63.52ZM2842.96 56.88V59.44H2850.96V56.88H2842.96ZM2846.96 63.44H2879.2V55.44H2846.96V63.44ZM2883.2 59.44V56.88H2875.2V59.44H2883.2ZM2879.2 52.88H2846.96V60.88H2879.2V52.88ZM2870.08 113.6H2899.44V105.6H2870.08V113.6ZM2895.44 109.6V119.52H2903.44V109.6H2895.44ZM2899.44 115.52H2828.08V123.52H2899.44V115.52ZM2832.08 119.52V109.6H2824.08V119.52H2832.08ZM2828.08 113.6H2858V105.6H2828.08V113.6ZM2862 109.6V106H2854V109.6H2862ZM2858 102H2838.24V110H2858V102ZM2842.24 106V98.64H2834.24V106H2842.24ZM2835.29 95.9371C2834.55 96.7436 2833.8 97.4281 2832.91 98.2402L2838.29 104.16C2839.16 103.372 2840.17 102.456 2841.19 101.343L2835.29 95.9371ZM2838.32 98.2688C2835.87 95.9916 2830.92 92.2986 2827.95 90.5523L2823.89 97.4477C2826.36 98.9014 2830.85 102.248 2832.88 104.131L2838.32 98.2688ZM2828.3 97.2124C2833.79 93.1426 2838.91 86.9666 2842.06 80.6689L2834.9 77.0911C2832.29 82.3134 2827.97 87.4974 2823.54 90.7876L2828.3 97.2124ZM2838.48 74.88H2835.52V82.88H2838.48V74.88ZM2839.52 78.88V48.16H2831.52V78.88H2839.52ZM2835.52 52.16H2891.28V44.16H2835.52V52.16ZM2887.28 48.16V78.88H2895.28V48.16H2887.28ZM2891.28 74.88H2843.52V82.88H2891.28V74.88ZM2842.42 82.7244L2849.38 84.7244L2851.58 77.0356L2844.62 75.0356L2842.42 82.7244ZM2846.8 79.3043C2846.41 80.2155 2845.94 81.1012 2845.33 82.1754L2852.27 86.1446C2852.94 84.9788 2853.59 83.7845 2854.16 82.4557L2846.8 79.3043ZM2848.8 88.16H2858V80.16H2848.8V88.16ZM2862 84.16V80.16H2854V84.16H2862ZM2858 84.16H2870.08V76.16H2858V84.16ZM2866.08 80.16V84.16H2874.08V80.16H2866.08ZM2870.08 88.16H2894.24V80.16H2870.08V88.16ZM2890.24 84.16V93.68H2898.24V84.16H2890.24ZM2894.24 89.68H2870.08V97.68H2894.24V89.68ZM2866.08 93.68V97.12H2874.08V93.68H2866.08ZM2870.08 101.12H2890.48V93.12H2870.08V101.12ZM2886.48 97.12V106H2894.48V97.12H2886.48ZM2890.48 102H2870.08V110H2890.48V102ZM2866.08 106V109.6H2874.08V106H2866.08ZM2955.76 84.96L2951.76 84.8172L2955.76 88.96V84.96ZM2964.64 84.96V88.96L2968.64 84.96H2964.64ZM2964.64 77.04H2968.64L2964.64 73.04V77.04ZM2955.84 77.04V73.04L2951.84 77.04H2955.84ZM2964.64 59.44H2968.64L2964.64 55.44V59.44ZM2955.84 59.44V55.44L2951.84 59.44H2955.84ZM2955.84 66.88H2951.84L2955.84 70.88V66.88ZM2964.64 66.88V70.88L2968.64 66.88H2964.64ZM2919.68 88.8V84.8L2915.68 88.8H2919.68ZM2919.68 92.64H2915.68L2919.68 96.64V92.64ZM2927.12 92.64V96.64L2931.12 92.64H2927.12ZM2927.12 88.8H2931.12L2927.12 84.8V88.8ZM2927.12 64.4H2931.12L2927.12 60.4V64.4ZM2919.68 64.4V60.4L2915.68 64.4H2919.68ZM2919.68 67.76H2915.68L2919.68 71.76V67.76ZM2927.12 67.76V71.76L2931.12 67.76H2927.12ZM2919.68 76.48V72.48L2915.68 76.48H2919.68ZM2919.68 80.08H2915.68L2919.68 84.08V80.08ZM2927.12 80.08V84.08L2931.12 80.08H2927.12ZM2927.12 76.48H2931.12L2927.12 72.48V76.48ZM2975.84 48.96H2979.84L2975.84 44.96V48.96ZM2971.76 119.52L2969.79 116.036L2969.73 116.075L2971.76 119.52ZM2958.32 121.6L2954.34 122.019L2958.27 125.6L2958.32 121.6ZM2955.12 110.64L2955.44 106.653L2951.54 112.429L2955.12 110.64ZM2964.64 95.28H2968.64L2964.64 91.28V95.28ZM2955.12 95.28V91.28L2951.14 94.8787L2955.12 95.28ZM2948.16 121.68L2945.27 124.448L2951.63 123.673L2948.16 121.68ZM2939.2 115.2L2940.99 111.622L2937.18 111.748L2939.2 115.2ZM2932.64 119.04L2929.1 120.899L2934.66 122.492L2932.64 119.04ZM2923.76 106.88L2921.82 103.38L2920.71 109.472L2923.76 106.88ZM2931.28 102.72L2933.22 106.22L2931.28 98.72V102.72ZM2911.92 102.72V98.72L2910.8 106.561L2911.92 102.72ZM2922.64 105.84L2926.21 107.648L2923.76 101.999L2922.64 105.84ZM2910.64 121.84L2907.92 124.775L2913.33 124.805L2910.64 121.84ZM2901.36 115.04L2899 111.81L2899.36 118.506L2901.36 115.04ZM2911.68 102.72L2915.27 104.484L2911.68 98.72V102.72ZM2902.4 102.72H2898.4L2902.4 106.72V102.72ZM2902.4 92.64V88.64L2898.4 92.64H2902.4ZM2909.28 92.64V96.64L2913.28 92.64H2909.28ZM2909.28 64.4H2913.28L2909.28 60.4V64.4ZM2903.28 64.4H2899.28L2903.28 68.4V64.4ZM2903.28 54.32V50.32L2899.28 54.32H2903.28ZM2909.28 54.32V58.32L2913.28 54.32H2909.28ZM2909.28 46.48V42.48L2905.28 46.48H2909.28ZM2919.68 46.48H2923.68L2919.68 42.48V46.48ZM2919.68 54.32H2915.68L2919.68 58.32V54.32ZM2927.12 54.32V58.32L2931.12 54.32H2927.12ZM2927.12 46.48V42.48L2923.12 46.48H2927.12ZM2937.76 46.48H2941.76L2937.76 42.48V46.48ZM2937.76 54.32H2933.76L2937.76 58.32V54.32ZM2942.96 54.32H2946.96L2942.96 50.32V54.32ZM2942.96 64.4V68.4L2946.96 64.4H2942.96ZM2937.76 64.4V60.4L2933.76 64.4H2937.76ZM2937.76 92.64H2933.76L2937.76 96.64V92.64ZM2942.08 92.64H2946.08L2942.08 88.64V92.64ZM2942.08 102.72V106.72L2946.08 102.72H2942.08ZM2933.2 102.72V98.72L2930.24 105.415L2933.2 102.72ZM2940.64 111.6L2937.39 113.925L2944.35 113.106L2940.64 111.6ZM2944.96 48.96V44.96L2940.96 48.96H2944.96ZM2955.76 88.96H2964.64V80.96H2955.76V88.96ZM2968.64 84.96V77.04H2960.64V84.96H2968.64ZM2964.64 73.04H2955.84V81.04H2964.64V73.04ZM2951.84 77.04V78.56H2959.84V77.04H2951.84ZM2951.84 78.56C2951.84 80.5686 2951.84 82.6593 2951.76 84.8172L2959.76 85.1028C2959.84 82.7807 2959.84 80.5514 2959.84 78.56H2951.84ZM2964.64 55.44H2955.84V63.44H2964.64V55.44ZM2951.84 59.44V66.88H2959.84V59.44H2951.84ZM2955.84 70.88H2964.64V62.88H2955.84V70.88ZM2968.64 66.88V59.44H2960.64V66.88H2968.64ZM2915.68 88.8V92.64H2923.68V88.8H2915.68ZM2919.68 96.64H2927.12V88.64H2919.68V96.64ZM2931.12 92.64V88.8H2923.12V92.64H2931.12ZM2927.12 84.8H2919.68V92.8H2927.12V84.8ZM2927.12 60.4H2919.68V68.4H2927.12V60.4ZM2915.68 64.4V67.76H2923.68V64.4H2915.68ZM2919.68 71.76H2927.12V63.76H2919.68V71.76ZM2931.12 67.76V64.4H2923.12V67.76H2931.12ZM2915.68 76.48V80.08H2923.68V76.48H2915.68ZM2919.68 84.08H2927.12V76.08H2919.68V84.08ZM2931.12 80.08V76.48H2923.12V80.08H2931.12ZM2927.12 72.48H2919.68V80.48H2927.12V72.48ZM2971.84 48.96V109.36H2979.84V48.96H2971.84ZM2971.84 109.36C2971.84 111.881 2971.6 113.398 2971.23 114.363C2970.93 115.152 2970.53 115.619 2969.79 116.036L2973.73 123.004C2976.11 121.661 2977.75 119.728 2978.71 117.217C2979.6 114.882 2979.84 112.199 2979.84 109.36H2971.84ZM2969.73 116.075C2967.7 117.27 2964.56 117.682 2958.37 117.6L2958.27 125.6C2964.24 125.678 2969.58 125.45 2973.79 122.965L2969.73 116.075ZM2962.3 121.181C2961.93 117.675 2960.36 112.17 2958.7 108.851L2951.54 112.429C2952.76 114.87 2954.07 119.445 2954.34 122.019L2962.3 121.181ZM2954.8 114.627C2957.97 114.884 2962.07 114.8 2963.04 114.8V106.8C2961.77 106.8 2958.19 106.876 2955.44 106.653L2954.8 114.627ZM2963.04 114.8C2963.86 114.8 2965.68 114.715 2967.12 113.278C2968.55 111.842 2968.64 110.022 2968.64 109.2H2960.64C2960.64 109.578 2960.53 108.558 2961.46 107.622C2962.4 106.685 2963.42 106.8 2963.04 106.8V114.8ZM2968.64 109.2V95.28H2960.64V109.2H2968.64ZM2964.64 91.28H2955.12V99.28H2964.64V91.28ZM2951.14 94.8787C2950.19 104.274 2948.25 113.489 2944.69 119.687L2951.63 123.673C2956.07 115.951 2958.13 105.326 2959.1 95.6813L2951.14 94.8787ZM2951.05 118.912C2949.87 117.687 2948.04 116.219 2946.29 114.957C2944.53 113.683 2942.55 112.402 2940.99 111.622L2937.41 118.778C2938.41 119.278 2939.99 120.277 2941.61 121.443C2943.24 122.621 2944.61 123.753 2945.27 124.448L2951.05 118.912ZM2937.18 111.748L2930.62 115.588L2934.66 122.492L2941.22 118.652L2937.18 111.748ZM2936.18 117.181C2934.28 113.551 2930.01 108.057 2926.81 104.288L2920.71 109.472C2923.91 113.223 2927.64 118.129 2929.1 120.899L2936.18 117.181ZM2925.7 110.38L2933.22 106.22L2929.34 99.2199L2921.82 103.38L2925.7 110.38ZM2931.28 98.72H2911.92V106.72H2931.28V98.72ZM2910.8 106.561L2921.52 109.681L2923.76 101.999L2913.04 98.8794L2910.8 106.561ZM2919.07 104.032C2916.32 109.469 2911.81 115.388 2907.95 118.875L2913.33 124.805C2917.95 120.612 2923.04 113.891 2926.21 107.648L2919.07 104.032ZM2913.36 118.905C2910.97 116.693 2906.24 113.236 2903.36 111.574L2899.36 118.506C2901.76 119.884 2905.99 122.987 2907.92 124.775L2913.36 118.905ZM2903.72 118.27C2908.41 114.841 2912.75 109.615 2915.27 104.484L2908.09 100.956C2906.13 104.945 2902.63 109.159 2899 111.81L2903.72 118.27ZM2911.68 98.72H2902.4V106.72H2911.68V98.72ZM2906.4 102.72V92.64H2898.4V102.72H2906.4ZM2902.4 96.64H2909.28V88.64H2902.4V96.64ZM2913.28 92.64V64.4H2905.28V92.64H2913.28ZM2909.28 60.4H2903.28V68.4H2909.28V60.4ZM2907.28 64.4V54.32H2899.28V64.4H2907.28ZM2903.28 58.32H2909.28V50.32H2903.28V58.32ZM2913.28 54.32V46.48H2905.28V54.32H2913.28ZM2909.28 50.48H2919.68V42.48H2909.28V50.48ZM2915.68 46.48V54.32H2923.68V46.48H2915.68ZM2919.68 58.32H2927.12V50.32H2919.68V58.32ZM2931.12 54.32V46.48H2923.12V54.32H2931.12ZM2927.12 50.48H2937.76V42.48H2927.12V50.48ZM2933.76 46.48V54.32H2941.76V46.48H2933.76ZM2937.76 58.32H2942.96V50.32H2937.76V58.32ZM2938.96 54.32V64.4H2946.96V54.32H2938.96ZM2942.96 60.4H2937.76V68.4H2942.96V60.4ZM2933.76 64.4V92.64H2941.76V64.4H2933.76ZM2937.76 96.64H2942.08V88.64H2937.76V96.64ZM2938.08 92.64V102.72H2946.08V92.64H2938.08ZM2942.08 98.72H2933.2V106.72H2942.08V98.72ZM2930.24 105.415C2932.72 108.135 2935.54 111.339 2937.39 113.925L2943.89 109.275C2941.74 106.261 2938.64 102.745 2936.16 100.025L2930.24 105.415ZM2944.35 113.106C2948.68 102.432 2948.96 88.5327 2948.96 78.56H2940.96C2940.96 88.7473 2940.6 101.088 2936.93 110.094L2944.35 113.106ZM2948.96 78.56V48.96H2940.96V78.56H2948.96ZM2944.96 52.96H2975.84V44.96H2944.96V52.96ZM3000.48 103.6H2996.48L3000.48 107.6V103.6ZM3033.68 103.6V107.6L3037.68 103.6H3033.68ZM3033.68 88H3037.68L3033.68 84V88ZM3000.48 88V84L2996.48 88H3000.48ZM3033.68 61.84H3037.68L3033.68 57.84V61.84ZM3000.48 61.84V57.84L2996.48 61.84H3000.48ZM3000.48 76.48H2996.48L3000.48 80.48V76.48ZM3033.68 76.48V80.48L3037.68 76.48H3033.68ZM2988.48 50.08V46.08L2984.48 50.08H2988.48ZM3046.24 50.08H3050.24L3046.24 46.08V50.08ZM3046.24 120.64V124.64L3050.24 120.64H3046.24ZM3033.68 120.64H3029.68L3033.68 124.64V120.64ZM3033.68 115.36H3037.68L3033.68 111.36V115.36ZM3000.48 115.36V111.36L2996.48 115.36H3000.48ZM3000.48 120.64V124.64L3004.48 120.64H3000.48ZM2988.48 120.64H2984.48L2988.48 124.64V120.64ZM3000.48 107.6H3033.68V99.6H3000.48V107.6ZM3037.68 103.6V88H3029.68V103.6H3037.68ZM3033.68 84H3000.48V92H3033.68V84ZM2996.48 88V103.6H3004.48V88H2996.48ZM3033.68 57.84H3000.48V65.84H3033.68V57.84ZM2996.48 61.84V76.48H3004.48V61.84H2996.48ZM3000.48 80.48H3033.68V72.48H3000.48V80.48ZM3037.68 76.48V61.84H3029.68V76.48H3037.68ZM2988.48 54.08H3046.24V46.08H2988.48V54.08ZM3042.24 50.08V120.64H3050.24V50.08H3042.24ZM3046.24 116.64H3033.68V124.64H3046.24V116.64ZM3037.68 120.64V115.36H3029.68V120.64H3037.68ZM3033.68 111.36H3000.48V119.36H3033.68V111.36ZM2996.48 115.36V120.64H3004.48V115.36H2996.48ZM3000.48 116.64H2988.48V124.64H3000.48V116.64ZM2992.48 120.64V50.08H2984.48V120.64H2992.48ZM3066.72 44.96L3069.51 42.0893L3065.15 41.2801L3066.72 44.96ZM3066.72 122.24L3065.15 125.92L3069.51 125.111L3066.72 122.24ZM3057.52 118.32L3054.56 115.626L3055.95 122L3057.52 118.32ZM3057.52 48.88L3055.95 45.2001L3054.56 51.5736L3057.52 48.88ZM3063.93 47.8307C3071.34 55.0177 3078.4 66.8977 3078.4 83.6H3086.4C3086.4 64.4623 3078.26 50.5823 3069.51 42.0893L3063.93 47.8307ZM3078.4 83.6C3078.4 100.302 3071.34 112.182 3063.93 119.369L3069.51 125.111C3078.26 116.618 3086.4 102.738 3086.4 83.6H3078.4ZM3068.29 118.56L3059.09 114.64L3055.95 122L3065.15 125.92L3068.29 118.56ZM3060.48 121.014C3068.27 112.455 3075.52 100.818 3075.52 83.6H3067.52C3067.52 98.2219 3061.49 108.025 3054.56 115.626L3060.48 121.014ZM3075.52 83.6C3075.52 66.3819 3068.27 54.7446 3060.48 46.1864L3054.56 51.5736C3061.49 59.1754 3067.52 68.9781 3067.52 83.6H3075.52ZM3059.09 52.5599L3068.29 48.6399L3065.15 41.2801L3055.95 45.2001L3059.09 52.5599Z" fill="#00503F" mask="url(#path-10-outside-4_188_9795)"/>
</svg>
