<svg width="725" height="535" viewBox="0 0 725 535" fill="none" xmlns="http://www.w3.org/2000/svg">
<path d="M167.78 143.116L159.839 147.462L163.375 155.795L178.249 190.845L176.994 191.532L168.884 195.969L172.671 204.402L186.478 235.148L21.8094 316.223L13.295 320.415L17.0364 329.137L50.5002 407.146L54.2416 415.868L63.147 412.588L183.48 368.26L195.726 400.581L199.018 409.268L207.923 406.625L246.369 395.212L266.471 442.985L270.082 451.567L278.9 448.577L330.797 430.981L324.505 436.969L317.261 443.863L324.155 451.107L382.752 512.681L389.646 519.925L396.89 513.031L575.786 342.783L581.607 337.243L577.449 330.366L562.31 305.324L585.059 293.777L593.203 289.643L589.823 281.158L572.433 237.508L703.162 176.631L711.859 172.581L708.173 163.723L675.541 85.3155L671.855 76.4579L662.852 79.7743L575.918 111.799L556.19 65.2082L552.507 56.51L543.613 59.6917L447.25 94.1646L408.261 22.9167L403.46 14.1444L394.688 18.9449L167.78 143.116Z" fill="#00503F" stroke="#00503F" stroke-width="20"/>
<path d="M325.536 301.088L327.576 301.64C326.712 303.368 325.296 305.144 323.976 306.248C323.616 305.888 322.8 305.264 322.32 304.976C323.616 304.016 324.864 302.576 325.536 301.088ZM333.048 301.904L334.656 301.016C335.952 302.24 337.368 303.92 338.016 305.096L336.288 306.128C335.664 304.952 334.296 303.152 333.048 301.904ZM333.648 295.736V294.296H327.312V295.736H333.648ZM333.648 298.688V297.224H327.312V298.688H333.648ZM331.128 289.232H329.928C329.352 290.528 328.656 291.704 327.816 292.712H333.24C332.376 291.656 331.68 290.48 331.128 289.232ZM318.744 300.92H321.168V297.896H318.744V300.92ZM318.744 293.024V296H321.168V293.024H318.744ZM321.168 288.152H318.744V291.128H321.168V288.152ZM335.976 289.592L337.536 290.456C336.912 291.152 336.24 291.848 335.664 292.4C336.48 293.12 337.368 293.744 338.328 294.152C337.872 294.56 337.224 295.304 336.936 295.832C336.528 295.616 336.096 295.352 335.712 295.088V300.272H331.56V304.664C331.56 305.624 331.416 306.224 330.696 306.56C330 306.896 329.04 306.896 327.576 306.896C327.552 306.32 327.216 305.456 326.928 304.904C327.888 304.952 328.824 304.928 329.112 304.928C329.376 304.904 329.472 304.856 329.472 304.616V300.272H325.32V295.04C324.912 295.328 324.504 295.592 324.048 295.856C323.88 295.544 323.496 294.968 323.16 294.536V302.936H318.744V304.928H316.776V286.184H323.16V293.984C323.952 293.528 324.672 293.024 325.32 292.424C324.864 291.824 324.264 291.128 323.664 290.624L324.96 289.688C325.512 290.096 326.088 290.624 326.52 291.152C326.976 290.552 327.384 289.928 327.744 289.232H323.76V287.432H328.512C328.8 286.64 329.04 285.776 329.208 284.864L331.224 285.152C331.056 285.944 330.84 286.712 330.624 287.432H337.656V289.232H333.168C333.576 289.976 334.056 290.672 334.608 291.32C335.136 290.744 335.664 290.072 335.976 289.592ZM346.8 298.952H348.6V296.528H346.8V298.952ZM343.416 296.528V297.224C343.416 297.776 343.416 298.352 343.392 298.952H345.24V296.528H343.416ZM346.56 288.752H344.232C343.92 289.496 343.584 290.24 343.224 290.912H345.672C345.984 290.288 346.296 289.496 346.56 288.752ZM346.8 292.592V294.872H348.6V292.592H346.8ZM343.416 292.592V294.872H345.24V292.592H343.416ZM359.376 287.912H356.04C355.56 290.72 354.456 292.928 351.504 294.248C351.288 293.84 350.856 293.24 350.448 292.856V304.592C350.448 305.552 350.256 306.176 349.608 306.512C348.936 306.824 347.976 306.848 346.416 306.848C346.32 306.344 346.008 305.456 345.72 304.976C346.872 305 347.88 305 348.168 305C348.48 304.976 348.6 304.88 348.6 304.568V300.656H343.272C343.056 302.888 342.552 305.192 341.424 306.92C341.088 306.632 340.272 306.128 339.84 305.936C341.448 303.416 341.616 299.888 341.616 297.2V293.384L341.4 293.648C341.04 293.312 340.224 292.616 339.768 292.328C341.424 290.528 342.696 287.744 343.392 284.84L345.432 285.296C345.264 285.872 345.096 286.448 344.904 287.024H347.424L347.736 286.928L349.032 287.744C348.648 288.752 348.12 289.904 347.592 290.912H350.448V292.64C352.728 291.632 353.592 289.952 353.976 287.912H351V286.064H361.44C361.44 286.064 361.44 286.592 361.416 286.832C361.248 290.72 361.032 292.328 360.528 292.904C360.192 293.336 359.784 293.504 359.16 293.576C358.656 293.648 357.696 293.648 356.736 293.6C356.688 293.024 356.496 292.256 356.232 291.752C357.072 291.848 357.84 291.848 358.176 291.848C358.488 291.872 358.68 291.824 358.824 291.632C359.088 291.344 359.256 290.36 359.376 287.912ZM362.088 300.608V302.552H357.72V306.776H355.608V302.552H350.856V300.608H355.608V298.016H353.256C352.92 298.832 352.536 299.552 352.128 300.152C351.744 299.864 350.904 299.456 350.448 299.264C351.432 297.92 352.128 295.976 352.512 293.984L354.36 294.368C354.24 294.944 354.096 295.52 353.928 296.096H355.608V293.792H357.72V296.096H361.632V298.016H357.72V300.608H362.088ZM368.856 297.44H373.968C374.016 297.056 374.016 296.672 374.016 296.264V295.4H368.856V297.44ZM368.856 291.632V293.672H374.016V291.632H368.856ZM381.672 291.632H376.344V293.672H381.672V291.632ZM381.672 297.44V295.4H376.344V296.288C376.344 296.696 376.344 297.056 376.296 297.44H381.672ZM383.88 299.264H376.032C375.744 300.632 375.144 301.904 374.04 303.032C377.112 304.232 381.144 304.496 386.232 304.544C385.824 305.072 385.416 306.008 385.296 306.752C379.92 306.56 375.552 306.152 372.192 304.496C370.632 305.48 368.448 306.296 365.52 306.92C365.256 306.416 364.656 305.456 364.152 304.952C366.768 304.496 368.664 303.896 370.104 303.2C369.024 302.384 368.112 301.352 367.32 300.104L369.264 299.336C370.008 300.416 370.896 301.28 371.952 301.976C372.864 301.16 373.368 300.248 373.656 299.264H366.744V289.808H374.016V288.08H364.632V286.064H385.392V288.08H376.344V289.808H383.88V299.264ZM402.84 288.872H396.408C396.048 289.16 395.664 289.424 395.28 289.664C396.432 290.48 397.632 291.464 398.424 292.256C400.152 291.32 401.688 290.168 402.84 288.872ZM404.832 286.784L406.296 287.672C403.248 293.072 396.36 296.144 389.904 297.44C389.688 296.888 389.232 295.952 388.848 295.472C391.416 295.04 394.032 294.296 396.432 293.264C395.688 292.448 394.608 291.512 393.576 290.768C392.784 291.2 391.944 291.656 391.056 292.064C390.72 291.536 390.048 290.816 389.544 290.456C393.36 288.92 396.24 286.76 397.776 284.816L400.2 285.368C399.768 285.896 399.264 286.4 398.712 286.904H404.448L404.832 286.784ZM406.32 297.44H400.296C399.72 297.896 399.072 298.328 398.424 298.76C399.552 299.6 400.824 300.656 401.64 301.496C403.536 300.44 405.168 299.12 406.32 297.44ZM408.12 295.352L409.656 296.24C406.32 303.368 398.328 306.032 389.592 306.968C389.448 306.32 389.064 305.336 388.704 304.808C392.616 304.472 396.336 303.776 399.528 302.504C398.736 301.664 397.584 300.68 396.528 299.84C395.472 300.392 394.32 300.92 393.072 301.424C392.784 300.872 392.16 300.08 391.68 299.696C396.528 298.04 399.888 295.544 401.664 293.192L404.112 293.744C403.632 294.344 403.152 294.896 402.6 295.448H407.736L408.12 295.352Z" fill="white"/>
<path d="M383 221L353 227.694L360.656 233.571L343 248.265C343 248.265 347.583 249.695 351.438 252.837C355.292 255.979 357.896 261 357.896 261L371.438 242.224L377.531 250.714L383 221Z" fill="white"/>
</svg>
