<svg width="267" height="260" viewBox="0 0 267 260" fill="none" xmlns="http://www.w3.org/2000/svg">
<path d="M102.516 187.351L106.865 215.756C108.482 226.316 123.308 227.323 126.339 217.079L136.469 182.84C138.098 177.336 144.015 174.329 149.421 176.259L194.921 192.504C204.871 196.057 212.815 183.759 205.486 176.149L178.593 148.225C174.17 143.633 175.116 136.129 180.542 132.78L219.832 108.52C229.278 102.687 223.606 88.105 212.702 90.1886L167.076 98.907C160.912 100.085 155.199 95.3602 155.199 89.0847L155.199 43.5332C155.199 32.9154 140.835 29.6158 136.201 39.1693L110.141 92.8997C107.872 97.5783 102.396 99.7371 97.5447 97.8656L46.2109 78.0622C36.0317 74.1353 27.8164 87.026 35.6747 94.5946L73.9478 131.457C78.2724 135.622 77.9773 142.633 73.3181 146.42L44.4867 169.854C36.3054 176.504 42.6531 189.651 52.9485 187.379L90.4766 179.1C96.1201 177.855 101.641 181.639 102.516 187.351Z" fill="#00503F"/>
<path d="M147.83 107.303L147.284 112.373L136.91 126.101C143.072 127.661 146.738 132.263 146.738 138.659C146.738 150.203 136.91 158.549 123.572 158.549C111.638 158.549 104.384 151.919 105.242 142.559L119.984 139.985C119.516 143.183 121.544 145.367 124.82 145.367C128.174 145.367 130.826 142.637 130.826 139.205C130.826 136.475 128.954 134.603 125.912 134.603C123.806 134.603 121.934 135.305 120.608 136.163L118.19 131.015L126.926 119.705H110L111.482 107.303H147.83Z" fill="white"/>
</svg>
