<svg width="410" height="400" viewBox="0 0 410 400" fill="none" xmlns="http://www.w3.org/2000/svg">
<path d="M156.845 282.551L168.055 355.756C169.672 366.316 184.498 367.323 187.529 357.079L211.566 275.836C213.195 270.331 219.112 267.325 224.518 269.255L321.474 303.871C331.424 307.423 339.368 295.126 332.039 287.516L270.125 223.23C265.702 218.637 266.649 211.134 272.074 207.784L363.073 151.597C372.519 145.764 366.847 131.182 355.943 133.265L250.643 153.387C244.479 154.564 238.767 149.84 238.767 143.564L238.767 43.5331C238.767 32.9153 224.402 29.6158 219.769 39.1692L167.286 147.379C165.017 152.058 159.54 154.217 154.689 152.345L46.21 110.497C36.0308 106.57 27.8154 119.46 35.6737 127.029L118.146 206.462C122.471 210.627 122.176 217.637 117.516 221.424L50.8071 275.646C42.6258 282.296 48.9735 295.442 59.2689 293.171L144.806 274.3C150.45 273.055 155.971 276.839 156.845 282.551Z" fill="#00503F"/>
<path d="M227.431 165.08L226.591 172.88L210.631 194C220.111 196.4 225.751 203.48 225.751 213.32C225.751 231.08 210.631 243.92 190.111 243.92C171.751 243.92 160.591 233.72 161.911 219.32L184.591 215.36C183.871 220.28 186.991 223.64 192.031 223.64C197.191 223.64 201.271 219.44 201.271 214.16C201.271 209.96 198.391 207.08 193.711 207.08C190.471 207.08 187.591 208.16 185.551 209.48L181.831 201.56L195.271 184.16H169.231L171.511 165.08H227.431Z" fill="white"/>
</svg>
