<svg width="16" height="16" viewBox="0 0 16 16" fill="none" xmlns="http://www.w3.org/2000/svg">
<path d="M5.33268 2.66683H3.99935C3.64573 2.66683 3.30659 2.80731 3.05654 3.05735C2.80649 3.3074 2.66602 3.64654 2.66602 4.00016V13.3335C2.66602 13.6871 2.80649 14.0263 3.05654 14.2763C3.30659 14.5264 3.64573 14.6668 3.99935 14.6668H11.9993C12.353 14.6668 12.6921 14.5264 12.9422 14.2763C13.1922 14.0263 13.3327 13.6871 13.3327 13.3335V13.0002M10.666 2.66683H11.9993C12.2332 2.66707 12.4628 2.72879 12.6652 2.8458C12.8677 2.96282 13.0358 3.131 13.1527 3.3335M5.33268 12.0002H5.99935M5.99935 1.3335H9.99935C10.3675 1.3335 10.666 1.63197 10.666 2.00016V3.3335C10.666 3.70169 10.3675 4.00016 9.99935 4.00016H5.99935C5.63116 4.00016 5.33268 3.70169 5.33268 3.3335V2.00016C5.33268 1.63197 5.63116 1.3335 5.99935 1.3335ZM14.2513 8.4175C14.5169 8.15193 14.6661 7.79173 14.6661 7.41616C14.6661 7.04059 14.5169 6.6804 14.2513 6.41483C13.9858 6.14926 13.6256 6.00006 13.25 6.00006C12.8744 6.00006 12.5143 6.14926 12.2487 6.41483L9.57535 9.0895C9.41685 9.24791 9.30083 9.44372 9.23802 9.65883L8.68002 11.5722C8.66328 11.6295 8.66228 11.6903 8.67711 11.7482C8.69194 11.8061 8.72206 11.8589 8.76431 11.9012C8.80657 11.9435 8.8594 11.9736 8.91729 11.9884C8.97517 12.0032 9.03598 12.0022 9.09335 11.9855L11.0067 11.4275C11.2218 11.3647 11.4176 11.2487 11.576 11.0902L14.2513 8.4175Z" stroke="#484848" stroke-width="1.5" stroke-linecap="round" stroke-linejoin="round"/>
</svg>
