<svg width="16" height="16" viewBox="0 0 16 16" fill="none" xmlns="http://www.w3.org/2000/svg">
<g clip-path="url(#clip0_1_227)">
<path d="M5.52666 8.4733L3.79333 10.2066C3.58164 10.09 3.34711 10.0208 3.10601 10.0039C2.86492 9.98691 2.62301 10.0226 2.39708 10.1084C2.17115 10.1943 1.96659 10.3283 1.79759 10.501C1.62859 10.6738 1.4992 10.8813 1.41837 11.1091C1.33755 11.3369 1.30723 11.5795 1.32952 11.8201C1.35181 12.0608 1.42618 12.2937 1.54747 12.5028C1.66876 12.7119 1.83406 12.892 2.03193 13.0308C2.22979 13.1696 2.45547 13.2637 2.69333 13.3066C2.74 13.5414 2.83669 13.7634 2.97683 13.9574C3.11696 14.1515 3.29724 14.313 3.50542 14.4312C3.71359 14.5493 3.94477 14.6212 4.18322 14.642C4.42167 14.6628 4.6618 14.632 4.88728 14.5517C5.11276 14.4714 5.31829 14.3434 5.4899 14.1765C5.6615 14.0097 5.79515 13.8078 5.88175 13.5847C5.96835 13.3615 6.00588 13.1224 5.99177 12.8834C5.97766 12.6445 5.91225 12.4114 5.79999 12.2L7.52666 10.4733M10.2667 10.42C9.2689 10.7401 8.27909 10.7478 7.44289 10.4421C6.60669 10.1363 5.96827 9.53321 5.6216 8.7215C5.27492 7.90979 5.2383 6.93236 5.51711 5.93305C5.79593 4.93375 6.37547 3.96536 7.17042 3.1704C7.96538 2.37544 8.93377 1.79591 9.93308 1.51709C10.9324 1.23827 11.9098 1.2749 12.7215 1.62157C13.5332 1.96825 14.1364 2.60666 14.4421 3.44287C14.7479 4.27907 14.7401 5.26888 14.42 6.26664C13.9568 6.00241 13.3695 5.93669 12.7569 6.08052C12.1444 6.22435 11.5439 6.56897 11.0564 7.0564C10.569 7.54383 10.2244 8.14434 10.0805 8.75692C9.93671 9.3695 10.0024 9.95678 10.2667 10.42Z" stroke="#484848" stroke-width="1.5" stroke-linecap="round" stroke-linejoin="round"/>
</g>
<defs>
<clipPath id="clip0_1_227">
<rect width="16" height="16" fill="white"/>
</clipPath>
</defs>
</svg>
