<svg width="27" height="27" viewBox="0 0 27 27" fill="none" xmlns="http://www.w3.org/2000/svg">
<path d="M20.9352 15.3969C21.6972 21.3208 11.8414 24.0056 9.59429 18.4081C9.59429 18.4081 12.6299 18.0796 15.7049 17.2631C18.7799 16.4466 20.9352 15.3969 20.9352 15.3969Z" fill="#00503F"/>
<path d="M25.1315 12.8623C25.7692 20.2009 19.9002 25.4104 13.264 25.4985C6.62788 25.5867 2.10536 21.7323 1.11386 14.9556C0.122372 8.17887 5.76008 2.09081 12.0282 1.54449C18.2963 0.998183 24.4939 5.52365 25.1315 12.8623Z" fill="#00503F"/>
<path d="M7.46543 14.3322C8.17024 13.1675 10.6193 11.7262 12.6107 13.1491M21.1847 11.213C19.9626 10.3838 17.5578 10.6997 16.6502 12.4457M9.59429 18.4081C11.8414 24.0056 21.6972 21.3208 20.9352 15.3969C20.9352 15.3969 18.7799 16.4466 15.7049 17.2631C12.6299 18.0796 9.59429 18.4081 9.59429 18.4081ZM25.1315 12.8623C25.7692 20.2009 19.9002 25.4104 13.264 25.4985C6.62788 25.5867 2.10536 21.7323 1.11386 14.9556C0.122372 8.17887 5.76008 2.09081 12.0282 1.54449C18.2963 0.998183 24.4939 5.52365 25.1315 12.8623Z" stroke="white" stroke-width="2" stroke-linejoin="bevel"/>
</svg>
